<svg xmlns="http://www.w3.org/2000/svg" xmlns:xlink="http://www.w3.org/1999/xlink" 
     viewBox="0 0 375 375" width="375" height="375" preserveAspectRatio="xMidYMid meet" version="1.2"><defs><clipPath id="5d93af22b4"><path d="M 12 1.316406 L 362 1.316406 L 362 373 L 12 373 Z M 12 1.316406 "/></clipPath></defs><g id="71b5f19736"><g clip-rule="nonzero" clip-path="url(#5d93af22b4)"><path style=" stroke:none;fill-rule:nonzero;fill:#621cf0;fill-opacity:1;" d="M 269.144531 23.65625 C 284.464844 31.679688 297.433594 42.191406 309.988281 54.019531 L 312.230469 56.089844 C 332.023438 74.972656 346.9375 102.085938 354.800781 128.15625 C 363.78125 159.980469 363.757812 193.203125 355.710938 225.21875 C 347.339844 256.230469 330.996094 282.019531 308.886719 305.011719 L 306.625 307.519531 C 281.167969 334.859375 239.207031 354.054688 204.304688 365.554688 C 175.824219 374.15625 147.511719 375 118.441406 368.859375 C 84.808594 360.46875 45 338.65625 20.015625 314.5625 C 17.027344 311.238281 14.382812 308.097656 12.761719 303.910156 C 12.546875 300.726562 12.449219 297.539062 12.460938 294.347656 L 12.441406 291.394531 C 12.425781 288.117188 12.425781 284.84375 12.425781 281.566406 C 12.414062 279.222656 12.40625 276.878906 12.394531 274.535156 C 12.375 268.15625 12.359375 261.78125 12.355469 255.40625 C 12.351562 251.425781 12.347656 247.445312 12.339844 243.464844 C 12.3125 229.582031 12.296875 215.699219 12.292969 201.816406 C 12.289062 188.867188 12.257812 175.917969 12.210938 162.96875 C 12.171875 151.855469 12.152344 140.746094 12.15625 129.632812 C 12.152344 122.992188 12.144531 116.355469 12.113281 109.714844 C 12.085938 103.472656 12.078125 97.230469 12.097656 90.988281 C 12.101562 88.695312 12.09375 86.402344 12.078125 84.109375 C 12.054688 80.980469 12.066406 77.855469 12.085938 74.730469 L 12.039062 71.96875 C 12.078125 69.535156 12.183594 67.394531 12.761719 65.027344 C 15.945312 61.082031 19.011719 58.8125 23.617188 56.761719 L 26.738281 55.351562 L 30.097656 53.882812 L 33.675781 52.28125 C 37.339844 50.648438 41.011719 49.027344 44.6875 47.414062 L 50.882812 44.671875 C 55.234375 42.746094 59.597656 40.839844 63.960938 38.933594 C 69.519531 36.503906 75.054688 34.027344 80.585938 31.53125 C 84.714844 29.667969 88.84375 27.820312 92.976562 25.96875 C 95.003906 25.054688 97.03125 24.140625 99.058594 23.21875 C 119.5 13.921875 140.148438 6.402344 162.476562 3.382812 L 165.417969 2.945312 C 200.917969 -1.519531 237.574219 7.769531 269.144531 23.65625 M 137.707031 26.222656 L 135.410156 27.074219 C 133.046875 27.960938 130.695312 28.875 128.347656 29.800781 L 125.972656 30.730469 C 117.300781 34.152344 108.753906 37.863281 100.332031 41.871094 C 91.527344 46.027344 82.558594 49.824219 73.613281 53.664062 C 63.921875 57.835938 54.277344 62.097656 44.640625 66.390625 L 30.375 72.734375 C 30.195312 102.003906 30.058594 131.277344 29.976562 160.550781 C 29.933594 174.140625 29.882812 187.734375 29.792969 201.324219 C 29.714844 213.171875 29.667969 225.015625 29.648438 236.863281 C 29.640625 243.136719 29.617188 249.40625 29.558594 255.679688 C 29.507812 261.585938 29.492188 267.492188 29.503906 273.398438 C 29.5 275.5625 29.484375 277.726562 29.457031 279.894531 C 28.96875 291.097656 28.96875 291.097656 32.046875 301.609375 C 33.9375 303.820312 35.730469 305.507812 38.082031 307.210938 L 41.015625 309.710938 C 48.304688 314.824219 55.742188 319.59375 63.398438 324.136719 L 67.035156 326.296875 C 93.472656 341.90625 119.84375 355.078125 151.203125 355.832031 C 162.109375 355.933594 172.660156 355.621094 183.390625 353.445312 L 187.074219 352.707031 C 222.253906 344.449219 259.695312 325.53125 286.867188 301.707031 L 289.625 299.355469 C 311.148438 280.59375 326.730469 257.148438 336.132812 230.222656 C 345.617188 201.367188 346.53125 171.722656 340.457031 142.097656 C 334.542969 115.914062 321.839844 92.011719 303.726562 72.253906 C 301.785156 70.199219 299.835938 68.160156 297.878906 66.128906 L 295.980469 64.023438 C 277.507812 44.085938 250.992188 32.386719 225.550781 24.414062 C 212.777344 20.980469 200.820312 19.351562 187.628906 19.464844 C 185.1875 19.480469 182.75 19.464844 180.3125 19.441406 C 165.78125 19.417969 151.394531 21.105469 137.707031 26.222656 "/></g><path style=" stroke:none;fill-rule:nonzero;fill:#621cf0;fill-opacity:1;" d="M 246.054688 55.089844 C 259.296875 61.648438 270.523438 70.503906 281.363281 80.441406 L 283.609375 82.410156 C 298.933594 96.570312 309.976562 117.027344 316.589844 136.582031 C 323.375 159.542969 325.253906 185.851562 319.929688 209.3125 C 319.558594 210.757812 319.183594 212.203125 318.792969 213.640625 L 318.148438 216.035156 C 311.527344 239.621094 299.203125 258.648438 282.464844 276.386719 L 280.21875 278.847656 C 255.703125 304.742188 216.75 320.949219 183.238281 331.128906 C 165.476562 336.0625 146.871094 335.679688 129.003906 331.414062 C 107.101562 325.414062 87.640625 314.734375 68.285156 303.015625 L 65.410156 301.300781 L 62.707031 299.621094 L 60.367188 298.183594 C 53.375 292.582031 53.375 292.582031 51.289062 288.496094 C 50.292969 282.132812 50.421875 275.8125 50.488281 269.382812 C 50.484375 267.425781 50.476562 265.464844 50.46875 263.507812 C 50.453125 258.203125 50.476562 252.894531 50.511719 247.589844 C 50.539062 242.035156 50.535156 236.484375 50.535156 230.929688 C 50.539062 221.609375 50.566406 212.289062 50.609375 202.96875 C 50.664062 192.183594 50.679688 181.402344 50.675781 170.621094 C 50.675781 160.25 50.691406 149.878906 50.71875 139.507812 C 50.730469 135.09375 50.738281 130.675781 50.738281 126.261719 C 50.742188 121.066406 50.761719 115.875 50.796875 110.679688 C 50.804688 108.769531 50.808594 106.863281 50.808594 104.953125 C 50.808594 102.355469 50.820312 99.753906 50.847656 97.15625 L 50.832031 94.851562 C 50.867188 92.742188 50.867188 92.742188 51.289062 89.246094 C 53.363281 86.484375 55.566406 85.285156 58.703125 83.910156 L 61.199219 82.800781 L 63.917969 81.625 L 66.769531 80.367188 C 69.863281 79.007812 72.960938 77.660156 76.058594 76.3125 L 82.488281 73.496094 C 87.925781 71.121094 93.367188 68.75 98.8125 66.386719 C 102.667969 64.703125 106.519531 63.019531 110.371094 61.328125 C 113.792969 59.832031 117.21875 58.339844 120.648438 56.851562 C 122.222656 56.171875 123.792969 55.484375 125.363281 54.792969 C 165.457031 37.226562 206.121094 36.464844 246.054688 55.089844 M 135.503906 69.292969 C 134.046875 69.917969 132.589844 70.539062 131.132812 71.160156 C 126.527344 73.136719 121.929688 75.128906 117.339844 77.136719 L 112.558594 79.21875 C 106.386719 81.902344 100.226562 84.601562 94.066406 87.3125 L 91.941406 88.246094 C 90.0625 89.078125 88.183594 89.90625 86.304688 90.738281 C 82.636719 92.339844 78.941406 93.875 75.246094 95.414062 L 71.648438 96.914062 L 68.902344 98.054688 C 68.773438 121.785156 68.679688 145.515625 68.617188 169.246094 C 68.589844 180.265625 68.550781 191.285156 68.488281 202.300781 C 68.433594 211.90625 68.398438 221.507812 68.386719 231.109375 C 68.378906 236.195312 68.363281 241.28125 68.320312 246.367188 C 68.285156 251.152344 68.269531 255.9375 68.28125 260.726562 C 68.28125 262.484375 68.269531 264.238281 68.246094 265.996094 C 68.21875 268.394531 68.226562 270.792969 68.242188 273.191406 L 68.226562 277.261719 C 68.644531 281.003906 68.644531 281.003906 71.542969 283.914062 C 74.09375 286.035156 76.503906 287.78125 79.382812 289.414062 L 82.21875 291.03125 L 85.210938 292.695312 L 88.320312 294.441406 C 110.265625 306.691406 132.054688 317.851562 157.824219 317.570312 C 182.925781 316.726562 205.636719 304.269531 227.90625 293.726562 L 231.238281 292.15625 C 252.472656 281.910156 271.5625 266.777344 285.171875 247.382812 C 298.761719 226.945312 304.167969 205.039062 305.789062 180.835938 C 306.3125 161.453125 301.554688 141.273438 292.597656 124.125 C 282.40625 105.425781 268.09375 88.867188 250.015625 77.351562 C 236.984375 69.457031 223.441406 64.371094 208.710938 60.625 L 206.453125 60 C 199.132812 58.132812 191.949219 58.019531 184.421875 58.011719 L 180.707031 57.929688 C 164.441406 57.871094 150.253906 62.855469 135.503906 69.292969 "/><path style=" stroke:none;fill-rule:nonzero;fill:#631df0;fill-opacity:1;" d="M 218.890625 86.050781 C 232.304688 91.203125 243.589844 99.109375 253.84375 109.0625 L 256.132812 111.105469 C 266.332031 120.523438 273.742188 133.367188 278.0625 146.488281 C 284.125 167.242188 284.917969 185.761719 279.824219 206.757812 C 275.316406 223.710938 264.988281 238.574219 253.019531 251.136719 C 245.179688 258.6875 236.777344 264.804688 227.019531 269.558594 L 224.714844 270.695312 C 217.03125 274.457031 209.296875 278.113281 201.515625 281.664062 C 199.976562 282.367188 198.4375 283.078125 196.90625 283.796875 C 183.363281 290.113281 169.882812 296.015625 154.632812 295.582031 L 151.78125 295.539062 C 144.355469 295.320312 137.574219 294.296875 130.550781 291.800781 L 127.667969 290.820312 C 119.621094 287.765625 112.109375 283.625 104.542969 279.554688 L 101.257812 277.796875 L 98.171875 276.105469 L 95.386719 274.585938 C 93.121094 273.085938 93.121094 273.085938 90.921875 269.78125 C 90.613281 266.570312 90.613281 266.570312 90.570312 262.570312 L 90.535156 260.351562 C 90.503906 257.902344 90.484375 255.457031 90.464844 253.007812 L 90.398438 247.804688 C 90.34375 243.136719 90.296875 238.472656 90.257812 233.808594 C 90.222656 229.949219 90.183594 226.09375 90.140625 222.234375 C 89.875 198.40625 89.722656 174.582031 89.683594 150.753906 L 89.671875 147.058594 C 89.667969 143.632812 89.667969 140.207031 89.671875 136.78125 L 89.667969 133.84375 C 89.675781 131.085938 89.746094 128.332031 89.820312 125.574219 L 89.800781 122.351562 C 89.890625 119.21875 90.085938 116.488281 90.921875 113.464844 C 93.804688 111.007812 95.292969 110.070312 98.671875 108.789062 L 101.058594 107.746094 C 102.714844 107.03125 104.378906 106.335938 106.050781 105.664062 C 108.40625 104.703125 110.746094 103.703125 113.070312 102.65625 C 117.539062 100.671875 122.046875 98.773438 126.558594 96.882812 L 131.347656 94.867188 C 139.765625 91.332031 148.195312 87.835938 156.695312 84.5 C 157.453125 84.203125 158.210938 83.902344 158.992188 83.59375 C 177.871094 76.347656 200.226562 79.746094 218.890625 86.050781 M 140.800781 109.472656 L 135.113281 111.996094 C 125.859375 116.097656 116.648438 120.285156 107.433594 124.472656 L 107.433594 260.976562 C 130.066406 273.878906 130.066406 273.878906 154.699219 277.902344 L 157.257812 278.027344 C 171.796875 278.238281 185.773438 270.113281 198.617188 263.996094 C 201.214844 262.765625 203.816406 261.542969 206.421875 260.332031 C 223.644531 252.222656 239.097656 242.96875 250.886719 227.675781 C 259.214844 215.480469 264.96875 202.011719 266.128906 187.175781 C 267.011719 171.277344 264.316406 156.410156 257.144531 142.085938 C 250.140625 129.355469 240.628906 118.289062 228.523438 110.164062 C 214.484375 102.199219 200.371094 97.136719 184.078125 96.609375 C 168.285156 97.148438 154.960938 103.089844 140.800781 109.472656 "/><path style=" stroke:none;fill-rule:nonzero;fill:#621cf0;fill-opacity:1;" d="M 203.65625 121.777344 C 214.328125 126.085938 223.449219 132.5625 230.839844 141.421875 C 237.792969 150.964844 242.285156 161.222656 243.9375 172.910156 C 244.730469 184.699219 243.195312 195.308594 238.226562 206.074219 C 232.359375 216.949219 224.230469 225.214844 214.214844 232.355469 C 208.867188 235.550781 203.207031 238.136719 197.5625 240.75 L 192.984375 242.902344 C 190.015625 244.296875 187.042969 245.675781 184.0625 247.042969 C 180.777344 248.554688 177.507812 250.085938 174.242188 251.640625 C 166.230469 255.335938 158.730469 257.800781 149.753906 257.351562 C 142.710938 255.90625 136.648438 252.589844 130.550781 248.867188 L 129.449219 247.765625 C 129.308594 244.441406 129.242188 241.136719 129.21875 237.808594 L 129.1875 234.640625 C 129.152344 231.164062 129.132812 227.691406 129.109375 224.214844 L 129.085938 220.628906 C 129.050781 214.363281 129.023438 208.097656 129.003906 201.832031 C 128.984375 196.636719 128.945312 191.441406 128.890625 186.25 C 128.824219 179.988281 128.792969 173.726562 128.78125 167.464844 C 128.769531 165.074219 128.75 162.6875 128.71875 160.296875 C 128.679688 156.953125 128.667969 153.613281 128.683594 150.269531 L 128.617188 147.265625 C 128.644531 144.644531 128.738281 142.410156 129.449219 139.886719 C 132.589844 137.136719 132.589844 137.136719 136.054688 135.480469 L 139.441406 133.820312 C 146.675781 130.699219 146.675781 130.699219 149.058594 129.6875 C 151.101562 128.8125 153.140625 127.933594 155.179688 127.042969 C 171.898438 119.890625 185.835938 116.164062 203.65625 121.777344 M 167.234375 141.359375 C 162.359375 143.796875 157.324219 145.632812 152.214844 147.507812 C 149.089844 148.644531 149.089844 148.644531 145.960938 150.894531 C 145.617188 153.675781 145.488281 156.1875 145.5 158.972656 L 145.472656 161.496094 C 145.449219 164.257812 145.441406 167.015625 145.445312 169.777344 L 145.421875 175.519531 C 145.40625 179.535156 145.402344 183.550781 145.410156 187.5625 C 145.417969 192.714844 145.382812 197.863281 145.339844 203.015625 C 145.308594 206.96875 145.308594 210.925781 145.3125 214.878906 C 145.308594 216.777344 145.296875 218.675781 145.277344 220.574219 C 145.253906 223.230469 145.265625 225.882812 145.285156 228.539062 L 145.242188 230.925781 C 145.222656 233.375 145.222656 233.375 145.960938 236.757812 C 148.371094 239.097656 148.371094 239.097656 151.464844 240.0625 C 160.585938 239.195312 168.808594 234.804688 177.039062 231.003906 C 179.457031 229.886719 181.878906 228.785156 184.304688 227.691406 C 202.652344 219.707031 202.652344 219.707031 217.308594 206.628906 C 222.566406 198.90625 225.605469 191.535156 226.628906 182.238281 C 226.953125 174.015625 225.125 166.390625 221.640625 158.960938 C 218.011719 152.4375 213.753906 147.449219 207.609375 143.1875 C 200.195312 138.832031 193.664062 136.492188 185.042969 136.101562 C 178.152344 136.152344 173.308594 138.261719 167.234375 141.359375 "/>
</g></svg>
<svg xmlns="http://www.w3.org/2000/svg" xmlns:xlink="http://www.w3.org/1999/xlink" width="500" zoomAndPan="magnify" viewBox="0 0 375 374.999991" height="500" preserveAspectRatio="xMidYMid meet" version="1.2"><defs><clipPath id="5d93af22b4"><path d="M 12 1.316406 L 362 1.316406 L 362 373 L 12 373 Z M 12 1.316406 "/></clipPath></defs><g id="71b5f19736"><g clip-rule="nonzero" clip-path="url(#5d93af22b4)"><path style=" stroke:none;fill-rule:nonzero;fill:#621cf0;fill-opacity:1;" d="M 269.144531 23.65625 C 284.464844 31.679688 297.433594 42.191406 309.988281 54.019531 L 312.230469 56.089844 C 332.023438 74.972656 346.9375 102.085938 354.800781 128.15625 C 363.78125 159.980469 363.757812 193.203125 355.710938 225.21875 C 347.339844 256.230469 330.996094 282.019531 308.886719 305.011719 L 306.625 307.519531 C 281.167969 334.859375 239.207031 354.054688 204.304688 365.554688 C 175.824219 374.15625 147.511719 375 118.441406 368.859375 C 84.808594 360.46875 45 338.65625 20.015625 314.5625 C 17.027344 311.238281 14.382812 308.097656 12.761719 303.910156 C 12.546875 300.726562 12.449219 297.539062 12.460938 294.347656 L 12.441406 291.394531 C 12.425781 288.117188 12.425781 284.84375 12.425781 281.566406 C 12.414062 279.222656 12.40625 276.878906 12.394531 274.535156 C 12.375 268.15625 12.359375 261.78125 12.355469 255.40625 C 12.351562 251.425781 12.347656 247.445312 12.339844 243.464844 C 12.3125 229.582031 12.296875 215.699219 12.292969 201.816406 C 12.289062 188.867188 12.257812 175.917969 12.210938 162.96875 C 12.171875 151.855469 12.152344 140.746094 12.15625 129.632812 C 12.152344 122.992188 12.144531 116.355469 12.113281 109.714844 C 12.085938 103.472656 12.078125 97.230469 12.097656 90.988281 C 12.101562 88.695312 12.09375 86.402344 12.078125 84.109375 C 12.054688 80.980469 12.066406 77.855469 12.085938 74.730469 L 12.039062 71.96875 C 12.078125 69.535156 12.183594 67.394531 12.761719 65.027344 C 15.945312 61.082031 19.011719 58.8125 23.617188 56.761719 L 26.738281 55.351562 L 30.097656 53.882812 L 33.675781 52.28125 C 37.339844 50.648438 41.011719 49.027344 44.6875 47.414062 L 50.882812 44.671875 C 55.234375 42.746094 59.597656 40.839844 63.960938 38.933594 C 69.519531 36.503906 75.054688 34.027344 80.585938 31.53125 C 84.714844 29.667969 88.84375 27.820312 92.976562 25.96875 C 95.003906 25.054688 97.03125 24.140625 99.058594 23.21875 C 119.5 13.921875 140.148438 6.402344 162.476562 3.382812 L 165.417969 2.945312 C 200.917969 -1.519531 237.574219 7.769531 269.144531 23.65625 M 137.707031 26.222656 L 135.410156 27.074219 C 133.046875 27.960938 130.695312 28.875 128.347656 29.800781 L 125.972656 30.730469 C 117.300781 34.152344 108.753906 37.863281 100.332031 41.871094 C 91.527344 46.027344 82.558594 49.824219 73.613281 53.664062 C 63.921875 57.835938 54.277344 62.097656 44.640625 66.390625 L 30.375 72.734375 C 30.195312 102.003906 30.058594 131.277344 29.976562 160.550781 C 29.933594 174.140625 29.882812 187.734375 29.792969 201.324219 C 29.714844 213.171875 29.667969 225.015625 29.648438 236.863281 C 29.640625 243.136719 29.617188 249.40625 29.558594 255.679688 C 29.507812 261.585938 29.492188 267.492188 29.503906 273.398438 C 29.5 275.5625 29.484375 277.726562 29.457031 279.894531 C 28.96875 291.097656 28.96875 291.097656 32.046875 301.609375 C 33.9375 303.820312 35.730469 305.507812 38.082031 307.210938 L 41.015625 309.710938 C 48.304688 314.824219 55.742188 319.59375 63.398438 324.136719 L 67.035156 326.296875 C 93.472656 341.90625 119.84375 355.078125 151.203125 355.832031 C 162.109375 355.933594 172.660156 355.621094 183.390625 353.445312 L 187.074219 352.707031 C 222.253906 344.449219 259.695312 325.53125 286.867188 301.707031 L 289.625 299.355469 C 311.148438 280.59375 326.730469 257.148438 336.132812 230.222656 C 345.617188 201.367188 346.53125 171.722656 340.457031 142.097656 C 334.542969 115.914062 321.839844 92.011719 303.726562 72.253906 C 301.785156 70.199219 299.835938 68.160156 297.878906 66.128906 L 295.980469 64.023438 C 277.507812 44.085938 250.992188 32.386719 225.550781 24.414062 C 212.777344 20.980469 200.820312 19.351562 187.628906 19.464844 C 185.1875 19.480469 182.75 19.464844 180.3125 19.441406 C 165.78125 19.417969 151.394531 21.105469 137.707031 26.222656 "/></g><path style=" stroke:none;fill-rule:nonzero;fill:#621cf0;fill-opacity:1;" d="M 246.054688 55.089844 C 259.296875 61.648438 270.523438 70.503906 281.363281 80.441406 L 283.609375 82.410156 C 298.933594 96.570312 309.976562 117.027344 316.589844 136.582031 C 323.375 159.542969 325.253906 185.851562 319.929688 209.3125 C 319.558594 210.757812 319.183594 212.203125 318.792969 213.640625 L 318.148438 216.035156 C 311.527344 239.621094 299.203125 258.648438 282.464844 276.386719 L 280.21875 278.847656 C 255.703125 304.742188 216.75 320.949219 183.238281 331.128906 C 165.476562 336.0625 146.871094 335.679688 129.003906 331.414062 C 107.101562 325.414062 87.640625 314.734375 68.285156 303.015625 L 65.410156 301.300781 L 62.707031 299.621094 L 60.367188 298.183594 C 53.375 292.582031 53.375 292.582031 51.289062 288.496094 C 50.292969 282.132812 50.421875 275.8125 50.488281 269.382812 C 50.484375 267.425781 50.476562 265.464844 50.46875 263.507812 C 50.453125 258.203125 50.476562 252.894531 50.511719 247.589844 C 50.539062 242.035156 50.535156 236.484375 50.535156 230.929688 C 50.539062 221.609375 50.566406 212.289062 50.609375 202.96875 C 50.664062 192.183594 50.679688 181.402344 50.675781 170.621094 C 50.675781 160.25 50.691406 149.878906 50.71875 139.507812 C 50.730469 135.09375 50.738281 130.675781 50.738281 126.261719 C 50.742188 121.066406 50.761719 115.875 50.796875 110.679688 C 50.804688 108.769531 50.808594 106.863281 50.808594 104.953125 C 50.808594 102.355469 50.820312 99.753906 50.847656 97.15625 L 50.832031 94.851562 C 50.867188 92.742188 50.867188 92.742188 51.289062 89.246094 C 53.363281 86.484375 55.566406 85.285156 58.703125 83.910156 L 61.199219 82.800781 L 63.917969 81.625 L 66.769531 80.367188 C 69.863281 79.007812 72.960938 77.660156 76.058594 76.3125 L 82.488281 73.496094 C 87.925781 71.121094 93.367188 68.75 98.8125 66.386719 C 102.667969 64.703125 106.519531 63.019531 110.371094 61.328125 C 113.792969 59.832031 117.21875 58.339844 120.648438 56.851562 C 122.222656 56.171875 123.792969 55.484375 125.363281 54.792969 C 165.457031 37.226562 206.121094 36.464844 246.054688 55.089844 M 135.503906 69.292969 C 134.046875 69.917969 132.589844 70.539062 131.132812 71.160156 C 126.527344 73.136719 121.929688 75.128906 117.339844 77.136719 L 112.558594 79.21875 C 106.386719 81.902344 100.226562 84.601562 94.066406 87.3125 L 91.941406 88.246094 C 90.0625 89.078125 88.183594 89.90625 86.304688 90.738281 C 82.636719 92.339844 78.941406 93.875 75.246094 95.414062 L 71.648438 96.914062 L 68.902344 98.054688 C 68.773438 121.785156 68.679688 145.515625 68.617188 169.246094 C 68.589844 180.265625 68.550781 191.285156 68.488281 202.300781 C 68.433594 211.90625 68.398438 221.507812 68.386719 231.109375 C 68.378906 236.195312 68.363281 241.28125 68.320312 246.367188 C 68.285156 251.152344 68.269531 255.9375 68.28125 260.726562 C 68.28125 262.484375 68.269531 264.238281 68.246094 265.996094 C 68.21875 268.394531 68.226562 270.792969 68.242188 273.191406 L 68.226562 277.261719 C 68.644531 281.003906 68.644531 281.003906 71.542969 283.914062 C 74.09375 286.035156 76.503906 287.78125 79.382812 289.414062 L 82.21875 291.03125 L 85.210938 292.695312 L 88.320312 294.441406 C 110.265625 306.691406 132.054688 317.851562 157.824219 317.570312 C 182.925781 316.726562 205.636719 304.269531 227.90625 293.726562 L 231.238281 292.15625 C 252.472656 281.910156 271.5625 266.777344 285.171875 247.382812 C 298.761719 226.945312 304.167969 205.039062 305.789062 180.835938 C 306.3125 161.453125 301.554688 141.273438 292.597656 124.125 C 282.40625 105.425781 268.09375 88.867188 250.015625 77.351562 C 236.984375 69.457031 223.441406 64.371094 208.710938 60.625 L 206.453125 60 C 199.132812 58.132812 191.949219 58.019531 184.421875 58.011719 L 180.707031 57.929688 C 164.441406 57.871094 150.253906 62.855469 135.503906 69.292969 "/><path style=" stroke:none;fill-rule:nonzero;fill:#631df0;fill-opacity:1;" d="M 218.890625 86.050781 C 232.304688 91.203125 243.589844 99.109375 253.84375 109.0625 L 256.132812 111.105469 C 266.332031 120.523438 273.742188 133.367188 278.0625 146.488281 C 284.125 167.242188 284.917969 185.761719 279.824219 206.757812 C 275.316406 223.710938 264.988281 238.574219 253.019531 251.136719 C 245.179688 258.6875 236.777344 264.804688 227.019531 269.558594 L 224.714844 270.695312 C 217.03125 274.457031 209.296875 278.113281 201.515625 281.664062 C 199.976562 282.367188 198.4375 283.078125 196.90625 283.796875 C 183.363281 290.113281 169.882812 296.015625 154.632812 295.582031 L 151.78125 295.539062 C 144.355469 295.320312 137.574219 294.296875 130.550781 291.800781 L 127.667969 290.820312 C 119.621094 287.765625 112.109375 283.625 104.542969 279.554688 L 101.257812 277.796875 L 98.171875 276.105469 L 95.386719 274.585938 C 93.121094 273.085938 93.121094 273.085938 90.921875 269.78125 C 90.613281 266.570312 90.613281 266.570312 90.570312 262.570312 L 90.535156 260.351562 C 90.503906 257.902344 90.484375 255.457031 90.464844 253.007812 L 90.398438 247.804688 C 90.34375 243.136719 90.296875 238.472656 90.257812 233.808594 C 90.222656 229.949219 90.183594 226.09375 90.140625 222.234375 C 89.875 198.40625 89.722656 174.582031 89.683594 150.753906 L 89.671875 147.058594 C 89.667969 143.632812 89.667969 140.207031 89.671875 136.78125 L 89.667969 133.84375 C 89.675781 131.085938 89.746094 128.332031 89.820312 125.574219 L 89.800781 122.351562 C 89.890625 119.21875 90.085938 116.488281 90.921875 113.464844 C 93.804688 111.007812 95.292969 110.070312 98.671875 108.789062 L 101.058594 107.746094 C 102.714844 107.03125 104.378906 106.335938 106.050781 105.664062 C 108.40625 104.703125 110.746094 103.703125 113.070312 102.65625 C 117.539062 100.671875 122.046875 98.773438 126.558594 96.882812 L 131.347656 94.867188 C 139.765625 91.332031 148.195312 87.835938 156.695312 84.5 C 157.453125 84.203125 158.210938 83.902344 158.992188 83.59375 C 177.871094 76.347656 200.226562 79.746094 218.890625 86.050781 M 140.800781 109.472656 L 135.113281 111.996094 C 125.859375 116.097656 116.648438 120.285156 107.433594 124.472656 L 107.433594 260.976562 C 130.066406 273.878906 130.066406 273.878906 154.699219 277.902344 L 157.257812 278.027344 C 171.796875 278.238281 185.773438 270.113281 198.617188 263.996094 C 201.214844 262.765625 203.816406 261.542969 206.421875 260.332031 C 223.644531 252.222656 239.097656 242.96875 250.886719 227.675781 C 259.214844 215.480469 264.96875 202.011719 266.128906 187.175781 C 267.011719 171.277344 264.316406 156.410156 257.144531 142.085938 C 250.140625 129.355469 240.628906 118.289062 228.523438 110.164062 C 214.484375 102.199219 200.371094 97.136719 184.078125 96.609375 C 168.285156 97.148438 154.960938 103.089844 140.800781 109.472656 "/><path style=" stroke:none;fill-rule:nonzero;fill:#621cf0;fill-opacity:1;" d="M 203.65625 121.777344 C 214.328125 126.085938 223.449219 132.5625 230.839844 141.421875 C 237.792969 150.964844 242.285156 161.222656 243.9375 172.910156 C 244.730469 184.699219 243.195312 195.308594 238.226562 206.074219 C 232.359375 216.949219 224.230469 225.214844 214.214844 232.355469 C 208.867188 235.550781 203.207031 238.136719 197.5625 240.75 L 192.984375 242.902344 C 190.015625 244.296875 187.042969 245.675781 184.0625 247.042969 C 180.777344 248.554688 177.507812 250.085938 174.242188 251.640625 C 166.230469 255.335938 158.730469 257.800781 149.753906 257.351562 C 142.710938 255.90625 136.648438 252.589844 130.550781 248.867188 L 129.449219 247.765625 C 129.308594 244.441406 129.242188 241.136719 129.21875 237.808594 L 129.1875 234.640625 C 129.152344 231.164062 129.132812 227.691406 129.109375 224.214844 L 129.085938 220.628906 C 129.050781 214.363281 129.023438 208.097656 129.003906 201.832031 C 128.984375 196.636719 128.945312 191.441406 128.890625 186.25 C 128.824219 179.988281 128.792969 173.726562 128.78125 167.464844 C 128.769531 165.074219 128.75 162.6875 128.71875 160.296875 C 128.679688 156.953125 128.667969 153.613281 128.683594 150.269531 L 128.617188 147.265625 C 128.644531 144.644531 128.738281 142.410156 129.449219 139.886719 C 132.589844 137.136719 132.589844 137.136719 136.054688 135.480469 L 139.441406 133.820312 C 146.675781 130.699219 146.675781 130.699219 149.058594 129.6875 C 151.101562 128.8125 153.140625 127.933594 155.179688 127.042969 C 171.898438 119.890625 185.835938 116.164062 203.65625 121.777344 M 167.234375 141.359375 C 162.359375 143.796875 157.324219 145.632812 152.214844 147.507812 C 149.089844 148.644531 149.089844 148.644531 145.960938 150.894531 C 145.617188 153.675781 145.488281 156.1875 145.5 158.972656 L 145.472656 161.496094 C 145.449219 164.257812 145.441406 167.015625 145.445312 169.777344 L 145.421875 175.519531 C 145.40625 179.535156 145.402344 183.550781 145.410156 187.5625 C 145.417969 192.714844 145.382812 197.863281 145.339844 203.015625 C 145.308594 206.96875 145.308594 210.925781 145.3125 214.878906 C 145.308594 216.777344 145.296875 218.675781 145.277344 220.574219 C 145.253906 223.230469 145.265625 225.882812 145.285156 228.539062 L 145.242188 230.925781 C 145.222656 233.375 145.222656 233.375 145.960938 236.757812 C 148.371094 239.097656 148.371094 239.097656 151.464844 240.0625 C 160.585938 239.195312 168.808594 234.804688 177.039062 231.003906 C 179.457031 229.886719 181.878906 228.785156 184.304688 227.691406 C 202.652344 219.707031 202.652344 219.707031 217.308594 206.628906 C 222.566406 198.90625 225.605469 191.535156 226.628906 182.238281 C 226.953125 174.015625 225.125 166.390625 221.640625 158.960938 C 218.011719 152.4375 213.753906 147.449219 207.609375 143.1875 C 200.195312 138.832031 193.664062 136.492188 185.042969 136.101562 C 178.152344 136.152344 173.308594 138.261719 167.234375 141.359375 "/></g></svg>
<svg xmlns="http://www.w3.org/2000/svg" xmlns:xlink="http://www.w3.org/1999/xlink" 
     viewBox="0 0 375 375" width="375" height="375" preserveAspectRatio="xMidYMid meet" version="1.2"><defs><clipPath id="5d93af22b4"><path d="M 12 1.316406 L 362 1.316406 L 362 373 L 12 373 Z M 12 1.316406 "/></clipPath></defs><g id="71b5f19736"><g clip-rule="nonzero" clip-path="url(#5d93af22b4)"><path style=" stroke:none;fill-rule:nonzero;fill:#621cf0;fill-opacity:1;" d="M 269.144531 23.65625 C 284.464844 31.679688 297.433594 42.191406 309.988281 54.019531 L 312.230469 56.089844 C 332.023438 74.972656 346.9375 102.085938 354.800781 128.15625 C 363.78125 159.980469 363.757812 193.203125 355.710938 225.21875 C 347.339844 256.230469 330.996094 282.019531 308.886719 305.011719 L 306.625 307.519531 C 281.167969 334.859375 239.207031 354.054688 204.304688 365.554688 C 175.824219 374.15625 147.511719 375 118.441406 368.859375 C 84.808594 360.46875 45 338.65625 20.015625 314.5625 C 17.027344 311.238281 14.382812 308.097656 12.761719 303.910156 C 12.546875 300.726562 12.449219 297.539062 12.460938 294.347656 L 12.441406 291.394531 C 12.425781 288.117188 12.425781 284.84375 12.425781 281.566406 C 12.414062 279.222656 12.40625 276.878906 12.394531 274.535156 C 12.375 268.15625 12.359375 261.78125 12.355469 255.40625 C 12.351562 251.425781 12.347656 247.445312 12.339844 243.464844 C 12.3125 229.582031 12.296875 215.699219 12.292969 201.816406 C 12.289062 188.867188 12.257812 175.917969 12.210938 162.96875 C 12.171875 151.855469 12.152344 140.746094 12.15625 129.632812 C 12.152344 122.992188 12.144531 116.355469 12.113281 109.714844 C 12.085938 103.472656 12.078125 97.230469 12.097656 90.988281 C 12.101562 88.695312 12.09375 86.402344 12.078125 84.109375 C 12.054688 80.980469 12.066406 77.855469 12.085938 74.730469 L 12.039062 71.96875 C 12.078125 69.535156 12.183594 67.394531 12.761719 65.027344 C 15.945312 61.082031 19.011719 58.8125 23.617188 56.761719 L 26.738281 55.351562 L 30.097656 53.882812 L 33.675781 52.28125 C 37.339844 50.648438 41.011719 49.027344 44.6875 47.414062 L 50.882812 44.671875 C 55.234375 42.746094 59.597656 40.839844 63.960938 38.933594 C 69.519531 36.503906 75.054688 34.027344 80.585938 31.53125 C 84.714844 29.667969 88.84375 27.820312 92.976562 25.96875 C 95.003906 25.054688 97.03125 24.140625 99.058594 23.21875 C 119.5 13.921875 140.148438 6.402344 162.476562 3.382812 L 165.417969 2.945312 C 200.917969 -1.519531 237.574219 7.769531 269.144531 23.65625 M 137.707031 26.222656 L 135.410156 27.074219 C 133.046875 27.960938 130.695312 28.875 128.347656 29.800781 L 125.972656 30.730469 C 117.300781 34.152344 108.753906 37.863281 100.332031 41.871094 C 91.527344 46.027344 82.558594 49.824219 73.613281 53.664062 C 63.921875 57.835938 54.277344 62.097656 44.640625 66.390625 L 30.375 72.734375 C 30.195312 102.003906 30.058594 131.277344 29.976562 160.550781 C 29.933594 174.140625 29.882812 187.734375 29.792969 201.324219 C 29.714844 213.171875 29.667969 225.015625 29.648438 236.863281 C 29.640625 243.136719 29.617188 249.40625 29.558594 255.679688 C 29.507812 261.585938 29.492188 267.492188 29.503906 273.398438 C 29.5 275.5625 29.484375 277.726562 29.457031 279.894531 C 28.96875 291.097656 28.96875 291.097656 32.046875 301.609375 C 33.9375 303.820312 35.730469 305.507812 38.082031 307.210938 L 41.015625 309.710938 C 48.304688 314.824219 55.742188 319.59375 63.398438 324.136719 L 67.035156 326.296875 C 93.472656 341.90625 119.84375 355.078125 151.203125 355.832031 C 162.109375 355.933594 172.660156 355.621094 183.390625 353.445312 L 187.074219 352.707031 C 222.253906 344.449219 259.695312 325.53125 286.867188 301.707031 L 289.625 299.355469 C 311.148438 280.59375 326.730469 257.148438 336.132812 230.222656 C 345.617188 201.367188 346.53125 171.722656 340.457031 142.097656 C 334.542969 115.914062 321.839844 92.011719 303.726562 72.253906 C 301.785156 70.199219 299.835938 68.160156 297.878906 66.128906 L 295.980469 64.023438 C 277.507812 44.085938 250.992188 32.386719 225.550781 24.414062 C 212.777344 20.980469 200.820312 19.351562 187.628906 19.464844 C 185.1875 19.480469 182.75 19.464844 180.3125 19.441406 C 165.78125 19.417969 151.394531 21.105469 137.707031 26.222656 "/></g><path style=" stroke:none;fill-rule:nonzero;fill:#621cf0;fill-opacity:1;" d="M 246.054688 55.089844 C 259.296875 61.648438 270.523438 70.503906 281.363281 80.441406 L 283.609375 82.410156 C 298.933594 96.570312 309.976562 117.027344 316.589844 136.582031 C 323.375 159.542969 325.253906 185.851562 319.929688 209.3125 C 319.558594 210.757812 319.183594 212.203125 318.792969 213.640625 L 318.148438 216.035156 C 311.527344 239.621094 299.203125 258.648438 282.464844 276.386719 L 280.21875 278.847656 C 255.703125 304.742188 216.75 320.949219 183.238281 331.128906 C 165.476562 336.0625 146.871094 335.679688 129.003906 331.414062 C 107.101562 325.414062 87.640625 314.734375 68.285156 303.015625 L 65.410156 301.300781 L 62.707031 299.621094 L 60.367188 298.183594 C 53.375 292.582031 53.375 292.582031 51.289062 288.496094 C 50.292969 282.132812 50.421875 275.8125 50.488281 269.382812 C 50.484375 267.425781 50.476562 265.464844 50.46875 263.507812 C 50.453125 258.203125 50.476562 252.894531 50.511719 247.589844 C 50.539062 242.035156 50.535156 236.484375 50.535156 230.929688 C 50.539062 221.609375 50.566406 212.289062 50.609375 202.96875 C 50.664062 192.183594 50.679688 181.402344 50.675781 170.621094 C 50.675781 160.25 50.691406 149.878906 50.71875 139.507812 C 50.730469 135.09375 50.738281 130.675781 50.738281 126.261719 C 50.742188 121.066406 50.761719 115.875 50.796875 110.679688 C 50.804688 108.769531 50.808594 106.863281 50.808594 104.953125 C 50.808594 102.355469 50.820312 99.753906 50.847656 97.15625 L 50.832031 94.851562 C 50.867188 92.742188 50.867188 92.742188 51.289062 89.246094 C 53.363281 86.484375 55.566406 85.285156 58.703125 83.910156 L 61.199219 82.800781 L 63.917969 81.625 L 66.769531 80.367188 C 69.863281 79.007812 72.960938 77.660156 76.058594 76.3125 L 82.488281 73.496094 C 87.925781 71.121094 93.367188 68.75 98.8125 66.386719 C 102.667969 64.703125 106.519531 63.019531 110.371094 61.328125 C 113.792969 59.832031 117.21875 58.339844 120.648438 56.851562 C 122.222656 56.171875 123.792969 55.484375 125.363281 54.792969 C 165.457031 37.226562 206.121094 36.464844 246.054688 55.089844 M 135.503906 69.292969 C 134.046875 69.917969 132.589844 70.539062 131.132812 71.160156 C 126.527344 73.136719 121.929688 75.128906 117.339844 77.136719 L 112.558594 79.21875 C 106.386719 81.902344 100.226562 84.601562 94.066406 87.3125 L 91.941406 88.246094 C 90.0625 89.078125 88.183594 89.90625 86.304688 90.738281 C 82.636719 92.339844 78.941406 93.875 75.246094 95.414062 L 71.648438 96.914062 L 68.902344 98.054688 C 68.773438 121.785156 68.679688 145.515625 68.617188 169.246094 C 68.589844 180.265625 68.550781 191.285156 68.488281 202.300781 C 68.433594 211.90625 68.398438 221.507812 68.386719 231.109375 C 68.378906 236.195312 68.363281 241.28125 68.320312 246.367188 C 68.285156 251.152344 68.269531 255.9375 68.28125 260.726562 C 68.28125 262.484375 68.269531 264.238281 68.246094 265.996094 C 68.21875 268.394531 68.226562 270.792969 68.242188 273.191406 L 68.226562 277.261719 C 68.644531 281.003906 68.644531 281.003906 71.542969 283.914062 C 74.09375 286.035156 76.503906 287.78125 79.382812 289.414062 L 82.21875 291.03125 L 85.210938 292.695312 L 88.320312 294.441406 C 110.265625 306.691406 132.054688 317.851562 157.824219 317.570312 C 182.925781 316.726562 205.636719 304.269531 227.90625 293.726562 L 231.238281 292.15625 C 252.472656 281.910156 271.5625 266.777344 285.171875 247.382812 C 298.761719 226.945312 304.167969 205.039062 305.789062 180.835938 C 306.3125 161.453125 301.554688 141.273438 292.597656 124.125 C 282.40625 105.425781 268.09375 88.867188 250.015625 77.351562 C 236.984375 69.457031 223.441406 64.371094 208.710938 60.625 L 206.453125 60 C 199.132812 58.132812 191.949219 58.019531 184.421875 58.011719 L 180.707031 57.929688 C 164.441406 57.871094 150.253906 62.855469 135.503906 69.292969 "/><path style=" stroke:none;fill-rule:nonzero;fill:#631df0;fill-opacity:1;" d="M 218.890625 86.050781 C 232.304688 91.203125 243.589844 99.109375 253.84375 109.0625 L 256.132812 111.105469 C 266.332031 120.523438 273.742188 133.367188 278.0625 146.488281 C 284.125 167.242188 284.917969 185.761719 279.824219 206.757812 C 275.316406 223.710938 264.988281 238.574219 253.019531 251.136719 C 245.179688 258.6875 236.777344 264.804688 227.019531 269.558594 L 224.714844 270.695312 C 217.03125 274.457031 209.296875 278.113281 201.515625 281.664062 C 199.976562 282.367188 198.4375 283.078125 196.90625 283.796875 C 183.363281 290.113281 169.882812 296.015625 154.632812 295.582031 L 151.78125 295.539062 C 144.355469 295.320312 137.574219 294.296875 130.550781 291.800781 L 127.667969 290.820312 C 119.621094 287.765625 112.109375 283.625 104.542969 279.554688 L 101.257812 277.796875 L 98.171875 276.105469 L 95.386719 274.585938 C 93.121094 273.085938 93.121094 273.085938 90.921875 269.78125 C 90.613281 266.570312 90.613281 266.570312 90.570312 262.570312 L 90.535156 260.351562 C 90.503906 257.902344 90.484375 255.457031 90.464844 253.007812 L 90.398438 247.804688 C 90.34375 243.136719 90.296875 238.472656 90.257812 233.808594 C 90.222656 229.949219 90.183594 226.09375 90.140625 222.234375 C 89.875 198.40625 89.722656 174.582031 89.683594 150.753906 L 89.671875 147.058594 C 89.667969 143.632812 89.667969 140.207031 89.671875 136.78125 L 89.667969 133.84375 C 89.675781 131.085938 89.746094 128.332031 89.820312 125.574219 L 89.800781 122.351562 C 89.890625 119.21875 90.085938 116.488281 90.921875 113.464844 C 93.804688 111.007812 95.292969 110.070312 98.671875 108.789062 L 101.058594 107.746094 C 102.714844 107.03125 104.378906 106.335938 106.050781 105.664062 C 108.40625 104.703125 110.746094 103.703125 113.070312 102.65625 C 117.539062 100.671875 122.046875 98.773438 126.558594 96.882812 L 131.347656 94.867188 C 139.765625 91.332031 148.195312 87.835938 156.695312 84.5 C 157.453125 84.203125 158.210938 83.902344 158.992188 83.59375 C 177.871094 76.347656 200.226562 79.746094 218.890625 86.050781 M 140.800781 109.472656 L 135.113281 111.996094 C 125.859375 116.097656 116.648438 120.285156 107.433594 124.472656 L 107.433594 260.976562 C 130.066406 273.878906 130.066406 273.878906 154.699219 277.902344 L 157.257812 278.027344 C 171.796875 278.238281 185.773438 270.113281 198.617188 263.996094 C 201.214844 262.765625 203.816406 261.542969 206.421875 260.332031 C 223.644531 252.222656 239.097656 242.96875 250.886719 227.675781 C 259.214844 215.480469 264.96875 202.011719 266.128906 187.175781 C 267.011719 171.277344 264.316406 156.410156 257.144531 142.085938 C 250.140625 129.355469 240.628906 118.289062 228.523438 110.164062 C 214.484375 102.199219 200.371094 97.136719 184.078125 96.609375 C 168.285156 97.148438 154.960938 103.089844 140.800781 109.472656 "/><path style=" stroke:none;fill-rule:nonzero;fill:#621cf0;fill-opacity:1;" d="M 203.65625 121.777344 C 214.328125 126.085938 223.449219 132.5625 230.839844 141.421875 C 237.792969 150.964844 242.285156 161.222656 243.9375 172.910156 C 244.730469 184.699219 243.195312 195.308594 238.226562 206.074219 C 232.359375 216.949219 224.230469 225.214844 214.214844 232.355469 C 208.867188 235.550781 203.207031 238.136719 197.5625 240.75 L 192.984375 242.902344 C 190.015625 244.296875 187.042969 245.675781 184.0625 247.042969 C 180.777344 248.554688 177.507812 250.085938 174.242188 251.640625 C 166.230469 255.335938 158.730469 257.800781 149.753906 257.351562 C 142.710938 255.90625 136.648438 252.589844 130.550781 248.867188 L 129.449219 247.765625 C 129.308594 244.441406 129.242188 241.136719 129.21875 237.808594 L 129.1875 234.640625 C 129.152344 231.164062 129.132812 227.691406 129.109375 224.214844 L 129.085938 220.628906 C 129.050781 214.363281 129.023438 208.097656 129.003906 201.832031 C 128.984375 196.636719 128.945312 191.441406 128.890625 186.25 C 128.824219 179.988281 128.792969 173.726562 128.78125 167.464844 C 128.769531 165.074219 128.75 162.6875 128.71875 160.296875 C 128.679688 156.953125 128.667969 153.613281 128.683594 150.269531 L 128.617188 147.265625 C 128.644531 144.644531 128.738281 142.410156 129.449219 139.886719 C 132.589844 137.136719 132.589844 137.136719 136.054688 135.480469 L 139.441406 133.820312 C 146.675781 130.699219 146.675781 130.699219 149.058594 129.6875 C 151.101562 128.8125 153.140625 127.933594 155.179688 127.042969 C 171.898438 119.890625 185.835938 116.164062 203.65625 121.777344 M 167.234375 141.359375 C 162.359375 143.796875 157.324219 145.632812 152.214844 147.507812 C 149.089844 148.644531 149.089844 148.644531 145.960938 150.894531 C 145.617188 153.675781 145.488281 156.1875 145.5 158.972656 L 145.472656 161.496094 C 145.449219 164.257812 145.441406 167.015625 145.445312 169.777344 L 145.421875 175.519531 C 145.40625 179.535156 145.402344 183.550781 145.410156 187.5625 C 145.417969 192.714844 145.382812 197.863281 145.339844 203.015625 C 145.308594 206.96875 145.308594 210.925781 145.3125 214.878906 C 145.308594 216.777344 145.296875 218.675781 145.277344 220.574219 C 145.253906 223.230469 145.265625 225.882812 145.285156 228.539062 L 145.242188 230.925781 C 145.222656 233.375 145.222656 233.375 145.960938 236.757812 C 148.371094 239.097656 148.371094 239.097656 151.464844 240.0625 C 160.585938 239.195312 168.808594 234.804688 177.039062 231.003906 C 179.457031 229.886719 181.878906 228.785156 184.304688 227.691406 C 202.652344 219.707031 202.652344 219.707031 217.308594 206.628906 C 222.566406 198.90625 225.605469 191.535156 226.628906 182.238281 C 226.953125 174.015625 225.125 166.390625 221.640625 158.960938 C 218.011719 152.4375 213.753906 147.449219 207.609375 143.1875 C 200.195312 138.832031 193.664062 136.492188 185.042969 136.101562 C 178.152344 136.152344 173.308594 138.261719 167.234375 141.359375 "/></g></svg>
