<svg xmlns="http://www.w3.org/2000/svg" xmlns:xlink="http://www.w3.org/1999/xlink" width="270" zoomAndPan="magnify" viewBox="0 0 202.5 38.249999" height="51" preserveAspectRatio="xMidYMid meet" version="1.2"><defs><clipPath id="3c42c52342"><path d="M 2 0 L 40 0 L 40 37.515625 L 2 37.515625 Z M 2 0 "/></clipPath><clipPath id="aa6beb8d43"><path d="M 44 0 L 82 0 L 82 37.515625 L 44 37.515625 Z M 44 0 "/></clipPath><clipPath id="ad8eb4c871"><path d="M 85 0 L 123 0 L 123 37.515625 L 85 37.515625 Z M 85 0 "/></clipPath><clipPath id="7f12e74d27"><path d="M 123 0 L 161 0 L 161 37.515625 L 123 37.515625 Z M 123 0 "/></clipPath><clipPath id="0245fac2dd"><path d="M 163 0 L 200.308594 0 L 200.308594 37.515625 L 163 37.515625 Z M 163 0 "/></clipPath></defs><g id="38f329075e"><g clip-rule="nonzero" clip-path="url(#3c42c52342)"><g style="fill:#000000;fill-opacity:1;"><g transform="translate(-0.388981, 38.073567)"><path style="stroke:none" d="M 34.5625 -10.632812 L 34.5625 -26.585938 C 34.5625 -28.039062 34.039062 -29.289062 32.992188 -30.335938 C 31.949219 -31.378906 30.699219 -31.902344 29.246094 -31.902344 L 7.976562 -31.902344 L 7.976562 -5.316406 L 29.246094 -5.316406 C 30.699219 -5.316406 31.949219 -5.839844 32.992188 -6.886719 C 34.039062 -7.929688 34.5625 -9.179688 34.5625 -10.632812 Z M 39.878906 -26.585938 L 39.878906 -10.632812 C 39.878906 -8.753906 39.410156 -7.011719 38.46875 -5.398438 C 37.53125 -3.785156 36.253906 -2.480469 34.640625 -1.488281 C 33.027344 -0.496094 31.230469 0 29.246094 0 L 2.660156 0 L 2.660156 -37.21875 L 29.246094 -37.21875 C 31.160156 -37.21875 32.90625 -36.742188 34.480469 -35.785156 C 36.058594 -34.828125 37.34375 -33.550781 38.335938 -31.957031 C 39.328125 -30.359375 39.84375 -28.570312 39.878906 -26.585938 Z M 39.878906 -26.585938 "/></g></g></g><g clip-rule="nonzero" clip-path="url(#aa6beb8d43)"><g style="fill:#000000;fill-opacity:1;"><g transform="translate(41.610267, 38.073567)"><path style="stroke:none" d="M 7.976562 -31.902344 L 7.976562 -21.269531 L 34.5625 -21.269531 L 34.5625 -15.953125 L 7.976562 -15.953125 L 7.976562 -5.316406 L 39.878906 -5.316406 L 39.878906 0 L 2.660156 0 L 2.660156 -37.21875 L 39.878906 -37.21875 L 39.878906 -31.902344 Z M 7.976562 -31.902344 "/></g></g></g><g clip-rule="nonzero" clip-path="url(#ad8eb4c871)"><g style="fill:#000000;fill-opacity:1;"><g transform="translate(83.077857, 38.073567)"><path style="stroke:none" d="M 34.5625 -21.269531 L 34.5625 -26.585938 C 34.5625 -28.039062 34.039062 -29.289062 32.992188 -30.335938 C 31.949219 -31.378906 30.699219 -31.902344 29.246094 -31.902344 L 7.976562 -31.902344 L 7.976562 -15.953125 L 29.246094 -15.953125 C 30.699219 -15.953125 31.949219 -16.472656 32.992188 -17.519531 C 34.039062 -18.566406 34.5625 -19.816406 34.5625 -21.269531 Z M 39.878906 -26.585938 L 39.878906 -21.269531 C 39.878906 -19.390625 39.410156 -17.644531 38.46875 -16.03125 C 37.53125 -14.417969 36.253906 -13.117188 34.640625 -12.125 C 33.027344 -11.128906 31.230469 -10.632812 29.246094 -10.632812 L 7.976562 -10.632812 L 7.976562 0 L 2.660156 0 L 2.660156 -37.21875 L 29.246094 -37.21875 C 31.160156 -37.21875 32.90625 -36.742188 34.480469 -35.785156 C 36.058594 -34.828125 37.34375 -33.550781 38.335938 -31.957031 C 39.328125 -30.359375 39.84375 -28.570312 39.878906 -26.585938 Z M 39.878906 -26.585938 "/></g></g></g><g clip-rule="nonzero" clip-path="url(#7f12e74d27)"><g style="fill:#000000;fill-opacity:1;"><g transform="translate(123.482001, 38.073567)"><path style="stroke:none" d="M 37.21875 -31.902344 L 21.269531 -31.902344 L 21.269531 0 L 15.953125 0 L 15.953125 -31.902344 L 0 -31.902344 L 0 -37.21875 L 37.21875 -37.21875 Z M 37.21875 -31.902344 "/></g></g></g><g clip-rule="nonzero" clip-path="url(#0245fac2dd)"><g style="fill:#000000;fill-opacity:1;"><g transform="translate(160.696523, 38.073567)"><path style="stroke:none" d="M 7.976562 -37.21875 L 7.976562 -21.269531 L 34.5625 -21.269531 L 34.5625 -37.21875 L 39.878906 -37.21875 L 39.878906 0 L 34.5625 0 L 34.5625 -15.953125 L 7.976562 -15.953125 L 7.976562 0 L 2.660156 0 L 2.660156 -37.21875 Z M 7.976562 -37.21875 "/></g></g></g></g></svg>