<svg width="1260" height="148" viewBox="0 0 1260 148" fill="none" xmlns="http://www.w3.org/2000/svg">
<path fill-rule="evenodd" clip-rule="evenodd" d="M1021.44 67.2H1024.8C1026.66 67.2 1028.16 68.7043 1028.16 70.56V90.72C1028.16 92.5757 1026.66 94.08 1024.8 94.08H1021.44C1019.58 94.08 1018.08 92.5757 1018.08 90.72V70.56C1018.08 68.7043 1019.58 67.2 1021.44 67.2Z" fill="#D1D1D6"/>
<path fill-rule="evenodd" clip-rule="evenodd" d="M1006.32 73.92H1009.68C1011.54 73.92 1013.04 75.4243 1013.04 77.28V90.72C1013.04 92.5757 1011.54 94.08 1009.68 94.08H1006.32C1004.46 94.08 1002.96 92.5757 1002.96 90.72V77.28C1002.96 75.4243 1004.46 73.92 1006.32 73.92Z" fill="#D1D1D6"/>
<path fill-rule="evenodd" clip-rule="evenodd" d="M991.2 78.96H994.56C996.416 78.96 997.92 80.4643 997.92 82.32V90.72C997.92 92.5757 996.416 94.08 994.56 94.08H991.2C989.344 94.08 987.84 92.5757 987.84 90.72V82.32C987.84 80.4643 989.344 78.96 991.2 78.96Z" fill="#D1D1D6"/>
<path fill-rule="evenodd" clip-rule="evenodd" d="M1036.56 60.48H1039.92C1041.78 60.48 1043.28 61.9843 1043.28 63.84V90.72C1043.28 92.5757 1041.78 94.08 1039.92 94.08H1036.56C1034.7 94.08 1033.2 92.5757 1033.2 90.72V63.84C1033.2 61.9843 1034.7 60.48 1036.56 60.48Z" fill="#3C3C43" fill-opacity="0.18"/>
<path fill-rule="evenodd" clip-rule="evenodd" d="M1021.44 67.2H1024.8C1026.66 67.2 1028.16 68.7043 1028.16 70.56V90.72C1028.16 92.5757 1026.66 94.08 1024.8 94.08H1021.44C1019.58 94.08 1018.08 92.5757 1018.08 90.72V70.56C1018.08 68.7043 1019.58 67.2 1021.44 67.2Z" fill="black"/>
<path fill-rule="evenodd" clip-rule="evenodd" d="M1006.32 73.92H1009.68C1011.54 73.92 1013.04 75.4243 1013.04 77.28V90.72C1013.04 92.5757 1011.54 94.08 1009.68 94.08H1006.32C1004.46 94.08 1002.96 92.5757 1002.96 90.72V77.28C1002.96 75.4243 1004.46 73.92 1006.32 73.92Z" fill="black"/>
<path fill-rule="evenodd" clip-rule="evenodd" d="M991.2 78.96H994.56C996.416 78.96 997.92 80.4643 997.92 82.32V90.72C997.92 92.5757 996.416 94.08 994.56 94.08H991.2C989.344 94.08 987.84 92.5757 987.84 90.72V82.32C987.84 80.4643 989.344 78.96 991.2 78.96Z" fill="black"/>
<path d="M1089.09 83.797C1091.23 83.797 1093.32 84.3616 1095.16 85.4382L1095.91 85.8744C1096.47 86.2052 1096.57 86.9791 1096.11 87.4412L1089.74 93.7876C1089.35 94.1774 1088.72 94.1774 1088.33 93.7876L1082.01 87.482C1081.54 87.022 1081.64 86.2519 1082.2 85.9188L1082.94 85.4805C1084.79 84.3767 1086.91 83.797 1089.09 83.797Z" fill="black"/>
<path d="M1089.09 72.1387C1094.43 72.1387 1099.56 73.9119 1103.74 77.1957L1104.33 77.6598C1104.81 78.0298 1104.85 78.727 1104.42 79.1498L1100.62 82.9387C1100.27 83.2891 1099.72 83.3294 1099.32 83.0332L1098.85 82.689C1096.03 80.5904 1092.63 79.4647 1089.09 79.4647C1085.52 79.4647 1082.1 80.6044 1079.27 82.7271L1078.8 83.0744C1078.4 83.373 1077.85 83.3337 1077.49 82.9822L1073.7 79.1948C1073.27 78.7728 1073.31 78.0774 1073.78 77.7067L1074.37 77.2423C1078.56 73.9292 1083.71 72.1387 1089.09 72.1387Z" fill="black"/>
<path d="M1089.09 60.48C1097.57 60.48 1105.68 63.4723 1112.1 68.9571L1112.65 69.4253C1113.09 69.8036 1113.12 70.4779 1112.71 70.8892L1108.92 74.6657C1108.55 75.0316 1107.97 75.0573 1107.57 74.7248L1107.1 74.3327C1102.04 70.1055 1095.71 67.806 1089.09 67.806C1082.44 67.806 1076.08 70.1213 1071.02 74.375L1070.55 74.7691C1070.16 75.1031 1069.57 75.078 1069.2 74.7115L1065.41 70.9355C1065 70.5248 1065.03 69.8516 1065.47 69.4729L1066.01 69.0046C1072.44 63.4902 1080.58 60.48 1089.09 60.48Z" fill="#3C3C43" fill-opacity="0.3"/>
<path d="M1157.31 80.8976H1167.88L1162.35 95.1551C1161.56 97.2113 1163.72 98.2818 1165.12 96.6335L1182.2 76.2924C1182.55 75.8846 1182.72 75.4768 1182.72 75.0349C1182.72 74.2532 1182.1 73.6755 1181.25 73.6755H1170.68L1176.19 59.4011C1176.99 57.3619 1174.82 56.2743 1173.44 57.9226L1156.34 78.2637C1156 78.6885 1155.84 79.0794 1155.84 79.5212C1155.84 80.3199 1156.46 80.8976 1157.31 80.8976Z" fill="black"/>
<path d="M1166.9 60.48H1139.04C1135.33 60.48 1132.32 63.4886 1132.32 67.2V87.36C1132.32 91.0714 1135.33 94.08 1139.04 94.08H1159.17C1158.78 95.166 1158.72 96.3579 1159.03 97.44H1139.04C1133.47 97.44 1128.96 92.927 1128.96 87.36V67.2C1128.96 61.633 1133.47 57.12 1139.04 57.12H1169.72L1166.9 60.48Z" fill="#3C3C43" fill-opacity="0.6"/>
<path d="M1171.65 94.08H1196.16C1199.87 94.08 1202.88 91.0714 1202.88 87.36V67.2C1202.88 63.4886 1199.87 60.48 1196.16 60.48H1179.37C1179.77 59.3901 1179.83 58.1996 1179.51 57.12H1196.16C1201.73 57.12 1206.24 61.633 1206.24 67.2V87.36C1206.24 92.927 1201.73 97.44 1196.16 97.44H1168.83L1171.65 94.08Z" fill="#3C3C43" fill-opacity="0.6"/>
<path d="M1209.6 70.56C1211.46 70.56 1212.96 72.0643 1212.96 73.92V80.64C1212.96 82.4957 1211.46 84 1209.6 84V70.56Z" fill="#3C3C43" fill-opacity="0.6"/>
<path d="M1164.07 63.84L1153.75 76.1212L1153.74 76.1405C1153.02 77.0181 1152.48 78.1354 1152.48 79.5213C1152.48 82.393 1154.83 84.2578 1157.31 84.2578H1162.97L1160.47 90.72H1139.04C1137.18 90.72 1135.68 89.2157 1135.68 87.36V67.2C1135.68 65.3443 1137.18 63.84 1139.04 63.84H1164.07Z" fill="#34C759"/>
<path d="M127.234 94.3786C136.265 94.3786 141.63 87.3157 141.63 75.3556C141.63 70.852 140.769 67.0622 139.12 64.1337C136.733 59.5809 132.623 57.12 127.431 57.12C119.703 57.12 114.24 62.3126 114.24 69.597C114.24 76.4384 119.162 81.4095 125.929 81.4095C130.088 81.4095 133.46 79.4653 135.133 76.0938H135.207C135.207 76.0938 135.306 76.0938 135.33 76.0938C135.379 76.0938 135.552 76.0938 135.552 76.0938C135.552 84.2149 132.476 89.063 127.283 89.063C124.231 89.063 121.869 87.3895 121.057 84.7071H114.732C115.79 90.5395 120.737 94.3786 127.234 94.3786ZM127.455 76.3645C123.37 76.3645 120.466 73.4606 120.466 69.4001C120.466 65.438 123.518 62.411 127.48 62.411C131.442 62.411 134.494 65.4872 134.494 69.4985C134.494 73.4606 131.516 76.3645 127.455 76.3645Z" fill="black"/>
<path d="M152.016 94.0341C154.354 94.0341 155.954 92.3606 155.954 90.1458C155.954 87.9063 154.354 86.2575 152.016 86.2575C149.703 86.2575 148.079 87.9063 148.079 90.1458C148.079 92.3606 149.703 94.0341 152.016 94.0341ZM152.016 75.577C154.354 75.577 155.954 73.9282 155.954 71.7134C155.954 69.4739 154.354 67.8251 152.016 67.8251C149.703 67.8251 148.079 69.4739 148.079 71.7134C148.079 73.9282 149.703 75.577 152.016 75.577Z" fill="black"/>
<path d="M178.989 93.5173H185.068V86.8973H189.867V81.5325H185.068V58.0059H176.11C169.835 67.4559 164.839 75.3556 161.64 81.2372V86.8973H178.989V93.5173ZM167.521 81.311C171.656 74.0266 175.347 68.1942 178.743 63.1739H179.088V81.6802H167.521V81.311Z" fill="black"/>
<path d="M203.403 93.5173H209.752V58.0059H203.427L194.15 64.5028V70.6059L202.984 64.4044H203.403V93.5173Z" fill="black"/>
</svg>
