<svg xmlns="http://www.w3.org/2000/svg" xmlns:xlink="http://www.w3.org/1999/xlink" width="500" zoomAndPan="magnify" viewBox="0 0 375 374.999991" height="500" preserveAspectRatio="xMidYMid meet" version="1.2"><g id="95b856a7b1"><path style=" stroke:none;fill-rule:nonzero;fill:#621cf0;fill-opacity:1;" d="M 241.746094 87.964844 C 251.382812 93.011719 259.542969 99.625 267.441406 107.0625 L 268.851562 108.363281 C 281.304688 120.246094 290.683594 137.300781 295.628906 153.703125 C 301.28125 173.722656 301.265625 194.617188 296.203125 214.757812 C 290.9375 234.269531 280.65625 250.492188 266.746094 264.953125 L 265.324219 266.535156 C 249.3125 283.730469 222.914062 295.804688 200.960938 303.042969 C 183.042969 308.453125 165.230469 308.980469 146.945312 305.117188 C 125.789062 299.84375 100.746094 286.117188 85.027344 270.960938 C 83.148438 268.871094 81.484375 266.898438 80.464844 264.261719 C 80.332031 262.257812 80.269531 260.253906 80.277344 258.246094 L 80.265625 256.386719 C 80.253906 254.328125 80.253906 252.265625 80.253906 250.207031 C 80.246094 248.730469 80.242188 247.257812 80.234375 245.78125 C 80.222656 241.769531 80.214844 237.761719 80.210938 233.75 C 80.207031 231.246094 80.203125 228.742188 80.199219 226.238281 C 80.183594 217.503906 80.171875 208.773438 80.171875 200.039062 C 80.167969 191.890625 80.148438 183.746094 80.117188 175.597656 C 80.09375 168.609375 80.082031 161.621094 80.082031 154.628906 C 80.082031 150.453125 80.078125 146.277344 80.058594 142.101562 C 80.039062 138.171875 80.035156 134.246094 80.046875 130.320312 C 80.050781 128.878906 80.046875 127.433594 80.035156 125.992188 C 80.019531 124.023438 80.027344 122.058594 80.039062 120.09375 L 80.011719 118.355469 C 80.035156 116.824219 80.101562 115.476562 80.464844 113.988281 C 82.46875 111.503906 84.394531 110.078125 87.292969 108.789062 L 89.257812 107.902344 L 91.371094 106.976562 L 93.621094 105.972656 C 95.925781 104.941406 98.234375 103.925781 100.546875 102.910156 L 104.445312 101.183594 C 107.183594 99.972656 109.925781 98.773438 112.671875 97.574219 C 116.167969 96.042969 119.652344 94.488281 123.132812 92.917969 C 125.726562 91.746094 128.328125 90.582031 130.925781 89.417969 C 132.203125 88.84375 133.476562 88.265625 134.75 87.6875 C 147.609375 81.839844 160.597656 77.109375 174.644531 75.207031 L 176.496094 74.933594 C 198.828125 72.125 221.890625 77.96875 241.746094 87.964844 M 159.0625 89.578125 L 157.617188 90.113281 C 156.132812 90.671875 154.65625 91.246094 153.179688 91.828125 L 151.683594 92.414062 C 146.226562 94.566406 140.851562 96.902344 135.554688 99.421875 C 130.015625 102.035156 124.375 104.425781 118.746094 106.839844 C 112.648438 109.464844 106.582031 112.144531 100.519531 114.84375 L 91.546875 118.835938 C 91.429688 137.25 91.347656 155.664062 91.292969 174.078125 C 91.269531 182.628906 91.234375 191.179688 91.179688 199.726562 C 91.128906 207.179688 91.101562 214.632812 91.089844 222.085938 C 91.082031 226.03125 91.066406 229.976562 91.03125 233.921875 C 91 237.636719 90.988281 241.351562 90.996094 245.066406 C 90.996094 246.429688 90.984375 247.792969 90.96875 249.152344 C 90.660156 256.203125 90.660156 256.203125 92.597656 262.8125 C 93.785156 264.207031 94.914062 265.265625 96.394531 266.339844 L 98.242188 267.914062 C 102.824219 271.128906 107.503906 274.128906 112.320312 276.984375 L 114.605469 278.34375 C 131.238281 288.164062 147.828125 296.449219 167.554688 296.925781 C 174.414062 296.988281 181.054688 296.789062 187.804688 295.421875 L 190.121094 294.957031 C 212.25 289.761719 235.804688 277.863281 252.898438 262.875 L 254.632812 261.394531 C 268.171875 249.59375 277.972656 234.847656 283.886719 217.90625 C 289.855469 199.753906 290.429688 181.105469 286.609375 162.472656 C 282.886719 146 274.898438 130.964844 263.5 118.535156 C 262.28125 117.242188 261.054688 115.957031 259.824219 114.679688 L 258.628906 113.355469 C 247.007812 100.816406 230.328125 93.453125 214.324219 88.441406 C 206.289062 86.28125 198.765625 85.253906 190.46875 85.324219 C 188.933594 85.335938 187.402344 85.324219 185.867188 85.3125 C 176.726562 85.296875 167.675781 86.359375 159.0625 89.578125 "/><path style=" stroke:none;fill-rule:nonzero;fill:#621cf0;fill-opacity:1;" d="M 227.222656 107.738281 C 235.550781 111.863281 242.613281 117.433594 249.433594 123.683594 L 250.847656 124.921875 C 260.488281 133.832031 267.433594 146.699219 271.59375 159 C 275.863281 173.445312 277.046875 189.996094 273.695312 204.753906 C 273.464844 205.664062 273.226562 206.570312 272.980469 207.476562 L 272.574219 208.984375 C 268.410156 223.820312 260.65625 235.789062 250.128906 246.949219 L 248.714844 248.496094 C 233.292969 264.785156 208.789062 274.980469 187.707031 281.382812 C 176.535156 284.488281 164.828125 284.246094 153.589844 281.5625 C 139.8125 277.789062 127.570312 271.070312 115.394531 263.699219 L 113.585938 262.621094 L 111.882812 261.5625 L 110.410156 260.660156 C 106.011719 257.136719 106.011719 257.136719 104.703125 254.566406 C 104.074219 250.5625 104.15625 246.585938 104.199219 242.542969 C 104.195312 241.308594 104.191406 240.078125 104.1875 238.847656 C 104.175781 235.507812 104.191406 232.171875 104.214844 228.832031 C 104.230469 225.339844 104.226562 221.84375 104.226562 218.351562 C 104.230469 212.488281 104.246094 206.625 104.277344 200.761719 C 104.308594 193.980469 104.320312 187.195312 104.316406 180.414062 C 104.316406 173.890625 104.324219 167.367188 104.34375 160.839844 C 104.351562 158.0625 104.355469 155.285156 104.355469 152.507812 C 104.359375 149.242188 104.371094 145.972656 104.390625 142.707031 C 104.398438 141.507812 104.398438 140.304688 104.398438 139.105469 C 104.398438 137.46875 104.40625 135.835938 104.425781 134.199219 L 104.414062 132.75 C 104.4375 131.421875 104.4375 131.421875 104.703125 129.222656 C 106.007812 127.484375 107.394531 126.730469 109.363281 125.867188 L 110.9375 125.171875 L 112.644531 124.429688 L 114.441406 123.640625 C 116.386719 122.785156 118.335938 121.933594 120.285156 121.085938 L 124.328125 119.316406 C 127.75 117.820312 131.171875 116.328125 134.597656 114.84375 C 137.023438 113.785156 139.445312 112.726562 141.871094 111.660156 C 144.023438 110.71875 146.175781 109.78125 148.332031 108.847656 C 149.324219 108.417969 150.3125 107.984375 151.300781 107.550781 C 176.523438 96.5 202.101562 96.019531 227.222656 107.738281 M 157.679688 116.671875 C 156.761719 117.066406 155.847656 117.457031 154.929688 117.847656 C 152.03125 119.089844 149.140625 120.34375 146.253906 121.605469 L 143.242188 122.917969 C 139.363281 124.605469 135.484375 126.300781 131.613281 128.007812 L 130.277344 128.59375 C 129.09375 129.117188 127.910156 129.640625 126.730469 130.160156 C 124.421875 131.167969 122.097656 132.136719 119.773438 133.105469 L 117.507812 134.046875 L 115.78125 134.765625 C 115.699219 149.691406 115.640625 164.621094 115.601562 179.550781 C 115.585938 186.480469 115.5625 193.414062 115.523438 200.34375 C 115.488281 206.382812 115.464844 212.425781 115.457031 218.464844 C 115.453125 221.664062 115.441406 224.863281 115.417969 228.0625 C 115.394531 231.074219 115.386719 234.085938 115.390625 237.097656 C 115.390625 238.203125 115.382812 239.304688 115.371094 240.410156 C 115.351562 241.921875 115.355469 243.429688 115.367188 244.9375 L 115.355469 247.496094 C 115.621094 249.851562 115.621094 249.851562 117.441406 251.683594 C 119.046875 253.015625 120.5625 254.117188 122.375 255.140625 L 124.15625 256.160156 L 126.039062 257.207031 L 127.996094 258.304688 C 141.800781 266.011719 155.507812 273.03125 171.71875 272.855469 C 187.507812 272.324219 201.796875 264.488281 215.804688 257.855469 L 217.902344 256.867188 C 231.257812 250.421875 243.269531 240.902344 251.832031 228.703125 C 260.378906 215.847656 263.78125 202.066406 264.800781 186.839844 C 265.128906 174.648438 262.136719 161.953125 256.5 151.164062 C 250.089844 139.402344 241.085938 128.984375 229.714844 121.742188 C 221.515625 116.777344 212.996094 113.574219 203.730469 111.21875 L 202.3125 110.828125 C 197.707031 109.652344 193.1875 109.578125 188.453125 109.574219 L 186.117188 109.523438 C 175.882812 109.488281 166.957031 112.621094 157.679688 116.671875 "/><path style=" stroke:none;fill-rule:nonzero;fill:#631df0;fill-opacity:1;" d="M 210.136719 127.214844 C 218.574219 130.457031 225.671875 135.425781 232.121094 141.6875 L 233.5625 142.972656 C 239.980469 148.898438 244.640625 156.980469 247.359375 165.234375 C 251.171875 178.289062 251.671875 189.9375 248.464844 203.144531 C 245.628906 213.8125 239.132812 223.160156 231.601562 231.066406 C 226.671875 235.816406 221.386719 239.664062 215.25 242.652344 L 213.796875 243.367188 C 208.964844 245.734375 204.097656 248.035156 199.203125 250.265625 C 198.234375 250.710938 197.269531 251.160156 196.304688 251.609375 C 187.785156 255.582031 179.304688 259.296875 169.710938 259.023438 L 167.917969 258.996094 C 163.25 258.859375 158.980469 258.214844 154.5625 256.644531 L 152.75 256.027344 C 147.6875 254.105469 142.960938 251.503906 138.203125 248.941406 L 136.136719 247.832031 L 134.195312 246.769531 L 132.441406 245.816406 C 131.019531 244.871094 131.019531 244.871094 129.632812 242.792969 C 129.441406 240.773438 129.441406 240.773438 129.410156 238.257812 L 129.390625 236.859375 C 129.371094 235.320312 129.359375 233.78125 129.347656 232.242188 L 129.304688 228.96875 C 129.269531 226.03125 129.242188 223.097656 129.214844 220.164062 C 129.195312 217.738281 129.167969 215.308594 129.140625 212.882812 C 128.976562 197.894531 128.878906 182.90625 128.855469 167.917969 L 128.847656 165.589844 C 128.84375 163.4375 128.84375 161.28125 128.847656 159.125 L 128.84375 157.277344 C 128.851562 155.542969 128.894531 153.8125 128.941406 152.078125 L 128.929688 150.050781 C 128.984375 148.078125 129.109375 146.359375 129.632812 144.457031 C 131.445312 142.914062 132.382812 142.324219 134.507812 141.519531 L 136.011719 140.863281 C 137.050781 140.410156 138.097656 139.972656 139.148438 139.550781 C 140.632812 138.945312 142.105469 138.316406 143.566406 137.660156 C 146.378906 136.410156 149.210938 135.214844 152.050781 134.027344 L 155.0625 132.761719 C 160.359375 130.535156 165.664062 128.335938 171.007812 126.238281 C 171.488281 126.050781 171.964844 125.863281 172.453125 125.667969 C 184.328125 121.109375 198.394531 123.25 210.136719 127.214844 M 161.011719 141.949219 L 157.433594 143.535156 C 151.613281 146.113281 145.816406 148.75 140.019531 151.382812 L 140.019531 237.253906 C 154.257812 245.371094 154.257812 245.371094 169.753906 247.902344 L 171.363281 247.980469 C 180.511719 248.113281 189.300781 243 197.382812 239.152344 C 199.015625 238.378906 200.652344 237.609375 202.289062 236.847656 C 213.125 231.746094 222.847656 225.925781 230.261719 216.304688 C 235.5 208.632812 239.121094 200.160156 239.851562 190.828125 C 240.40625 180.828125 238.710938 171.476562 234.199219 162.464844 C 229.792969 154.453125 223.8125 147.492188 216.195312 142.382812 C 207.363281 137.371094 198.484375 134.1875 188.234375 133.855469 C 178.300781 134.195312 169.917969 137.933594 161.011719 141.949219 "/><path style=" stroke:none;fill-rule:nonzero;fill:#621cf0;fill-opacity:1;" d="M 200.550781 149.6875 C 207.265625 152.398438 213.003906 156.472656 217.652344 162.042969 C 222.023438 168.046875 224.851562 174.503906 225.890625 181.855469 C 226.390625 189.269531 225.425781 195.945312 222.296875 202.714844 C 218.609375 209.558594 213.496094 214.757812 207.191406 219.25 C 203.828125 221.257812 200.269531 222.886719 196.71875 224.527344 L 193.835938 225.882812 C 191.96875 226.761719 190.097656 227.628906 188.222656 228.488281 C 186.160156 229.441406 184.101562 230.402344 182.046875 231.382812 C 177.007812 233.707031 172.289062 235.253906 166.644531 234.972656 C 162.214844 234.0625 158.398438 231.976562 154.5625 229.636719 L 153.871094 228.945312 C 153.78125 226.851562 153.738281 224.773438 153.726562 222.679688 L 153.703125 220.6875 C 153.683594 218.5 153.671875 216.316406 153.65625 214.128906 L 153.640625 211.871094 C 153.621094 207.929688 153.601562 203.988281 153.589844 200.046875 C 153.578125 196.78125 153.554688 193.511719 153.519531 190.246094 C 153.476562 186.304688 153.457031 182.367188 153.449219 178.429688 C 153.441406 176.925781 153.429688 175.421875 153.410156 173.917969 C 153.386719 171.816406 153.378906 169.714844 153.386719 167.613281 L 153.347656 165.722656 C 153.363281 164.070312 153.421875 162.667969 153.871094 161.078125 C 155.84375 159.351562 155.84375 159.351562 158.023438 158.308594 L 160.15625 157.265625 C 164.707031 155.300781 164.707031 155.300781 166.203125 154.664062 C 167.492188 154.113281 168.773438 153.558594 170.054688 153 C 180.574219 148.5 189.339844 146.15625 200.550781 149.6875 M 177.640625 162.007812 C 174.574219 163.539062 171.40625 164.695312 168.191406 165.871094 C 166.226562 166.589844 166.226562 166.589844 164.257812 168.003906 C 164.039062 169.753906 163.960938 171.335938 163.96875 173.085938 L 163.949219 174.675781 C 163.933594 176.410156 163.929688 178.144531 163.933594 179.882812 L 163.917969 183.496094 C 163.910156 186.019531 163.90625 188.546875 163.910156 191.074219 C 163.914062 194.3125 163.894531 197.550781 163.867188 200.792969 C 163.847656 203.28125 163.84375 205.765625 163.847656 208.253906 C 163.847656 209.449219 163.839844 210.644531 163.828125 211.839844 C 163.8125 213.507812 163.820312 215.175781 163.832031 216.847656 L 163.804688 218.347656 C 163.792969 219.890625 163.792969 219.890625 164.257812 222.019531 C 165.773438 223.492188 165.773438 223.492188 167.71875 224.097656 C 173.457031 223.550781 178.628906 220.792969 183.804688 218.398438 C 185.328125 217.699219 186.851562 217.003906 188.378906 216.316406 C 199.917969 211.292969 199.917969 211.292969 209.140625 203.066406 C 212.449219 198.207031 214.359375 193.570312 215.003906 187.722656 C 215.207031 182.550781 214.058594 177.753906 211.863281 173.078125 C 209.582031 168.972656 206.90625 165.835938 203.039062 163.15625 C 198.375 160.417969 194.265625 158.945312 188.839844 158.699219 C 184.507812 158.730469 181.460938 160.058594 177.640625 162.007812 "/></g></svg>