<svg xmlns="http://www.w3.org/2000/svg" xmlns:xlink="http://www.w3.org/1999/xlink" width="500" zoomAndPan="magnify" viewBox="0 0 375 374.999991" height="500" preserveAspectRatio="xMidYMid meet" version="1.2"><g id="4806f726bc"><path style=" stroke:none;fill-rule:nonzero;fill:#313131;fill-opacity:1;" d="M 193.550781 53.972656 C 196.367188 55.507812 199.003906 57.308594 201.457031 59.375 L 201.789062 59.648438 C 204.273438 61.714844 206.597656 63.863281 208.542969 66.457031 L 208.792969 66.789062 C 210.445312 68.953125 211.925781 71.210938 213.332031 73.542969 L 213.617188 74.007812 C 217.378906 80.261719 219.234375 87.566406 219.417969 94.839844 C 219.453125 97.996094 219.261719 101.050781 218.75 104.167969 L 218.660156 104.722656 C 218.21875 107.324219 217.527344 109.804688 216.667969 112.292969 L 216.523438 112.722656 C 214.136719 119.753906 209.644531 125.492188 204.375 130.625 C 206.09375 131.484375 208.859375 131.089844 210.753906 131.128906 L 211.71875 131.148438 C 212.601562 131.167969 213.484375 131.1875 214.371094 131.203125 L 216.671875 131.25 C 219.242188 131.304688 221.8125 131.355469 224.386719 131.40625 L 226.421875 131.445312 C 243.472656 131.785156 260.519531 132.058594 277.566406 132.308594 L 280.753906 132.359375 C 284.824219 132.417969 288.890625 132.476562 292.960938 132.535156 L 293.382812 132.542969 C 299.75 132.632812 306.113281 132.714844 312.480469 132.769531 L 313.261719 132.777344 C 315.699219 132.800781 318.140625 132.820312 320.578125 132.839844 C 321.449219 132.84375 322.320312 132.851562 323.191406 132.859375 C 323.769531 132.863281 324.351562 132.867188 324.929688 132.871094 C 325.996094 132.878906 327.058594 132.894531 328.125 132.917969 L 328.730469 132.925781 C 329.347656 132.9375 329.964844 132.953125 330.582031 132.972656 L 331.152344 132.980469 C 332.246094 133.019531 333.058594 133.203125 334.027344 133.726562 C 334.652344 134.140625 335.011719 134.578125 335.417969 135.207031 C 335.761719 136.117188 335.859375 136.871094 335.742188 137.839844 C 335.304688 138.78125 334.800781 139.386719 333.957031 140 C 331.855469 141.113281 329.386719 141.210938 327.058594 141.328125 C 325.28125 141.441406 323.363281 141.863281 321.832031 142.820312 C 321.074219 143.4375 320.402344 144.148438 319.722656 144.851562 C 319.289062 145.292969 318.855469 145.707031 318.386719 146.105469 C 315.085938 148.753906 315.085938 148.753906 312.617188 152.082031 L 312.5 152.5 C 313.476562 152.804688 314.355469 152.9375 315.382812 152.96875 C 317.554688 153.039062 317.554688 153.039062 318.566406 153.554688 C 319.460938 154.152344 320.128906 154.878906 320.625 155.832031 C 320.832031 156.449219 320.84375 156.824219 320.832031 157.5 C 320.582031 158.375 320.300781 158.859375 319.675781 159.519531 C 318.667969 160.277344 317.46875 160.730469 316.234375 160.945312 C 315.296875 161.054688 314.382812 161.074219 313.4375 161.078125 L 312.277344 161.09375 C 311.675781 161.101562 311.074219 161.105469 310.472656 161.109375 C 308.445312 161.121094 306.472656 161.164062 304.492188 161.625 L 304.070312 161.722656 C 302.792969 162.054688 301.675781 162.636719 300.722656 163.554688 L 300.355469 163.902344 L 299.988281 164.257812 C 299.742188 164.492188 299.496094 164.726562 299.25 164.960938 L 298.890625 165.300781 C 298.558594 165.605469 298.21875 165.898438 297.871094 166.179688 C 297.386719 166.585938 296.988281 166.976562 296.589844 167.460938 C 296.058594 168.082031 295.511719 168.683594 294.949219 169.269531 C 294.8125 169.410156 294.679688 169.550781 294.542969 169.695312 L 294.167969 170 L 293.542969 170 L 293.332031 171.457031 L 292.707031 171.667969 L 292.5 172.082031 L 293.023438 172.074219 C 294.679688 172.0625 296.335938 172.089844 297.996094 172.148438 L 298.570312 172.164062 C 299.824219 172.210938 300.933594 172.410156 302.082031 172.917969 C 302.871094 173.4375 303.375 173.949219 303.828125 174.765625 C 304.074219 175.320312 304.1875 175.742188 304.285156 176.355469 C 304.152344 177.179688 303.90625 177.695312 303.433594 178.375 C 302.964844 178.949219 302.539062 179.257812 301.875 179.582031 C 300.316406 180.03125 298.796875 180.042969 297.191406 180.011719 L 295.675781 179.996094 C 294.890625 179.984375 294.109375 179.972656 293.324219 179.960938 C 288.03125 179.757812 288.03125 179.757812 283.019531 181.21875 C 282.449219 181.609375 281.960938 182.027344 281.457031 182.5 L 280.917969 182.957031 C 279.257812 184.390625 277.699219 185.960938 276.667969 187.917969 L 276.457031 188.542969 L 275.625 188.332031 L 275.625 188.957031 L 276.128906 188.972656 C 277.730469 189.023438 279.332031 189.082031 280.933594 189.140625 C 281.523438 189.160156 282.113281 189.179688 282.703125 189.199219 C 285.09375 189.300781 285.09375 189.300781 286.113281 189.910156 C 286.820312 190.519531 287.289062 191.257812 287.707031 192.082031 C 287.929688 192.734375 287.929688 192.734375 287.917969 193.332031 C 287.660156 194.195312 287.371094 194.707031 286.757812 195.363281 C 285.917969 195.992188 284.972656 196.246094 283.957031 196.457031 C 283.042969 196.539062 282.136719 196.535156 281.21875 196.527344 L 279.621094 196.535156 C 278.792969 196.539062 277.960938 196.535156 277.132812 196.535156 C 273.296875 196.523438 269.488281 196.542969 265.996094 198.324219 C 265.324219 198.71875 264.746094 199.210938 264.167969 199.726562 L 263.785156 200.0625 C 262.367188 201.320312 261.214844 202.570312 260.265625 204.226562 L 259.875 204.902344 L 259.582031 205.417969 L 260.175781 205.410156 C 260.910156 205.402344 261.648438 205.398438 262.382812 205.394531 C 262.699219 205.390625 263.015625 205.390625 263.332031 205.386719 C 267.257812 205.339844 267.257812 205.339844 268.957031 205.832031 C 269.917969 206.378906 270.628906 207 271.25 207.917969 C 271.5 208.671875 271.527344 209.207031 271.457031 210 C 271.136719 210.671875 270.816406 211.105469 270.21875 211.550781 C 269.597656 211.953125 269.039062 212.265625 268.332031 212.5 C 267.964844 212.515625 267.597656 212.519531 267.230469 212.515625 L 266.546875 212.507812 L 265.804688 212.5 L 264.242188 212.488281 C 263.421875 212.480469 262.601562 212.472656 261.78125 212.464844 C 258.691406 212.429688 255.734375 212.449219 252.707031 213.125 L 252.074219 213.257812 C 250.332031 213.65625 249.042969 214.785156 247.738281 215.949219 C 246.378906 217.246094 245.394531 218.625 244.375 220.207031 L 245.105469 220.230469 C 246.011719 220.257812 246.917969 220.292969 247.820312 220.328125 C 248.210938 220.34375 248.601562 220.355469 248.992188 220.367188 C 252.894531 220.484375 252.894531 220.484375 254.425781 221.390625 C 255.265625 222.023438 255.71875 222.65625 256.144531 223.632812 C 256.25 224.375 256.25 224.375 256.027344 225.144531 C 255.613281 225.855469 255.269531 226.222656 254.582031 226.667969 C 253.980469 226.867188 253.59375 226.902344 252.964844 226.902344 L 252.347656 226.90625 L 251.667969 226.910156 L 250.953125 226.910156 C 250.171875 226.914062 249.390625 226.917969 248.609375 226.917969 L 246.980469 226.921875 C 245.988281 226.921875 244.996094 226.925781 244.003906 226.925781 C 242.542969 226.925781 241.082031 226.929688 239.621094 226.933594 C 238.355469 226.941406 237.089844 226.941406 235.824219 226.941406 C 235.285156 226.941406 234.75 226.945312 234.210938 226.949219 C 233.457031 226.949219 232.707031 226.949219 231.953125 226.949219 L 231.277344 226.953125 C 230.363281 226.949219 229.695312 226.917969 228.835938 226.582031 C 228.304688 226.230469 227.996094 225.988281 227.707031 225.417969 C 227.722656 224.949219 227.722656 224.949219 227.917969 224.375 C 228.308594 223.910156 228.71875 223.46875 229.15625 223.046875 L 229.535156 222.671875 C 229.933594 222.273438 230.339844 221.878906 230.742188 221.484375 L 231.539062 220.691406 C 233.609375 218.644531 233.609375 218.644531 234.601562 217.796875 C 235.847656 216.734375 236.972656 215.539062 238.125 214.375 C 238.597656 213.898438 239.070312 213.417969 239.542969 212.941406 L 239.863281 212.621094 C 240.417969 212.058594 240.996094 211.519531 241.597656 211.003906 C 242.519531 210.203125 243.386719 209.351562 244.25 208.484375 L 244.757812 207.976562 C 245.316406 207.417969 245.875 206.859375 246.433594 206.300781 C 246.835938 205.898438 247.238281 205.496094 247.640625 205.097656 C 248.617188 204.121094 249.59375 203.144531 250.570312 202.167969 C 251.363281 201.371094 252.15625 200.578125 252.953125 199.785156 L 253.292969 199.441406 L 253.984375 198.75 C 256.140625 196.597656 258.292969 194.441406 260.449219 192.285156 C 262.292969 190.441406 264.140625 188.59375 265.988281 186.746094 C 268.367188 184.371094 270.742188 181.996094 273.117188 179.617188 C 273.230469 179.503906 273.34375 179.390625 273.460938 179.277344 C 274.253906 178.484375 275.042969 177.691406 275.835938 176.898438 C 276.804688 175.933594 277.769531 174.964844 278.738281 174 C 279.230469 173.507812 279.722656 173.011719 280.214844 172.519531 C 280.75 171.988281 281.285156 171.449219 281.820312 170.914062 L 282.285156 170.449219 C 283.121094 169.617188 283.917969 168.75 284.6875 167.855469 C 285.132812 167.351562 285.625 166.90625 286.128906 166.460938 C 287.773438 164.984375 289.324219 163.414062 290.882812 161.851562 L 291.84375 160.894531 C 292.507812 160.226562 293.175781 159.5625 293.839844 158.894531 C 294.6875 158.046875 295.539062 157.195312 296.390625 156.347656 C 297.046875 155.6875 297.707031 155.03125 298.363281 154.371094 L 299.304688 153.433594 C 299.742188 152.992188 300.179688 152.554688 300.617188 152.117188 L 301.003906 151.730469 C 301.769531 150.960938 302.496094 150.167969 303.203125 149.34375 C 303.996094 148.441406 304.855469 147.617188 305.765625 146.835938 C 306.707031 146.015625 307.601562 145.152344 308.488281 144.269531 L 308.957031 143.816406 C 309.832031 142.949219 310.488281 142.144531 311.042969 141.042969 L 311.667969 141.042969 L 311.667969 140.625 L 311.027344 140.617188 C 298.761719 140.496094 286.5 140.359375 274.234375 140.199219 L 269.800781 140.140625 L 269.144531 140.132812 L 267.828125 140.117188 C 263.785156 140.0625 259.742188 140.011719 255.699219 139.957031 C 252.03125 139.910156 248.363281 139.863281 244.695312 139.816406 C 240.875 139.765625 237.054688 139.714844 233.234375 139.667969 C 231.109375 139.636719 228.984375 139.609375 226.863281 139.582031 C 224.5 139.554688 222.140625 139.523438 219.78125 139.492188 L 219.222656 139.484375 C 214.441406 139.421875 209.65625 139.347656 204.875 139.230469 C 204.050781 139.207031 203.226562 139.191406 202.40625 139.175781 C 202.023438 139.167969 201.640625 139.160156 201.257812 139.152344 C 200.613281 139.140625 199.964844 139.128906 199.316406 139.121094 L 198.707031 139.105469 C 197.507812 139.097656 196.6875 139.226562 195.625 139.792969 C 195.222656 140.078125 195.222656 140.078125 194.910156 140.410156 L 194.542969 140.773438 L 194.167969 141.160156 L 193.761719 141.566406 C 193.339844 141.992188 192.921875 142.421875 192.5 142.851562 L 191.652344 143.703125 C 191.253906 144.109375 190.855469 144.511719 190.457031 144.917969 C 189.839844 145.546875 189.246094 146.183594 188.671875 146.851562 C 187.839844 147.808594 186.949219 148.699219 186.046875 149.589844 L 185.519531 150.117188 C 184.777344 150.855469 184.035156 151.589844 183.292969 152.328125 C 182.75 152.867188 182.203125 153.410156 181.660156 153.953125 L 181.15625 154.449219 L 180.679688 154.925781 L 180.265625 155.335938 C 179.863281 155.757812 179.484375 156.183594 179.105469 156.625 C 178.363281 157.480469 177.578125 158.28125 176.777344 159.078125 L 176.328125 159.527344 C 176.007812 159.84375 175.6875 160.164062 175.367188 160.480469 C 174.863281 160.984375 174.355469 161.488281 173.847656 161.996094 C 172.59375 163.246094 171.335938 164.5 170.078125 165.753906 C 169.015625 166.8125 167.949219 167.875 166.886719 168.9375 C 166.390625 169.429688 165.890625 169.925781 165.394531 170.421875 L 164.472656 171.339844 L 164.058594 171.75 C 163.269531 172.542969 162.507812 173.363281 161.78125 174.214844 C 161.316406 174.746094 160.820312 175.238281 160.320312 175.734375 L 160.011719 176.039062 C 159.589844 176.457031 159.167969 176.875 158.742188 177.292969 C 157.636719 178.386719 156.546875 179.484375 155.535156 180.671875 C 154.902344 181.390625 154.207031 182.050781 153.519531 182.722656 C 152.917969 183.3125 152.339844 183.925781 151.789062 184.5625 C 150.898438 185.597656 149.925781 186.542969 148.949219 187.5 C 148.125 188.316406 147.332031 189.164062 146.574219 190.046875 C 146.039062 190.65625 145.457031 191.214844 144.875 191.777344 C 144.460938 192.203125 144.070312 192.636719 143.683594 193.082031 C 138.667969 198.855469 132.347656 202.914062 125.152344 205.433594 C 120.109375 207.128906 114.828125 208.171875 109.503906 208.164062 L 109.054688 208.164062 C 101.542969 208.140625 94.238281 206.21875 87.65625 202.527344 C 85.648438 201.339844 83.859375 199.9375 82.144531 198.355469 C 81.710938 197.960938 81.269531 197.578125 80.820312 197.199219 C 76.09375 193.0625 73.011719 187.144531 70.972656 181.292969 C 69.980469 178.34375 69.265625 175.199219 69.167969 172.082031 L 69.140625 171.421875 C 69.050781 166.710938 69.910156 162 71.875 157.707031 L 72.054688 157.3125 C 73.542969 154.039062 75.550781 151.035156 77.917969 148.332031 L 78.390625 147.785156 C 79.347656 146.691406 80.335938 145.707031 81.457031 144.792969 L 82.09375 144.257812 C 86.296875 140.792969 91.464844 138.492188 96.824219 137.539062 C 102.371094 136.679688 108.398438 137.1875 113.667969 139.175781 C 116.378906 140.257812 118.945312 141.523438 121.25 143.332031 L 121.589844 143.597656 C 124.222656 145.679688 126.320312 148.011719 128.09375 150.867188 C 128.320312 151.222656 128.546875 151.582031 128.777344 151.9375 C 130.832031 155.289062 131.886719 159.058594 132.5 162.917969 L 132.621094 163.632812 C 133.128906 167.9375 132.523438 172.238281 130.8125 176.21875 C 129.332031 179.5 127.226562 182.355469 124.375 184.582031 C 121.039062 186.964844 117.210938 188.957031 113.109375 189.523438 C 109.789062 189.84375 106.464844 189.378906 103.40625 188.039062 L 102.707031 187.707031 L 102.101562 187.421875 C 99.488281 186.09375 97.316406 184.085938 95.207031 182.082031 L 94.707031 181.632812 C 91.648438 178.769531 89.929688 174.835938 88.710938 170.902344 C 88.242188 169.332031 87.992188 167.898438 88.125 166.25 C 88.394531 165.4375 88.710938 165.039062 89.296875 164.414062 C 89.816406 164.015625 90.265625 163.855469 90.910156 163.75 C 91.726562 163.707031 92.40625 163.796875 93.15625 164.125 C 93.898438 164.605469 94.371094 165.273438 94.792969 166.042969 C 95.210938 167.070312 95.535156 168.097656 95.832031 169.167969 C 96.710938 172.320312 97.9375 175.210938 100.273438 177.566406 C 102.230469 179.414062 104.296875 180.484375 106.875 181.25 C 109.371094 181.769531 112.144531 181.589844 114.582031 180.832031 C 117.1875 179.855469 119.539062 178.265625 121.316406 176.113281 C 123.203125 173.492188 124.359375 170.625 124.734375 167.398438 C 125.070312 163.175781 124.394531 158.941406 122.617188 155.085938 C 121.449219 152.691406 119.875 150.914062 117.707031 149.375 C 114.5 147.3125 110.890625 145.683594 107.082031 145.207031 C 106.050781 145.160156 105.019531 145.15625 103.984375 145.15625 L 103.546875 145.15625 C 101.328125 145.160156 99.238281 145.269531 97.082031 145.832031 L 96.671875 145.9375 C 92.703125 146.972656 89.160156 149.027344 86.042969 151.667969 L 85.507812 152.117188 C 82.089844 155.078125 79.863281 159.183594 78.367188 163.414062 C 78.035156 164.417969 77.757812 165.433594 77.5 166.457031 L 77.351562 167.003906 C 76.390625 171.019531 76.898438 175.292969 78.027344 179.210938 C 79.257812 183.285156 80.847656 187.238281 83.75 190.417969 L 84.179688 190.9375 C 86.996094 194.265625 91.039062 196.761719 95.105469 198.277344 C 97.046875 198.96875 99.003906 199.476562 101.042969 199.792969 L 101.449219 199.855469 C 108.566406 200.945312 116.300781 200.222656 123.042969 197.667969 C 128.957031 195.308594 134.210938 191.730469 138.203125 186.726562 C 141.6875 182.25 143.609375 177.53125 144.402344 171.917969 C 145.285156 164.867188 143.75 157.6875 141.046875 151.175781 C 139.332031 147.226562 137.125 143.75 134.167969 140.625 L 133.6875 140.113281 C 132.40625 138.785156 131.019531 137.648438 129.550781 136.539062 C 129.296875 136.347656 129.042969 136.152344 128.789062 135.960938 C 123.007812 131.523438 116.367188 128.496094 109.167969 127.292969 L 108.726562 127.21875 C 101.527344 126.082031 93.691406 126.914062 86.890625 129.496094 C 79.410156 132.460938 72.664062 138.183594 67.621094 144.414062 C 64.125 148.945312 61.910156 154.25 60.625 159.792969 C 60.5625 160.058594 60.5 160.328125 60.4375 160.601562 C 59.546875 164.984375 59.417969 169.710938 59.582031 174.167969 L 59.605469 174.789062 C 59.921875 182.269531 62.1875 189.601562 66.042969 196.027344 C 70.699219 203.273438 76.734375 209.28125 84.375 213.332031 L 85.097656 213.726562 C 92.945312 217.675781 101.886719 218.78125 110.550781 218.78125 L 112.058594 218.78125 C 113.148438 218.785156 114.238281 218.785156 115.324219 218.785156 C 116.945312 218.785156 118.566406 218.789062 120.183594 218.789062 C 122.910156 218.792969 125.636719 218.796875 128.359375 218.796875 C 132.253906 218.800781 136.144531 218.804688 140.039062 218.8125 L 144.726562 218.816406 L 145.253906 218.816406 C 149.382812 218.824219 153.511719 218.828125 157.640625 218.832031 L 158.1875 218.832031 C 163.507812 218.835938 168.820312 218.839844 174.132812 218.847656 L 174.683594 218.847656 L 175.777344 218.851562 C 182.660156 218.855469 189.539062 218.863281 196.421875 218.875 L 196.929688 218.875 C 199.625 218.878906 202.324219 218.882812 205.019531 218.882812 C 207.726562 218.882812 210.4375 218.886719 213.144531 218.890625 C 214.753906 218.894531 216.363281 218.894531 217.972656 218.894531 C 219.175781 218.894531 220.375 218.898438 221.574219 218.902344 C 222.0625 218.902344 222.546875 218.902344 223.035156 218.902344 C 223.695312 218.902344 224.355469 218.902344 225.015625 218.90625 L 225.589844 218.902344 C 226.65625 218.910156 227.539062 219.011719 228.542969 219.375 C 229.0625 219.753906 229.0625 219.753906 229.375 220.207031 C 229.386719 220.714844 229.386719 220.714844 229.167969 221.25 C 228.742188 221.738281 228.292969 222.15625 227.789062 222.5625 C 226.855469 223.324219 226.140625 224.167969 225.414062 225.132812 C 224.964844 225.667969 224.527344 226.054688 223.957031 226.457031 C 221.675781 227.191406 218.988281 226.933594 216.621094 226.929688 C 216.152344 226.929688 215.679688 226.929688 215.210938 226.929688 C 213.925781 226.933594 212.636719 226.929688 211.351562 226.929688 C 210.105469 226.929688 208.855469 226.929688 207.609375 226.929688 C 204.902344 226.933594 202.195312 226.933594 199.492188 226.933594 C 197.121094 226.929688 194.75 226.929688 192.378906 226.929688 L 189.988281 226.929688 C 183.992188 226.933594 178 226.929688 172.007812 226.929688 C 166.691406 226.925781 161.375 226.925781 156.058594 226.929688 C 149.441406 226.933594 142.820312 226.933594 136.203125 226.929688 L 135.726562 226.929688 C 133.359375 226.929688 130.996094 226.929688 128.628906 226.933594 C 125.933594 226.933594 123.242188 226.933594 120.546875 226.929688 C 119.171875 226.929688 117.800781 226.929688 116.425781 226.929688 C 115.167969 226.929688 113.90625 226.929688 112.648438 226.929688 C 112.195312 226.929688 111.742188 226.929688 111.289062 226.929688 C 107.214844 226.9375 103.210938 226.679688 99.207031 225.898438 L 98.78125 225.816406 C 93.0625 224.710938 87.671875 222.878906 82.410156 220.378906 L 81.777344 220.078125 C 79.640625 219.035156 77.691406 217.738281 75.78125 216.328125 L 75.269531 215.949219 C 73.769531 214.828125 72.351562 213.632812 70.957031 212.382812 C 70.652344 212.109375 70.34375 211.835938 70.035156 211.5625 C 68.3125 210.035156 66.6875 208.433594 65.207031 206.667969 L 64.914062 206.320312 C 61.195312 201.894531 58.246094 197.015625 56.042969 191.667969 L 55.847656 191.199219 C 53.867188 186.371094 52.691406 181.214844 52.082031 176.042969 L 52.019531 175.515625 C 51.488281 170.578125 51.632812 165.296875 52.5 160.417969 L 52.621094 159.722656 C 54.175781 151.21875 57.421875 143.628906 63.007812 137.023438 C 65.136719 134.519531 67.390625 132.15625 69.714844 129.839844 C 70.144531 129.410156 70.574219 128.980469 71.003906 128.550781 C 71.28125 128.273438 71.558594 127.996094 71.839844 127.71875 L 72.21875 127.335938 C 72.996094 126.5625 73.800781 125.832031 74.628906 125.117188 C 75.046875 124.75 75.445312 124.367188 75.832031 123.972656 L 76.25 123.550781 L 76.667969 123.125 C 76.945312 122.84375 77.222656 122.558594 77.5 122.277344 L 77.863281 121.90625 C 78.269531 121.519531 78.6875 121.152344 79.113281 120.785156 C 80.015625 120 80.859375 119.164062 81.699219 118.3125 L 82.171875 117.839844 C 82.664062 117.34375 83.15625 116.851562 83.644531 116.355469 C 84.292969 115.699219 84.941406 115.046875 85.59375 114.394531 L 86.035156 113.949219 C 86.84375 113.136719 87.679688 112.359375 88.550781 111.609375 C 89.238281 111.003906 89.878906 110.351562 90.519531 109.699219 L 90.949219 109.269531 C 91.398438 108.820312 91.84375 108.367188 92.292969 107.917969 C 92.882812 107.320312 93.472656 106.726562 94.0625 106.132812 L 94.460938 105.726562 C 95.101562 105.085938 95.75 104.464844 96.4375 103.875 C 97.394531 103.046875 98.285156 102.15625 99.171875 101.257812 L 99.699219 100.726562 C 100.253906 100.171875 100.804688 99.617188 101.355469 99.0625 C 102.082031 98.332031 102.808594 97.597656 103.535156 96.867188 L 104.03125 96.367188 C 104.886719 95.507812 105.757812 94.691406 106.675781 93.902344 C 107.394531 93.265625 108.0625 92.582031 108.738281 91.902344 L 109.195312 91.441406 C 109.671875 90.960938 110.148438 90.480469 110.625 90 C 111.253906 89.367188 111.882812 88.730469 112.511719 88.097656 L 112.941406 87.667969 C 113.601562 87 114.273438 86.359375 114.984375 85.746094 C 115.957031 84.90625 116.855469 84 117.761719 83.085938 C 117.9375 82.90625 118.117188 82.726562 118.300781 82.542969 C 118.867188 81.972656 119.433594 81.402344 120 80.832031 C 120.746094 80.082031 121.492188 79.332031 122.238281 78.582031 L 122.75 78.066406 C 123.617188 77.195312 124.5 76.363281 125.433594 75.5625 C 126.117188 74.957031 126.753906 74.308594 127.394531 73.660156 L 127.824219 73.226562 C 128.273438 72.777344 128.71875 72.328125 129.167969 71.875 C 129.757812 71.28125 130.347656 70.683594 130.9375 70.089844 L 131.335938 69.6875 C 132.125 68.894531 132.9375 68.148438 133.785156 67.417969 C 134.285156 66.976562 134.757812 66.511719 135.226562 66.035156 L 135.785156 65.472656 L 136.355469 64.894531 C 137.601562 63.628906 138.859375 62.40625 140.207031 61.25 C 140.535156 60.953125 140.859375 60.652344 141.183594 60.351562 C 143.398438 58.363281 145.777344 56.71875 148.332031 55.207031 L 148.785156 54.941406 C 162.28125 47.003906 179.6875 46.671875 193.550781 53.972656 M 152.328125 62.113281 C 150.78125 63.117188 149.328125 64.238281 147.917969 65.417969 L 147.597656 65.683594 C 144.917969 67.921875 142.359375 70.296875 139.921875 72.800781 C 139.515625 73.195312 139.09375 73.574219 138.664062 73.941406 C 137.585938 74.882812 136.582031 75.894531 135.578125 76.90625 C 135.226562 77.261719 134.875 77.613281 134.523438 77.964844 C 133.78125 78.710938 133.035156 79.460938 132.292969 80.207031 C 131.429688 81.078125 130.566406 81.945312 129.699219 82.8125 C 129.355469 83.15625 129.015625 83.5 128.671875 83.84375 C 127.679688 84.84375 126.679688 85.816406 125.609375 86.730469 C 124.8125 87.433594 124.074219 88.195312 123.328125 88.953125 L 122.800781 89.480469 C 122.246094 90.035156 121.695312 90.589844 121.144531 91.144531 C 120.417969 91.878906 119.691406 92.609375 118.964844 93.339844 L 118.46875 93.84375 C 117.617188 94.699219 116.734375 95.519531 115.820312 96.308594 C 115.121094 96.929688 114.464844 97.597656 113.808594 98.261719 L 113.363281 98.707031 C 112.902344 99.171875 112.441406 99.636719 111.980469 100.105469 C 111.371094 100.71875 110.761719 101.332031 110.148438 101.945312 L 109.734375 102.367188 C 109.097656 103.007812 108.453125 103.625 107.765625 104.214844 C 106.699219 105.136719 105.714844 106.140625 104.722656 107.140625 C 104.371094 107.5 104.015625 107.859375 103.660156 108.214844 C 102.648438 109.230469 101.640625 110.246094 100.632812 111.261719 C 100.011719 111.886719 99.390625 112.511719 98.769531 113.136719 C 98.535156 113.371094 98.304688 113.605469 98.070312 113.84375 C 96.765625 115.164062 95.464844 116.386719 93.972656 117.496094 C 93.5 117.890625 93.5 117.890625 93.375 118.488281 L 93.332031 118.957031 L 92.707031 119.167969 L 92.707031 119.375 L 93.105469 119.378906 C 94.507812 119.390625 95.90625 119.410156 97.304688 119.429688 C 97.824219 119.4375 98.34375 119.441406 98.863281 119.445312 C 109.160156 119.546875 118.855469 121.523438 127.820312 126.773438 C 129.148438 127.574219 130.421875 128.449219 131.667969 129.375 L 132.046875 129.65625 C 137.328125 133.613281 141.625 138.523438 144.984375 144.203125 C 145.199219 144.566406 145.417969 144.925781 145.640625 145.285156 C 150.058594 152.65625 151.816406 161.214844 152.101562 169.71875 C 152.109375 170.515625 152.035156 171.304688 151.875 172.082031 C 153.070312 171.539062 153.929688 170.984375 154.839844 170.042969 L 155.183594 169.695312 C 155.546875 169.328125 155.90625 168.960938 156.261719 168.59375 L 156.984375 167.863281 C 157.222656 167.628906 157.457031 167.390625 157.691406 167.152344 L 158.011719 166.828125 C 158.570312 166.25 159.109375 165.664062 159.628906 165.054688 C 160.476562 164.082031 161.386719 163.175781 162.300781 162.265625 C 162.613281 161.957031 162.921875 161.648438 163.230469 161.339844 C 164 160.574219 164.773438 159.808594 165.542969 159.042969 C 166.195312 158.394531 166.847656 157.742188 167.5 157.09375 C 167.804688 156.792969 168.109375 156.492188 168.410156 156.191406 C 169.359375 155.246094 170.277344 154.289062 171.148438 153.273438 C 171.566406 152.792969 172.007812 152.347656 172.460938 151.902344 C 172.636719 151.726562 172.8125 151.550781 172.996094 151.371094 L 174.085938 150.296875 L 174.621094 149.765625 L 175.101562 149.296875 C 175.515625 148.859375 175.921875 148.414062 176.3125 147.960938 C 177.09375 147.058594 177.921875 146.222656 178.769531 145.382812 L 179.242188 144.914062 C 179.90625 144.253906 180.566406 143.597656 181.230469 142.941406 C 181.714844 142.457031 182.203125 141.972656 182.6875 141.492188 L 183.136719 141.050781 L 183.5625 140.625 L 183.933594 140.257812 C 184.324219 139.847656 184.691406 139.425781 185.0625 139 C 185.777344 138.179688 186.523438 137.40625 187.296875 136.644531 L 187.714844 136.226562 C 188.011719 135.929688 188.308594 135.632812 188.605469 135.335938 C 189.078125 134.867188 189.546875 134.398438 190.019531 133.929688 C 191.1875 132.761719 192.359375 131.597656 193.53125 130.429688 C 194.519531 129.445312 195.511719 128.457031 196.5 127.46875 C 196.964844 127.007812 197.425781 126.546875 197.890625 126.085938 C 198.175781 125.800781 198.460938 125.515625 198.746094 125.230469 L 199.128906 124.851562 C 199.90625 124.074219 200.636719 123.273438 201.355469 122.445312 C 201.734375 122.003906 202.136719 121.582031 202.539062 121.160156 C 204.8125 118.625 206.566406 115.722656 208.125 112.707031 L 208.480469 112.023438 C 211.398438 106.058594 212.207031 99.394531 211.765625 92.816406 C 211.222656 86.082031 209.5625 79.304688 205.710938 73.65625 C 204.632812 72.125 203.417969 70.707031 202.175781 69.300781 C 201.96875 69.0625 201.761719 68.824219 201.558594 68.582031 C 200.941406 67.839844 200.320312 67.203125 199.558594 66.601562 C 198.738281 65.949219 197.929688 65.28125 197.136719 64.597656 C 192.5 60.75 186.980469 58.070312 181.039062 57.035156 C 171.183594 55.449219 160.886719 56.761719 152.328125 62.113281 M 84.59375 257.65625 L 85.089844 257.65625 C 85.632812 257.65625 86.175781 257.65625 86.71875 257.660156 L 87.875 257.660156 C 88.683594 257.660156 89.496094 257.664062 90.308594 257.664062 C 91.324219 257.667969 92.335938 257.667969 93.351562 257.667969 C 97.21875 257.667969 101.089844 257.691406 104.957031 257.777344 C 105.296875 257.785156 105.632812 257.792969 105.96875 257.796875 C 107.679688 257.832031 109.371094 257.914062 111.070312 258.105469 L 111.5 258.152344 C 114.574219 258.535156 117.320312 259.9375 119.820312 261.714844 C 122.332031 263.695312 124.339844 266.160156 125.550781 269.136719 C 126.351562 271.320312 126.621094 273.296875 126.457031 275.625 C 126.117188 277.386719 125.457031 278.984375 124.375 280.417969 C 122.949219 282.054688 121.34375 283.347656 119.4375 284.382812 L 119.035156 284.601562 C 118.769531 284.742188 118.507812 284.882812 118.242188 285.015625 C 117.828125 285.226562 117.828125 285.226562 117.292969 285.625 C 117.082031 286.171875 117.082031 286.171875 117.082031 286.667969 L 117.566406 286.796875 C 120.722656 287.972656 123.453125 290.160156 125.625 292.707031 C 127.179688 294.722656 128.175781 296.984375 128.605469 299.492188 C 128.988281 302.535156 128.808594 305.660156 127.613281 308.511719 C 126.542969 310.6875 125.191406 312.445312 123.195312 313.820312 C 119.375 316.34375 115.058594 317.496094 110.511719 317.773438 C 110.171875 317.789062 109.832031 317.808594 109.496094 317.824219 L 108.925781 317.847656 C 106.496094 317.953125 104.066406 317.953125 101.632812 317.957031 L 100.878906 317.960938 C 99.5625 317.964844 98.246094 317.964844 96.929688 317.964844 C 95.574219 317.96875 94.21875 317.972656 92.863281 317.980469 C 91.816406 317.984375 90.765625 317.984375 89.71875 317.984375 C 89.21875 317.984375 88.71875 317.988281 88.21875 317.988281 C 87.523438 317.992188 86.824219 317.992188 86.128906 317.992188 L 85.507812 317.996094 C 84.667969 317.992188 84.085938 317.972656 83.316406 317.625 C 82.917969 317.292969 82.917969 317.292969 82.707031 316.875 C 82.367188 316.722656 82.019531 316.585938 81.667969 316.457031 L 81.667969 315 C 83.917969 314.550781 86.246094 314.664062 88.542969 314.582031 L 88.332031 260.625 L 85.832031 261.042969 C 84.074219 261.1875 84.074219 261.1875 83.265625 260.824219 C 82.664062 260.457031 82.164062 260.082031 81.667969 259.582031 C 81.640625 258.828125 81.640625 258.828125 81.667969 258.125 C 82.65625 257.734375 83.542969 257.648438 84.59375 257.65625 M 99.644531 260.964844 L 99.167969 261.457031 C 99.023438 262.0625 99.023438 262.0625 99.0625 262.746094 L 99.070312 263.546875 L 99.09375 264.417969 C 99.101562 264.726562 99.105469 265.03125 99.109375 265.335938 C 99.117188 265.992188 99.128906 266.648438 99.144531 267.304688 C 99.167969 268.335938 99.179688 269.367188 99.191406 270.402344 C 99.210938 272.347656 99.234375 274.296875 99.261719 276.242188 C 99.277344 277.164062 99.289062 278.085938 99.300781 279.007812 C 99.324219 280.796875 99.351562 282.585938 99.375 284.375 C 100.195312 284.410156 101.019531 284.441406 101.839844 284.472656 C 102.257812 284.488281 102.671875 284.503906 103.085938 284.519531 C 105.917969 284.625 108.632812 284.582031 111.28125 283.449219 C 112.476562 282.796875 113.371094 281.957031 114.1875 280.882812 C 114.625 280.136719 114.847656 279.425781 115.039062 278.59375 L 115.144531 278.183594 C 116.058594 274.367188 115.976562 269.8125 115.046875 266.003906 C 114.515625 264.359375 113.558594 263.050781 112.292969 261.886719 C 111.144531 261.097656 109.898438 260.972656 108.542969 260.832031 C 107.085938 260.722656 105.625 260.675781 104.167969 260.625 L 103.59375 260.601562 C 103.054688 260.585938 102.519531 260.570312 101.980469 260.558594 L 101.484375 260.542969 C 100.75 260.535156 100.277344 260.582031 99.644531 260.964844 M 99.375 287.707031 L 99.167969 314.582031 C 101.832031 315.472656 105.167969 315.253906 107.925781 314.773438 C 110.195312 314.304688 112.285156 313.460938 114.089844 311.964844 C 115.359375 310.742188 115.945312 309.375 116.457031 307.707031 C 117.640625 303.214844 117.472656 297.820312 116.351562 293.328125 C 115.929688 291.839844 115.269531 290.648438 114.1875 289.542969 C 113.210938 288.703125 112.257812 288.339844 111.003906 288.085938 C 107.089844 287.539062 103.386719 287.707031 99.375 287.707031 "/><path style=" stroke:none;fill-rule:nonzero;fill:#303030;fill-opacity:1;" d="M 290.417969 259.375 C 292.160156 260.292969 293.707031 261.441406 295.207031 262.707031 C 295.335938 262.808594 295.464844 262.90625 295.59375 263.011719 C 296.753906 263.9375 297.632812 265.085938 298.542969 266.25 L 299.011719 266.84375 C 303.21875 272.285156 305.285156 278.3125 306.324219 285.058594 C 306.765625 288.460938 306.734375 292.257812 306.042969 295.625 L 305.941406 296.113281 C 304.832031 301.5 302.855469 306.511719 299.199219 310.6875 C 298.648438 311.304688 298.074219 311.902344 297.5 312.5 L 297.105469 312.929688 C 294.371094 315.816406 290.5 317.28125 286.769531 318.398438 C 285.011719 318.886719 283.359375 319.03125 281.535156 319.023438 L 280.8125 319.019531 C 277.914062 318.980469 275.375 318.480469 272.707031 317.292969 L 272.015625 316.988281 C 267.621094 314.929688 263.664062 311.617188 260.867188 307.644531 C 258.574219 304.285156 257.027344 300.394531 256.042969 296.457031 L 255.855469 295.730469 C 254.382812 289.457031 254.683594 282.835938 256.457031 276.667969 C 257.882812 272.058594 260.296875 268.121094 263.542969 264.582031 L 263.878906 264.214844 C 266.707031 261.144531 269.976562 259.253906 273.886719 257.851562 C 279.449219 256.117188 285.230469 256.824219 290.417969 259.375 M 274.582031 261.457031 C 273.769531 261.960938 273.027344 262.515625 272.292969 263.125 L 271.890625 263.453125 C 270.246094 264.945312 269.078125 266.980469 268.359375 269.0625 C 267.535156 271.800781 267.105469 274.503906 266.96875 277.351562 L 266.941406 277.894531 C 266.851562 279.882812 266.84375 281.867188 266.847656 283.855469 L 266.847656 285.039062 C 266.847656 285.859375 266.847656 286.679688 266.847656 287.5 C 266.847656 288.539062 266.847656 289.578125 266.847656 290.621094 C 266.847656 291.433594 266.847656 292.246094 266.847656 293.058594 C 266.847656 293.441406 266.847656 293.824219 266.847656 294.207031 C 266.84375 296.1875 266.871094 298.164062 266.964844 300.140625 L 266.988281 300.640625 C 267.164062 303.941406 267.59375 307.65625 269.40625 310.496094 C 270.675781 312.34375 272.039062 313.527344 274.054688 314.507812 C 276.761719 315.746094 279.644531 315.847656 282.566406 315.582031 C 284.582031 315.351562 286.417969 314.902344 288.125 313.75 C 290.378906 312.03125 291.914062 309.964844 293.035156 307.375 C 294.15625 304.628906 294.59375 301.734375 294.648438 298.785156 L 294.664062 298.175781 C 294.675781 297.507812 294.6875 296.839844 294.699219 296.171875 L 294.714844 295.46875 C 294.789062 291.363281 294.820312 287.253906 294.828125 283.144531 C 294.832031 282.699219 294.832031 282.253906 294.835938 281.808594 C 294.855469 277.597656 294.847656 273.535156 293.671875 269.464844 L 293.488281 268.789062 C 292.742188 266.015625 292.742188 266.015625 291.160156 263.671875 L 290.691406 263.171875 C 289.167969 261.707031 287.574219 260.980469 285.546875 260.480469 C 281.882812 259.660156 277.988281 259.761719 274.582031 261.457031 "/><path style=" stroke:none;fill-rule:nonzero;fill:#313131;fill-opacity:1;" d="M 170.296875 257.679688 L 170.867188 257.675781 L 171.492188 257.675781 L 172.152344 257.671875 C 172.871094 257.667969 173.59375 257.667969 174.3125 257.667969 L 175.816406 257.664062 C 176.867188 257.660156 177.917969 257.660156 178.964844 257.660156 C 180.3125 257.65625 181.65625 257.652344 183.003906 257.644531 C 184.039062 257.640625 185.074219 257.640625 186.105469 257.640625 C 186.601562 257.640625 187.097656 257.636719 187.59375 257.636719 C 188.289062 257.632812 188.984375 257.632812 189.675781 257.632812 L 190.296875 257.628906 C 191.175781 257.632812 191.792969 257.675781 192.621094 258.003906 C 193.125 258.332031 193.125 258.332031 193.410156 258.683594 C 193.613281 259.433594 193.605469 260.054688 193.542969 260.832031 C 192.917969 261.25 192.917969 261.25 192.273438 261.316406 L 191.488281 261.335938 L 190.722656 261.359375 L 189.753906 261.378906 L 188.101562 261.421875 L 186.667969 261.457031 L 186.667969 262.117188 C 186.6875 271.136719 186.640625 280.152344 186.597656 289.167969 C 186.582031 291.785156 186.570312 294.402344 186.558594 297.019531 C 186.550781 298.886719 186.542969 300.75 186.535156 302.613281 C 186.527344 303.71875 186.523438 304.824219 186.519531 305.929688 C 186.515625 306.960938 186.511719 307.992188 186.503906 309.023438 C 186.503906 309.398438 186.5 309.777344 186.5 310.15625 C 186.496094 310.667969 186.496094 311.183594 186.492188 311.699219 L 186.492188 312.148438 C 186.484375 312.980469 186.410156 313.765625 186.25 314.582031 C 187.726562 314.59375 189.203125 314.601562 190.679688 314.605469 C 191.179688 314.609375 191.679688 314.609375 192.179688 314.613281 C 194.84375 314.632812 197.488281 314.609375 200.144531 314.414062 L 200.78125 314.367188 C 202.25 314.246094 203.609375 313.976562 204.902344 313.242188 C 207.242188 311.386719 208.859375 308.980469 209.96875 306.226562 C 210.71875 304.230469 211.261719 302.179688 211.722656 300.097656 L 211.839844 299.589844 L 211.9375 299.144531 C 212.082031 298.75 212.082031 298.75 212.371094 298.386719 L 212.707031 298.125 C 213.320312 298.113281 213.320312 298.113281 213.957031 298.332031 C 214.410156 298.847656 214.410156 298.847656 214.792969 299.582031 C 214.902344 300.242188 214.890625 300.882812 214.867188 301.550781 L 214.859375 302.128906 C 214.808594 304.34375 214.601562 306.546875 214.386719 308.75 C 214.332031 309.359375 214.273438 309.96875 214.214844 310.578125 C 214.179688 310.96875 214.144531 311.359375 214.105469 311.75 C 213.988281 312.976562 213.894531 314.199219 213.839844 315.425781 C 213.757812 315.996094 213.617188 316.472656 213.433594 317.015625 L 213.257812 317.527344 L 213.125 317.917969 C 205.730469 317.992188 198.335938 318.058594 190.941406 318.113281 C 189.929688 318.121094 188.917969 318.128906 187.90625 318.136719 C 185.503906 318.15625 183.101562 318.171875 180.699219 318.183594 C 179.722656 318.1875 178.746094 318.191406 177.769531 318.199219 C 176.859375 318.207031 175.953125 318.210938 175.042969 318.210938 C 174.714844 318.214844 174.386719 318.214844 174.058594 318.21875 C 171.320312 318.25 171.320312 318.25 170.25 317.742188 C 169.476562 317.21875 169.042969 316.832031 168.542969 316.042969 C 168.582031 315.441406 168.582031 315.441406 168.75 315 C 170.929688 314.273438 173.332031 314.660156 175.625 314.582031 L 175.625 260.417969 L 173.332031 261.042969 C 172.308594 261.171875 171.320312 261.195312 170.328125 260.882812 C 169.714844 260.601562 169.242188 260.273438 168.738281 259.832031 C 168.542969 259.375 168.542969 259.375 168.605469 258.59375 L 168.75 257.917969 C 169.335938 257.722656 169.691406 257.679688 170.296875 257.679688 "/></g></svg>