<svg xmlns="http://www.w3.org/2000/svg" viewBox="0 0 200 48" fill="none">
  <rect width="200" height="48" fill="transparent"/>
  <g stroke="currentColor" stroke-width="6" stroke-linecap="round">
    <path d="M20 12v24"/>
    <path d="M40 12v24"/>
    <path d="M70 12h24"/>
    <path d="M112 12v24M132 12v24"/>
    <path d="M160 12h24"/>
  </g>
</svg>
<svg xmlns="http://www.w3.org/2000/svg" xmlns:xlink="http://www.w3.org/1999/xlink" width="500" zoomAndPan="magnify" viewBox="0 0 375 374.999991" height="500" preserveAspectRatio="xMidYMid meet" version="1.2"><g id="2706764a32"><path style=" stroke:none;fill-rule:nonzero;fill:#020202;fill-opacity:1;" d="M 70.417969 159.582031 L 80.625 159.582031 C 83.355469 162.765625 83.355469 162.765625 84.390625 164.078125 C 85.136719 165.019531 85.90625 165.945312 86.667969 166.875 L 88.074219 168.59375 L 102.605469 186.355469 L 103.070312 186.921875 L 104.039062 188.109375 L 104.53125 188.710938 L 104.972656 189.25 C 105.464844 189.847656 105.960938 190.445312 106.457031 191.042969 L 106.667969 159.582031 L 118.542969 159.582031 L 118.542969 212.082031 L 108.542969 212.082031 C 105.859375 208.953125 105.859375 208.953125 104.84375 207.667969 C 103.351562 205.800781 101.824219 203.964844 100.273438 202.148438 C 99.507812 201.25 98.769531 200.335938 98.046875 199.402344 C 97.113281 198.199219 96.132812 197.046875 95.132812 195.902344 C 94.371094 195.03125 93.636719 194.140625 92.921875 193.234375 C 92.410156 192.597656 91.882812 191.976562 91.355469 191.355469 C 90.558594 190.417969 89.777344 189.46875 89.015625 188.507812 C 88.03125 187.277344 87.023438 186.070312 86.023438 184.855469 C 85.476562 184.195312 84.933594 183.535156 84.390625 182.875 L 83.617188 181.929688 L 83.265625 181.503906 L 82.953125 181.125 C 82.722656 180.839844 82.722656 180.839844 82.5 180.625 L 82.292969 212.082031 L 70.417969 212.082031 Z M 70.417969 159.582031 "/><path style=" stroke:none;fill-rule:nonzero;fill:#040404;fill-opacity:1;" d="M 166.21875 152.207031 C 166.796875 152.207031 167.375 152.203125 167.953125 152.203125 C 169.351562 152.199219 170.753906 152.199219 172.152344 152.199219 C 173.289062 152.203125 174.429688 152.199219 175.566406 152.199219 L 177.054688 152.199219 C 180.152344 152.195312 183.246094 152.195312 186.34375 152.199219 C 189.167969 152.203125 191.988281 152.199219 194.8125 152.195312 C 197.71875 152.1875 200.628906 152.1875 203.539062 152.1875 C 205.167969 152.1875 206.796875 152.1875 208.425781 152.183594 C 209.8125 152.179688 211.199219 152.179688 212.585938 152.183594 C 213.292969 152.1875 213.996094 152.1875 214.703125 152.183594 C 218.886719 152.167969 222.910156 152.484375 226.886719 153.867188 L 227.507812 154.078125 C 230.824219 155.261719 233.917969 156.96875 236.667969 159.167969 L 237.035156 159.460938 C 241.625 163.164062 245.050781 167.871094 247.292969 173.332031 C 249.453125 179.007812 250.066406 185.058594 249.113281 191.054688 C 248.140625 196.609375 245.96875 201.839844 242.40625 206.238281 C 238.96875 210.339844 235.105469 213.613281 230.207031 215.832031 L 229.476562 216.175781 C 225.015625 218.1875 220.238281 218.992188 215.363281 218.988281 L 214.683594 218.988281 C 213.933594 218.992188 213.1875 218.992188 212.441406 218.992188 L 210.824219 218.996094 C 209.367188 218.996094 207.910156 219 206.449219 219 L 203.710938 219.003906 C 201.175781 219.003906 198.640625 219.007812 196.101562 219.007812 L 193.640625 219.007812 C 191.003906 219.007812 188.367188 219.011719 185.726562 219.019531 C 183.011719 219.023438 180.292969 219.023438 177.578125 219.027344 C 176.054688 219.023438 174.535156 219.027344 173.011719 219.03125 C 171.578125 219.035156 170.144531 219.035156 168.710938 219.03125 C 168.191406 219.03125 167.667969 219.035156 167.144531 219.035156 C 159.910156 219.0625 153.347656 217.976562 146.992188 214.398438 C 144.84375 213.144531 142.933594 211.617188 141.152344 209.890625 C 140.820312 209.570312 140.484375 209.253906 140.148438 208.9375 C 138.554688 207.414062 137.242188 205.808594 136.042969 203.957031 L 135.796875 203.589844 C 134.410156 201.472656 133.394531 199.238281 132.5 196.875 L 132.339844 196.453125 C 130.421875 191.253906 130.058594 185.394531 130.96875 179.949219 C 132.089844 173.875 134.652344 168.496094 138.625 163.78125 C 139.074219 163.273438 139.53125 162.78125 140 162.292969 L 140.484375 161.777344 C 144.21875 157.898438 149.148438 155.109375 154.273438 153.523438 C 158.269531 152.394531 162.082031 152.199219 166.21875 152.207031 M 147.707031 160.625 C 146.070312 161.75 144.570312 163.011719 143.125 164.375 L 142.660156 164.800781 C 139.113281 168.15625 136.769531 172.664062 135.363281 177.296875 C 133.890625 182.5625 133.867188 187.867188 135.160156 193.167969 C 136.554688 198.457031 139.382812 202.953125 143.191406 206.824219 C 146.835938 210.433594 151.3125 212.980469 156.265625 214.320312 C 159.828125 215.246094 163.328125 215.269531 166.988281 215.265625 C 167.542969 215.265625 168.097656 215.269531 168.65625 215.269531 C 170.003906 215.269531 171.351562 215.273438 172.699219 215.269531 C 174.273438 215.269531 175.84375 215.269531 177.417969 215.273438 C 180.402344 215.273438 183.382812 215.277344 186.363281 215.273438 C 189.082031 215.273438 191.800781 215.273438 194.515625 215.277344 C 197.316406 215.285156 200.117188 215.285156 202.917969 215.285156 C 204.488281 215.285156 206.054688 215.285156 207.625 215.289062 C 208.960938 215.289062 210.296875 215.289062 211.632812 215.289062 C 212.3125 215.285156 212.992188 215.285156 213.671875 215.289062 C 219.953125 215.308594 225.570312 214.378906 231.09375 211.277344 C 235.558594 208.683594 239.355469 204.871094 241.957031 200.414062 C 244.769531 195.402344 245.9375 190.09375 245.878906 184.378906 C 245.835938 182.609375 245.558594 180.898438 245.207031 179.167969 L 245.085938 178.511719 C 244.136719 174.089844 241.863281 169.890625 238.957031 166.457031 L 238.671875 166.121094 C 235.328125 162.199219 230.972656 159.234375 226.136719 157.464844 C 225.269531 157.171875 224.398438 156.921875 223.515625 156.691406 L 223.050781 156.570312 C 219.566406 155.746094 216.039062 155.773438 212.484375 155.777344 L 210.863281 155.773438 C 209.554688 155.769531 208.246094 155.769531 206.9375 155.769531 C 205.40625 155.769531 203.878906 155.769531 202.347656 155.769531 C 199.449219 155.765625 196.550781 155.765625 193.652344 155.769531 C 191.011719 155.769531 188.371094 155.765625 185.730469 155.761719 C 183.007812 155.757812 180.285156 155.757812 177.5625 155.757812 C 176.039062 155.757812 174.515625 155.757812 172.992188 155.753906 C 171.558594 155.753906 170.121094 155.753906 168.6875 155.753906 C 168.164062 155.753906 167.640625 155.753906 167.121094 155.753906 C 160.039062 155.730469 153.75 156.796875 147.707031 160.625 "/><path style=" stroke:none;fill-rule:nonzero;fill:#020202;fill-opacity:1;" d="M 45.625 159.582031 L 57.917969 159.582031 C 57.921875 165.554688 57.902344 171.523438 57.875 177.492188 L 57.855469 181.160156 C 57.847656 183.457031 57.835938 185.757812 57.824219 188.058594 L 57.785156 195.929688 L 57.707031 212.082031 L 45.625 212.082031 Z M 45.625 159.582031 "/><path style=" stroke:none;fill-rule:nonzero;fill:#050505;fill-opacity:1;" d="M 222.707031 160.207031 L 223.113281 160.308594 C 227.609375 161.472656 231.523438 163.746094 234.859375 166.949219 C 238.058594 170.109375 240.332031 173.957031 241.644531 178.25 C 242.28125 180.675781 242.613281 182.941406 242.589844 185.457031 L 242.589844 185.878906 C 242.554688 190.566406 241.410156 194.75 239.070312 198.8125 C 236.808594 202.59375 233.753906 205.625 230 207.917969 L 229.609375 208.15625 C 228.140625 209.035156 226.632812 209.71875 225.011719 210.273438 L 224.59375 210.417969 C 221.90625 211.28125 219.210938 211.574219 216.40625 211.550781 L 215.953125 211.546875 C 211.203125 211.515625 206.980469 210.40625 202.851562 208.027344 C 198.796875 205.597656 195.5625 202.226562 193.222656 198.132812 C 191.691406 195.34375 190.492188 192.140625 190.207031 188.957031 L 190.167969 188.5625 C 189.707031 183.875 190.355469 179.257812 192.238281 174.933594 C 194.03125 171.007812 196.773438 167.355469 200.261719 164.785156 C 200.859375 164.359375 201.46875 163.949219 202.082031 163.542969 L 202.585938 163.191406 C 208.277344 159.46875 216.207031 158.554688 222.707031 160.207031 M 209.375 164.167969 L 208.664062 164.386719 C 205.839844 165.375 203.246094 166.945312 201.042969 168.957031 L 200.511719 169.4375 C 197.636719 172.164062 195.609375 175.632812 194.484375 179.421875 C 193.421875 183.230469 193.421875 187.210938 194.375 191.042969 L 194.542969 191.730469 C 195.554688 195.40625 197.601562 198.703125 200.261719 201.40625 C 203.164062 204.265625 206.648438 206.269531 210.59375 207.300781 C 214.660156 208.28125 218.992188 208.191406 223.019531 207.058594 C 226.972656 205.863281 230.425781 203.597656 233.25 200.601562 C 236.054688 197.476562 237.722656 193.847656 238.597656 189.769531 C 239.324219 185.875 239.066406 181.941406 237.773438 178.191406 C 236.414062 174.492188 234.25 171.128906 231.25 168.542969 C 228.03125 165.964844 224.320312 164.121094 220.238281 163.417969 C 218.976562 163.257812 217.714844 163.253906 216.445312 163.253906 L 216.015625 163.253906 C 213.710938 163.261719 211.578125 163.464844 209.375 164.167969 "/><path style=" stroke:none;fill-rule:nonzero;fill:#020202;fill-opacity:1;" d="M 301.457031 159.582031 L 336.042969 159.582031 L 336.042969 162.707031 L 305.417969 162.917969 L 305.207031 185.207031 L 332.707031 185.207031 L 332.707031 188.542969 L 305.207031 188.542969 L 305.207031 211.457031 C 304.019531 211.855469 302.710938 211.667969 301.457031 211.667969 Z M 254.792969 159.582031 L 289.375 159.582031 L 289.375 162.707031 L 258.75 162.917969 L 258.542969 185.207031 L 286.25 185.207031 L 286.25 188.542969 L 258.542969 188.542969 L 258.542969 211.667969 L 254.792969 211.667969 Z M 254.792969 159.582031 "/></g></svg>