<svg xmlns="http://www.w3.org/2000/svg" xmlns:xlink="http://www.w3.org/1999/xlink" width="500" zoomAndPan="magnify" viewBox="0 0 375 374.999991" height="500" preserveAspectRatio="xMidYMid meet" version="1.2"><g id="b7c64a574f"><path style=" stroke:none;fill-rule:nonzero;fill:#1b1b1b;fill-opacity:1;" d="M 253.75 170.207031 C 255.910156 171.226562 258 172.527344 259.464844 174.441406 C 260.773438 176.390625 261.367188 178.316406 261.667969 180.625 C 261.71875 181.445312 261.71875 182.257812 261.714844 183.078125 L 261.714844 183.777344 C 261.714844 184.527344 261.710938 185.277344 261.707031 186.027344 L 261.703125 187.597656 C 261.683594 192.914062 261.582031 198.226562 261.457031 203.542969 C 261.0625 203.457031 261.0625 203.457031 260.625 203.332031 C 260.320312 202.996094 260.320312 202.996094 260.011719 202.527344 L 259.640625 201.96875 L 259.167969 201.25 C 258.699219 200.542969 258.230469 199.84375 257.761719 199.140625 L 257.402344 198.59375 L 257.0625 198.085938 L 256.753906 197.621094 L 256.457031 197.292969 L 255.832031 197.292969 C 255.644531 197.566406 255.460938 197.847656 255.28125 198.128906 C 254.226562 199.675781 252.921875 201.023438 251.25 201.875 C 247.273438 203.648438 243.230469 204.109375 238.902344 203.707031 C 236.644531 203.410156 234.328125 202.523438 232.5 201.160156 C 231.195312 200.054688 230.226562 198.882812 229.582031 197.292969 C 229.035156 195.730469 229.035156 194.140625 229.167969 192.5 C 229.460938 191.003906 230.015625 189.734375 231.007812 188.574219 C 233.121094 186.46875 235.582031 185.332031 238.425781 184.542969 C 238.949219 184.414062 239.472656 184.289062 240 184.167969 L 240.714844 184 C 242.335938 183.648438 243.953125 183.433594 245.597656 183.242188 C 250.125 182.753906 250.125 182.753906 254.214844 180.925781 C 255.140625 180.167969 255.777344 179.433594 256.25 178.332031 C 256.445312 177.113281 256.054688 175.984375 255.683594 174.828125 C 255.371094 174.050781 254.976562 173.460938 254.429688 172.832031 C 254.167969 172.5 254.167969 172.5 253.957031 171.875 C 253.578125 171.65625 253.578125 171.65625 253.125 171.457031 C 252.664062 171.148438 252.207031 170.828125 251.753906 170.507812 C 250.789062 169.933594 249.886719 169.734375 248.769531 169.703125 C 246.898438 169.699219 245.429688 169.933594 243.75 170.832031 C 242.015625 171.839844 240.335938 172.929688 238.710938 174.101562 C 235.605469 176.304688 232.1875 177.929688 228.367188 178.296875 C 224.511719 178.511719 221 177.769531 217.527344 176.066406 C 215.6875 175.105469 213.917969 173.980469 212.238281 172.761719 C 210.898438 171.792969 209.144531 170.6875 207.5 170.417969 C 205.96875 170.289062 204.601562 170.320312 203.195312 170.976562 C 201.359375 172.007812 200.039062 173.398438 198.957031 175.207031 C 197.796875 177.828125 197.28125 180.757812 197.546875 183.617188 C 198.089844 188.007812 199.277344 192.25 201.863281 195.902344 C 202.582031 196.832031 203.34375 197.703125 204.167969 198.542969 L 204.585938 198.984375 C 206.214844 200.578125 208.410156 201.640625 210.585938 202.292969 C 212.804688 202.753906 215.203125 202.738281 217.394531 202.160156 C 219.945312 201.3125 221.839844 199.964844 223.636719 197.976562 C 224.503906 196.953125 225.242188 195.929688 225.839844 194.726562 L 226.042969 194.375 L 226.457031 194.167969 C 225.8125 196.273438 224.625 198.0625 223.109375 199.652344 C 221.03125 201.550781 218.699219 202.832031 215.941406 203.449219 C 214.5625 203.726562 213.230469 203.824219 211.824219 203.816406 L 211.1875 203.8125 C 207.800781 203.757812 204.601562 202.875 201.65625 201.203125 C 198.96875 199.585938 196.65625 197.347656 195.121094 194.605469 L 194.484375 193.351562 C 193.125 190.394531 192.894531 187.167969 193.125 183.957031 C 193.335938 181.960938 193.921875 180.136719 194.792969 178.332031 L 195.015625 177.855469 C 196.28125 175.394531 198.144531 173.199219 200.433594 171.648438 C 202.765625 170.179688 205.484375 169.300781 208.242188 169.117188 C 208.507812 169.113281 208.773438 169.105469 209.050781 169.101562 L 209.84375 169.078125 C 212.605469 169.21875 215.070312 170.449219 217.5 171.652344 C 220.640625 173.203125 223.730469 174.699219 227.316406 174.636719 C 230.378906 174.4375 233.148438 173.203125 235.925781 171.992188 C 241.644531 169.5 247.664062 167.515625 253.75 170.207031 M 256.042969 179.792969 C 255.824219 180.007812 255.617188 180.226562 255.417969 180.457031 C 254.210938 181.683594 252.804688 182.234375 251.171875 182.707031 C 249.367188 183.164062 247.53125 183.46875 245.695312 183.765625 C 242.894531 184.234375 240.066406 184.949219 237.757812 186.679688 C 236.476562 187.777344 235.460938 188.9375 234.785156 190.492188 C 234.316406 191.84375 234.21875 193.167969 234.375 194.582031 C 234.742188 196.335938 235.367188 197.945312 236.457031 199.375 C 237.703125 200.746094 239.304688 201.703125 241.046875 202.300781 C 243.535156 202.957031 246.144531 202.929688 248.640625 202.328125 C 250.527344 201.699219 252.277344 200.714844 253.75 199.375 C 255.066406 197.847656 256.054688 196.15625 256.457031 194.167969 C 256.476562 193.695312 256.484375 193.222656 256.480469 192.753906 L 256.480469 192.328125 C 256.480469 191.863281 256.480469 191.402344 256.480469 190.941406 L 256.476562 189.976562 C 256.476562 189.132812 256.476562 188.289062 256.472656 187.445312 C 256.472656 186.585938 256.46875 185.722656 256.46875 184.859375 C 256.464844 183.171875 256.460938 181.480469 256.457031 179.792969 Z M 161.910156 169.339844 C 164.402344 169.242188 167.195312 169.683594 169.453125 170.742188 C 171.257812 171.726562 172.730469 172.921875 173.957031 174.582031 C 175.109375 176.566406 175.695312 178.738281 175.703125 181.023438 L 175.695312 181.703125 L 175.695312 182.4375 C 175.695312 183.230469 175.691406 184.019531 175.6875 184.8125 C 175.683594 185.367188 175.683594 185.917969 175.683594 186.472656 C 175.679688 187.773438 175.675781 189.074219 175.671875 190.375 C 175.664062 191.855469 175.660156 193.335938 175.65625 194.820312 C 175.648438 197.867188 175.636719 200.914062 175.625 203.957031 L 170.625 203.957031 L 170.621094 201.757812 C 170.613281 199.347656 170.601562 196.9375 170.585938 194.527344 C 170.578125 193.066406 170.570312 191.605469 170.570312 190.144531 C 170.566406 188.734375 170.558594 187.320312 170.546875 185.910156 C 170.546875 185.375 170.542969 184.839844 170.542969 184.300781 C 170.558594 179.066406 170.558594 179.066406 168.820312 174.179688 C 167.992188 172.894531 167.113281 172.054688 165.765625 171.308594 C 163.714844 170.320312 161.640625 170.273438 159.40625 170.382812 C 157.355469 170.535156 155.496094 171.460938 153.75 172.5 C 152.042969 173.707031 150.949219 175.238281 150 177.082031 C 149.460938 178.355469 149.140625 179.640625 149.144531 181.023438 L 149.144531 182.296875 L 149.148438 182.996094 C 149.148438 183.5 149.148438 184 149.152344 184.503906 C 149.152344 185.296875 149.15625 186.089844 149.15625 186.882812 C 149.160156 188.5625 149.160156 190.246094 149.167969 191.925781 C 149.171875 193.878906 149.175781 195.828125 149.179688 197.78125 C 149.179688 198.566406 149.183594 199.347656 149.183594 200.132812 L 149.1875 201.5625 L 149.191406 202.226562 L 149.191406 203.355469 L 149.167969 203.75 L 148.957031 203.957031 C 148.585938 203.976562 148.214844 203.980469 147.84375 203.980469 L 147.164062 203.976562 L 145.726562 203.96875 C 145.136719 203.964844 144.546875 203.960938 143.957031 203.957031 C 143.890625 200.035156 143.839844 196.113281 143.808594 192.191406 C 143.792969 190.367188 143.773438 188.546875 143.738281 186.726562 C 143.710938 185.136719 143.691406 183.546875 143.683594 181.960938 C 143.679688 181.121094 143.671875 180.28125 143.648438 179.4375 C 143.527344 174.339844 143.527344 174.339844 144.242188 173.019531 C 144.878906 172.230469 145.617188 171.703125 146.515625 171.238281 C 147.058594 170.941406 147.511719 170.550781 147.980469 170.15625 C 148.234375 169.960938 148.488281 169.769531 148.75 169.582031 L 148.957031 169.582031 L 148.957031 177.292969 C 149.417969 176.675781 149.800781 176.101562 150.183594 175.441406 C 151.378906 173.453125 152.777344 172.28125 154.777344 171.097656 C 157.046875 169.886719 159.378906 169.527344 161.910156 169.339844 M 283.574219 158.152344 C 284.082031 158.390625 284.550781 158.625 285 158.957031 L 285 159.375 L 285.417969 159.375 C 286.21875 160.367188 286.722656 161.339844 287.175781 162.527344 L 287.382812 163.058594 C 287.632812 163.703125 287.878906 164.351562 288.125 165 L 288.277344 165.398438 C 288.808594 166.800781 289.339844 168.203125 289.871094 169.605469 C 290.773438 172 291.683594 174.386719 292.605469 176.769531 C 293.652344 179.492188 294.695312 182.21875 295.730469 184.949219 L 295.917969 185.441406 C 296.519531 187.03125 297.117188 188.617188 297.6875 190.21875 C 300.085938 196.917969 300.085938 196.917969 304.375 202.5 C 305.257812 203.078125 306.039062 203.230469 307.082031 203.332031 L 307.292969 203.957031 C 306.035156 204.394531 304.878906 204.453125 303.554688 204.453125 L 302.953125 204.46875 C 301.796875 204.472656 300.953125 204.34375 299.9375 203.773438 C 298.046875 202.535156 296.917969 200.785156 295.886719 198.800781 C 294.898438 196.84375 294.191406 194.757812 293.457031 192.695312 L 293.3125 192.289062 C 293.179688 191.914062 293.046875 191.542969 292.914062 191.167969 C 292.757812 190.648438 292.757812 190.648438 292.5 190.417969 C 292.007812 190.390625 291.515625 190.378906 291.023438 190.375 L 290.554688 190.367188 C 290.042969 190.359375 289.527344 190.355469 289.015625 190.351562 L 287.953125 190.335938 C 287.015625 190.324219 286.082031 190.316406 285.144531 190.304688 C 284.191406 190.296875 283.238281 190.285156 282.285156 190.273438 C 280.410156 190.25 278.539062 190.226562 276.667969 190.207031 L 276.496094 190.902344 L 276.269531 191.8125 L 276.15625 192.265625 C 275.929688 193.183594 275.675781 194.089844 275.390625 194.988281 C 274.785156 196.9375 274.519531 198.800781 274.792969 200.832031 C 275.054688 201.546875 275.253906 201.761719 275.832031 202.292969 C 276.890625 203.023438 278.128906 203.144531 279.375 203.332031 L 279.375 203.957031 L 266.25 203.957031 L 266.042969 203.332031 L 266.554688 203.285156 C 268.015625 203.113281 269.253906 202.839844 270.523438 202.066406 C 271.601562 201.234375 272.339844 200.214844 272.886719 198.972656 C 273.0625 198.515625 273.234375 198.058594 273.398438 197.601562 L 273.585938 197.078125 C 274.253906 195.21875 274.828125 193.335938 275.398438 191.445312 C 275.730469 190.335938 276.070312 189.226562 276.40625 188.113281 L 276.621094 187.40625 C 277.394531 184.859375 278.1875 182.316406 278.976562 179.777344 C 279.21875 179 279.457031 178.226562 279.695312 177.453125 C 280.976562 173.292969 280.976562 173.292969 281.640625 171.335938 C 281.875 170.644531 282.101562 169.949219 282.328125 169.257812 C 282.480469 168.808594 282.640625 168.363281 282.800781 167.914062 C 283.058594 167.152344 283.253906 166.429688 283.332031 165.625 C 282.960938 163.824219 282.015625 162.226562 280.832031 160.832031 C 280.183594 160.175781 279.632812 159.667969 278.75 159.375 C 277.339844 159.246094 276.289062 159.433594 275 160 L 274.375 160.207031 L 274.375 159.582031 C 275.542969 158.605469 277.046875 158.09375 278.523438 157.792969 C 280.226562 157.570312 281.957031 157.515625 283.574219 158.15625 M 283.957031 167.292969 C 283.230469 168.964844 282.699219 170.691406 282.179688 172.4375 C 281.925781 173.28125 281.671875 174.117188 281.417969 174.957031 L 281.265625 175.460938 C 280.851562 176.824219 280.425781 178.179688 279.988281 179.53125 C 279.371094 181.433594 278.765625 183.339844 278.164062 185.246094 C 278.070312 185.550781 277.972656 185.851562 277.878906 186.152344 C 277.746094 186.574219 277.613281 186.992188 277.480469 187.414062 L 277.25 188.148438 C 277.054688 188.746094 277.054688 188.746094 277.082031 189.375 L 292.292969 189.375 C 291.359375 186.546875 291.359375 186.546875 290.363281 183.738281 L 290.191406 183.273438 C 290.011719 182.785156 289.828125 182.296875 289.648438 181.808594 L 289.265625 180.773438 C 288.390625 178.417969 287.507812 176.066406 286.605469 173.71875 C 285.972656 172.054688 285.371094 170.382812 284.8125 168.691406 C 284.679688 168.289062 284.527344 167.894531 284.375 167.5 Z M 105.070312 159.585938 C 106.6875 160.402344 108.15625 161.386719 109.582031 162.5 C 109.4375 163.613281 109.117188 164.632812 108.761719 165.691406 L 108.597656 166.210938 L 108.433594 166.703125 L 108.285156 167.152344 L 108.125 167.5 L 107.707031 167.707031 L 107.53125 167.242188 C 106.507812 164.648438 105.117188 162.34375 102.949219 160.550781 C 100.632812 158.835938 98.066406 157.875 95.207031 157.5 C 94.421875 157.441406 93.640625 157.429688 92.851562 157.433594 L 92.21875 157.4375 C 90.566406 157.464844 89.085938 157.640625 87.5 158.125 L 86.761719 158.347656 C 84.292969 159.160156 82.195312 160.417969 80.207031 162.082031 L 79.742188 162.457031 C 77.34375 164.464844 75.742188 167.113281 74.628906 170.007812 C 72.855469 174.960938 72.460938 180.238281 73.332031 185.417969 C 74.074219 189.476562 75.460938 193.207031 78.132812 196.410156 C 80.238281 198.816406 82.917969 200.753906 85.941406 201.859375 C 89.613281 203.082031 93.335938 203.535156 97.199219 202.980469 C 100.105469 202.371094 102.902344 201.140625 105.152344 199.191406 C 107.910156 196.6875 110.054688 193.660156 111.457031 190.207031 L 111.667969 190.207031 C 111.714844 191.15625 111.746094 192.105469 111.769531 193.054688 C 111.777344 193.375 111.792969 193.699219 111.808594 194.019531 C 111.859375 195.070312 111.863281 196.050781 111.667969 197.082031 C 111.15625 197.84375 110.566406 198.277344 109.792969 198.75 C 109.554688 198.921875 109.316406 199.097656 109.082031 199.273438 C 104.5625 202.167969 99.753906 203.59375 94.402344 203.917969 C 89.347656 204.144531 84.316406 203.097656 79.792969 200.832031 C 78.144531 199.960938 76.636719 198.902344 75.207031 197.707031 L 74.75 197.34375 C 71.867188 194.9375 70.167969 191.726562 68.894531 188.253906 C 67.558594 184.386719 67.257812 180.117188 67.941406 176.082031 C 68.679688 172.285156 70.148438 168.425781 72.691406 165.46875 L 73.125 165 L 73.589844 164.484375 C 74.953125 163.046875 76.476562 161.917969 78.125 160.832031 L 78.734375 160.429688 C 86.554688 155.578125 96.925781 155.695312 105.070312 159.585938 M 124.792969 155.832031 L 125 155.832031 C 125.003906 159.953125 125.007812 164.078125 125.011719 168.199219 C 125.011719 170.113281 125.011719 172.027344 125.015625 173.945312 C 125.027344 183.949219 124.96875 193.953125 124.792969 203.957031 L 119.792969 203.957031 C 119.742188 198.257812 119.707031 192.558594 119.683594 186.859375 C 119.675781 184.214844 119.65625 181.570312 119.632812 178.921875 C 119.613281 176.617188 119.601562 174.308594 119.59375 172.003906 C 119.59375 170.78125 119.585938 169.558594 119.570312 168.339844 C 119.558594 167.1875 119.550781 166.039062 119.554688 164.890625 C 119.554688 164.46875 119.550781 164.046875 119.542969 163.625 C 119.496094 161.023438 119.496094 161.023438 119.792969 160 C 120.375 159.160156 121.011719 158.65625 121.875 158.125 C 122.105469 157.9375 122.332031 157.742188 122.558594 157.546875 L 123.113281 157.097656 L 123.675781 156.636719 C 124.167969 156.25 124.167969 156.25 124.792969 155.832031 M 136.457031 169.792969 L 136.875 170 C 136.878906 174.398438 136.882812 178.792969 136.886719 183.191406 C 136.886719 185.230469 136.886719 187.273438 136.890625 189.316406 C 136.894531 191.09375 136.894531 192.871094 136.894531 194.652344 C 136.894531 195.59375 136.894531 196.535156 136.898438 197.476562 C 136.898438 198.363281 136.898438 199.25 136.898438 200.136719 C 136.898438 200.460938 136.898438 200.789062 136.898438 201.113281 C 136.902344 201.558594 136.902344 202 136.898438 202.445312 L 136.902344 203.199219 L 136.875 203.75 L 136.667969 203.957031 C 136.296875 203.976562 135.925781 203.980469 135.550781 203.980469 L 134.871094 203.976562 L 133.433594 203.96875 C 132.84375 203.964844 132.253906 203.960938 131.667969 203.957031 C 131.628906 200.019531 131.597656 196.078125 131.582031 192.136719 C 131.570312 190.304688 131.558594 188.476562 131.539062 186.648438 C 131.523438 185.050781 131.515625 183.457031 131.511719 181.863281 C 131.507812 181.015625 131.503906 180.171875 131.492188 179.328125 C 131.480469 178.535156 131.476562 177.738281 131.476562 176.941406 C 131.476562 176.652344 131.472656 176.359375 131.46875 176.070312 C 131.449219 175.203125 131.460938 174.386719 131.667969 173.542969 C 132.136719 172.898438 132.664062 172.503906 133.332031 172.082031 C 133.617188 171.871094 133.898438 171.65625 134.179688 171.441406 C 134.453125 171.242188 134.726562 171.042969 135 170.847656 L 135.429688 170.535156 C 135.773438 170.285156 136.113281 170.039062 136.457031 169.792969 M 186.667969 169.792969 L 186.875 169.792969 L 186.875 203.957031 L 181.875 203.957031 C 181.835938 200.019531 181.808594 196.078125 181.789062 192.136719 C 181.78125 190.304688 181.769531 188.476562 181.75 186.648438 C 181.734375 185.050781 181.722656 183.457031 181.71875 181.863281 C 181.714844 181.015625 181.710938 180.171875 181.699219 179.328125 C 181.6875 178.535156 181.683594 177.738281 181.6875 176.941406 C 181.6875 176.652344 181.683594 176.359375 181.675781 176.070312 C 181.65625 175.203125 181.667969 174.386719 181.875 173.542969 C 182.347656 172.898438 182.875 172.503906 183.542969 172.082031 C 183.824219 171.871094 184.101562 171.65625 184.378906 171.441406 C 184.652344 171.242188 184.921875 171.042969 185.195312 170.847656 L 185.617188 170.535156 C 185.964844 170.285156 186.316406 170.035156 186.667969 169.792969 M 184.167969 157.292969 C 184.570312 157.460938 184.570312 157.460938 185 157.707031 L 185.207031 158.332031 L 185.625 158.332031 L 185.625 158.75 L 186.25 158.957031 L 186.25 159.375 L 186.628906 159.519531 C 187.082031 159.792969 187.082031 159.792969 187.449219 160.339844 L 187.707031 160.832031 C 187.441406 161.113281 187.171875 161.390625 186.902344 161.667969 L 186.445312 162.136719 L 186.042969 162.5 L 185.625 162.5 L 185.457031 162.878906 C 185.210938 163.328125 184.960938 163.617188 184.582031 163.957031 C 184.042969 163.769531 183.609375 163.597656 183.164062 163.230469 L 182.917969 162.917969 L 182.917969 162.5 L 182.542969 162.339844 C 181.800781 161.925781 181.359375 161.273438 180.832031 160.625 Z M 133.957031 157.292969 C 134.550781 157.574219 134.992188 157.824219 135.417969 158.332031 L 135.417969 158.75 L 135.753906 158.878906 C 136.457031 159.289062 136.9375 159.828125 137.5 160.417969 C 137.226562 161.027344 136.929688 161.457031 136.449219 161.921875 L 136.082031 162.285156 L 135.703125 162.65625 L 135.316406 163.035156 C 135.003906 163.34375 134.691406 163.652344 134.375 163.957031 C 133.734375 163.675781 133.316406 163.359375 132.839844 162.851562 C 132.203125 162.195312 131.542969 161.613281 130.832031 161.042969 C 130.917969 160.542969 131.011719 160.246094 131.332031 159.847656 L 131.699219 159.488281 L 132.097656 159.097656 L 132.511719 158.699219 L 132.933594 158.289062 C 133.273438 157.953125 133.613281 157.621094 133.957031 157.292969 "/></g></svg>