<svg xmlns="http://www.w3.org/2000/svg" xmlns:xlink="http://www.w3.org/1999/xlink" width="500" zoomAndPan="magnify" viewBox="0 0 375 374.999991" height="500" preserveAspectRatio="xMidYMid meet" version="1.2"><defs/><g id="acecd8cca9"><path style=" stroke:none;fill-rule:evenodd;fill:#5e17eb;fill-opacity:1;" d="M 285.910156 147.761719 C 281.417969 148.023438 278.023438 148.984375 272.308594 151.605469 C 271.578125 151.941406 270.84375 152.273438 270.113281 152.601562 C 269.554688 152.851562 268.789062 153.199219 268.40625 153.371094 C 268.027344 153.539062 266.628906 154.164062 265.296875 154.75 C 264.441406 155.128906 263.585938 155.507812 262.730469 155.890625 C 262.109375 156.164062 260.425781 156.898438 260.410156 156.898438 C 260.398438 156.898438 260.25 156.964844 260.078125 157.042969 C 259.90625 157.121094 259.402344 157.34375 258.953125 157.539062 C 258.15625 157.886719 257.621094 158.125 256.878906 158.464844 C 256.15625 158.792969 255.859375 159.082031 255.65625 159.664062 C 255.535156 160.015625 255.570312 204.308594 255.695312 204.773438 C 255.996094 205.898438 256.703125 206.699219 258.660156 208.125 C 258.886719 208.289062 259.160156 208.488281 259.269531 208.570312 C 259.496094 208.738281 259.894531 209.011719 260.386719 209.335938 C 260.613281 209.484375 260.835938 209.632812 261.0625 209.785156 C 261.382812 210 262.304688 210.605469 262.828125 210.941406 C 264.441406 211.976562 268.617188 214.214844 270.636719 215.128906 C 271.203125 215.382812 271.789062 215.652344 271.941406 215.71875 C 272.441406 215.953125 273.289062 216.28125 273.960938 216.511719 C 274.855469 216.8125 275.265625 216.929688 275.960938 217.082031 C 276.097656 217.109375 276.363281 217.171875 276.554688 217.214844 C 277.035156 217.324219 277.476562 217.402344 278.679688 217.574219 C 281.46875 217.976562 284.066406 217.976562 286.75 217.574219 C 287.117188 217.519531 287.539062 217.457031 287.6875 217.433594 C 287.941406 217.394531 288.605469 217.257812 289.121094 217.132812 C 289.269531 217.097656 289.417969 217.0625 289.566406 217.03125 C 290.285156 216.871094 292.234375 216.292969 292.699219 216.101562 C 292.753906 216.078125 293.097656 215.945312 293.464844 215.800781 C 294.363281 215.453125 296.136719 214.667969 298.429688 213.605469 C 299 213.339844 299.582031 213.070312 299.726562 213.003906 C 305.371094 210.414062 310.453125 206.753906 313.335938 203.199219 C 313.484375 203.015625 313.640625 202.828125 313.6875 202.785156 C 313.789062 202.683594 314.5 201.816406 314.800781 201.425781 C 315.304688 200.773438 315.535156 200.449219 316.101562 199.601562 C 316.734375 198.652344 316.722656 198.667969 317.214844 197.832031 C 320.964844 191.441406 322.472656 183.050781 321.207031 175.613281 C 321.152344 175.300781 321.089844 174.933594 321.066406 174.796875 C 321.003906 174.425781 320.726562 173.167969 320.613281 172.75 C 320.554688 172.535156 320.5 172.320312 320.441406 172.105469 C 319.480469 168.445312 317.027344 163.535156 314.851562 160.917969 C 314.78125 160.832031 314.566406 160.566406 314.378906 160.324219 C 307.804688 151.960938 296.84375 147.125 285.910156 147.761719 M 286.355469 151.003906 C 285.160156 151.082031 284.179688 151.1875 283.46875 151.320312 C 283.332031 151.34375 283.074219 151.390625 282.898438 151.421875 C 282.308594 151.523438 280.792969 151.882812 280.429688 152.007812 C 280.363281 152.03125 280.207031 152.078125 280.085938 152.109375 C 279.28125 152.335938 277.984375 152.824219 276.652344 153.40625 C 276.21875 153.59375 275.695312 153.824219 275.492188 153.914062 C 275.289062 154 274.625 154.289062 274.011719 154.554688 C 272.765625 155.09375 272.894531 155.035156 271.417969 155.6875 C 270.824219 155.953125 270.167969 156.242188 269.964844 156.332031 C 269.566406 156.503906 269.28125 156.628906 266.628906 157.804688 C 264.578125 158.714844 263.929688 159.003906 263.480469 159.210938 C 263.292969 159.296875 263.132812 159.367188 263.125 159.367188 C 263.105469 159.367188 262.058594 159.828125 261.519531 160.074219 C 261.371094 160.140625 261.105469 160.257812 260.925781 160.328125 C 260.75 160.402344 260.234375 160.628906 259.78125 160.835938 L 258.953125 161.207031 L 258.949219 168.621094 C 258.941406 194.195312 258.957031 203.296875 259.007812 203.460938 C 259.214844 204.117188 259.800781 204.84375 260.605469 205.4375 C 260.769531 205.558594 260.964844 205.699219 261.035156 205.753906 C 261.777344 206.304688 263.828125 207.660156 264.820312 208.253906 C 265.058594 208.398438 265.296875 208.542969 265.535156 208.6875 C 272.695312 213.039062 277.105469 214.519531 282.894531 214.519531 C 286.769531 214.519531 289.804688 213.851562 293.613281 212.160156 C 295.375 211.378906 297.097656 210.601562 297.6875 210.324219 C 297.984375 210.183594 298.332031 210.023438 298.453125 209.96875 C 298.785156 209.816406 301.035156 208.691406 301.09375 208.644531 C 301.121094 208.625 301.367188 208.488281 301.636719 208.34375 C 302.550781 207.859375 304.40625 206.722656 305.027344 206.265625 C 307.558594 204.398438 309.609375 202.515625 311.066406 200.71875 C 311.203125 200.550781 311.449219 200.25 311.609375 200.054688 C 311.953125 199.636719 312.125 199.414062 312.3125 199.140625 C 312.382812 199.03125 312.492188 198.886719 312.554688 198.820312 C 312.855469 198.472656 314.054688 196.597656 314.570312 195.660156 C 317.640625 190.054688 318.882812 183.199219 317.976562 176.855469 C 317.820312 175.753906 317.714844 175.183594 317.484375 174.207031 C 317.285156 173.34375 317.261719 173.246094 317.105469 172.722656 C 317.023438 172.453125 316.941406 172.152344 316.917969 172.058594 C 316.886719 171.902344 316.542969 170.882812 316.28125 170.171875 C 315.914062 169.164062 315.121094 167.5 314.410156 166.253906 C 314.050781 165.625 313.78125 165.199219 312.925781 163.914062 C 311.632812 161.980469 309.003906 159.195312 307.070312 157.714844 C 306.402344 157.203125 305.851562 156.796875 305.511719 156.5625 C 305.308594 156.421875 305.054688 156.246094 304.945312 156.171875 C 303.921875 155.460938 302.070312 154.441406 300.648438 153.804688 C 299.367188 153.230469 297.738281 152.59375 296.898438 152.339844 C 295.347656 151.867188 294.703125 151.707031 293.242188 151.417969 C 291.128906 151.003906 288.648438 150.851562 286.355469 151.003906 M 286.304688 155.046875 C 285.125 155.128906 284.894531 155.160156 283.507812 155.425781 C 282.492188 155.621094 281.179688 155.996094 280.085938 156.402344 C 279.230469 156.722656 279.035156 156.804688 274.949219 158.589844 L 272.800781 159.527344 C 272.367188 159.714844 271.847656 159.945312 271.640625 160.035156 C 271.4375 160.125 270.726562 160.433594 270.0625 160.726562 C 269.398438 161.015625 268.40625 161.449219 267.863281 161.691406 C 267.320312 161.929688 266.621094 162.234375 266.308594 162.371094 C 263.324219 163.660156 263.382812 163.632812 263.179688 163.832031 C 262.820312 164.191406 262.851562 162.40625 262.867188 182.917969 C 262.878906 203.125 262.855469 201.445312 263.152344 202.101562 C 263.5 202.875 263.8125 203.121094 266.480469 204.71875 C 271.785156 207.898438 275.257812 209.5 278.011719 210.039062 C 278.078125 210.054688 278.367188 210.109375 278.652344 210.167969 C 280.1875 210.480469 282.199219 210.660156 283.238281 210.574219 C 283.582031 210.546875 284.050781 210.511719 284.28125 210.496094 C 285.335938 210.421875 286.988281 210.136719 287.984375 209.855469 C 288.132812 209.8125 288.28125 209.769531 288.429688 209.730469 C 289.601562 209.402344 291.109375 208.804688 293.910156 207.558594 C 296.582031 206.367188 297.355469 206.003906 299.046875 205.148438 C 301.355469 203.976562 302.558594 203.191406 304.515625 201.582031 C 305.113281 201.09375 306.632812 199.664062 307.019531 199.230469 C 307.207031 199.015625 307.5 198.699219 307.667969 198.523438 C 307.96875 198.203125 308.570312 197.480469 308.945312 196.988281 C 309.054688 196.847656 309.199219 196.660156 309.269531 196.578125 C 309.445312 196.367188 310.066406 195.445312 310.457031 194.820312 C 312.523438 191.484375 313.726562 187.964844 314.105469 184.128906 C 314.132812 183.832031 314.179688 183.382812 314.207031 183.132812 C 314.460938 180.691406 314.039062 176.199219 313.367188 174.230469 C 313.34375 174.160156 313.296875 174.007812 313.261719 173.882812 C 312.390625 170.804688 310.726562 167.628906 308.527344 164.84375 C 306.625 162.4375 303.539062 159.828125 300.921875 158.417969 C 300.308594 158.085938 299.265625 157.574219 298.898438 157.417969 C 298.71875 157.34375 298.484375 157.242188 298.367188 157.191406 C 298.253906 157.140625 298.148438 157.097656 298.132812 157.097656 C 298.117188 157.097656 298.011719 157.054688 297.898438 157 C 294.675781 155.542969 290.199219 154.789062 286.304688 155.046875 M 287.195312 158.308594 C 285.402344 158.457031 283.578125 158.765625 282.753906 159.0625 C 282.683594 159.089844 282.527344 159.136719 282.40625 159.171875 C 281.554688 159.40625 278.644531 160.613281 273.246094 162.972656 C 272.675781 163.222656 271.988281 163.519531 271.714844 163.636719 C 271.445312 163.753906 270.632812 164.109375 269.914062 164.429688 C 269.195312 164.746094 268.550781 165.027344 268.484375 165.054688 C 268.414062 165.082031 268.292969 165.132812 268.210938 165.171875 C 268.128906 165.210938 267.664062 165.417969 267.171875 165.632812 L 266.285156 166.023438 L 266.285156 183.027344 C 266.285156 196.738281 266.296875 200.070312 266.347656 200.238281 C 266.539062 200.863281 267.148438 201.332031 269.445312 202.621094 C 276.933594 206.828125 280.304688 207.777344 285.132812 207.039062 C 287.324219 206.703125 288.445312 206.304688 293.046875 204.25 C 293.398438 204.09375 293.988281 203.832031 294.355469 203.667969 C 295.855469 203.007812 298.003906 201.945312 298.871094 201.4375 C 299.074219 201.320312 299.273438 201.203125 299.472656 201.085938 C 299.847656 200.871094 300.871094 200.207031 300.921875 200.148438 C 300.933594 200.128906 301.027344 200.0625 301.125 200 C 301.222656 199.933594 301.433594 199.78125 301.589844 199.65625 C 301.746094 199.535156 301.992188 199.347656 302.132812 199.238281 C 303.125 198.480469 305.238281 196.367188 306.046875 195.316406 C 306.164062 195.164062 306.351562 194.921875 306.46875 194.777344 C 306.582031 194.628906 306.707031 194.460938 306.746094 194.402344 C 306.789062 194.34375 306.898438 194.183594 306.996094 194.046875 C 307.917969 192.714844 308.660156 191.347656 309.265625 189.855469 C 309.40625 189.503906 309.542969 189.171875 309.566406 189.117188 C 309.691406 188.824219 310.070312 187.566406 310.234375 186.894531 C 310.273438 186.730469 310.335938 186.476562 310.375 186.328125 C 311.019531 183.742188 311.121094 179.574219 310.597656 177.144531 C 310.460938 176.503906 310.292969 175.765625 310.25 175.613281 C 309.847656 174.125 309.816406 174.03125 309.164062 172.328125 C 308.644531 170.964844 307.375 168.808594 306.164062 167.238281 C 305.492188 166.363281 303.761719 164.558594 302.976562 163.914062 C 299.40625 160.988281 295.992188 159.425781 291.316406 158.582031 C 291.183594 158.554688 290.859375 158.511719 290.601562 158.484375 L 289.667969 158.378906 C 289.175781 158.324219 287.574219 158.277344 287.195312 158.308594 M 286.601562 162.433594 C 284.554688 162.636719 283.65625 162.917969 279.960938 164.515625 C 279.148438 164.867188 278.269531 165.246094 278.011719 165.351562 C 277.363281 165.625 272.738281 167.605469 272.554688 167.691406 C 272.472656 167.726562 272.0625 167.902344 271.644531 168.082031 C 271.011719 168.347656 270.835938 168.445312 270.644531 168.636719 C 270.21875 169.054688 270.257812 167.558594 270.273438 183.660156 L 270.285156 198.003906 L 270.425781 198.28125 C 270.671875 198.765625 271.027344 199.035156 272.359375 199.730469 C 272.65625 199.890625 273.378906 200.277344 273.960938 200.597656 C 275.535156 201.453125 275.886719 201.628906 276.726562 201.992188 C 277.421875 202.289062 278.53125 202.6875 278.816406 202.738281 C 278.878906 202.75 279.027344 202.785156 279.148438 202.816406 C 280.335938 203.132812 281.238281 203.226562 282.691406 203.195312 C 285.121094 203.144531 286.378906 202.8125 289.195312 201.488281 C 289.4375 201.371094 289.738281 201.238281 289.863281 201.1875 C 289.984375 201.140625 290.300781 200.996094 290.566406 200.871094 C 290.832031 200.746094 291.058594 200.644531 291.066406 200.644531 C 291.078125 200.644531 291.34375 200.523438 291.660156 200.375 C 291.976562 200.222656 292.246094 200.101562 292.257812 200.101562 C 292.265625 200.101562 292.46875 200.011719 292.710938 199.898438 C 293.261719 199.640625 293.671875 199.453125 293.984375 199.3125 C 295.304688 198.71875 297.417969 197.597656 298.191406 197.078125 C 300.007812 195.851562 302.207031 193.738281 303.292969 192.167969 C 304.273438 190.753906 304.832031 189.777344 305.3125 188.648438 C 305.398438 188.445312 305.488281 188.234375 305.515625 188.179688 C 305.578125 188.039062 305.761719 187.5625 305.8125 187.414062 C 306.867188 184.132812 307.125 181.195312 306.617188 178.253906 C 306.574219 178.007812 306.53125 177.742188 306.515625 177.660156 C 306.488281 177.480469 306.363281 176.925781 306.300781 176.722656 C 306.277344 176.640625 306.222656 176.429688 306.179688 176.253906 C 305.136719 172.058594 302.296875 168.144531 298.476562 165.632812 C 294.910156 163.285156 290.375 162.0625 286.601562 162.433594 M 287.121094 165.722656 C 286.925781 165.738281 286.316406 165.832031 285.738281 165.933594 C 285.574219 165.960938 285.308594 166.019531 285.144531 166.0625 C 284.984375 166.105469 284.792969 166.148438 284.726562 166.164062 C 284.660156 166.175781 284.558594 166.207031 284.503906 166.226562 C 284.449219 166.25 284.285156 166.308594 284.132812 166.355469 C 283.984375 166.40625 283.382812 166.652344 282.800781 166.910156 C 281.828125 167.335938 280.320312 167.988281 278.503906 168.773438 C 278.050781 168.96875 277.597656 169.167969 277.148438 169.363281 C 276.703125 169.558594 276.257812 169.75 275.8125 169.941406 C 274.386719 170.550781 273.738281 170.84375 273.667969 170.90625 C 273.554688 171.007812 273.554688 196.4375 273.664062 196.570312 C 273.851562 196.796875 277.675781 198.804688 278.605469 199.164062 C 280.242188 199.796875 282.667969 200.0625 284.058594 199.757812 C 284.195312 199.730469 284.429688 199.679688 284.578125 199.648438 C 285.601562 199.441406 285.875 199.332031 288.972656 197.917969 C 295.460938 194.957031 296.269531 194.511719 298.132812 192.914062 C 299.105469 192.074219 299.824219 191.292969 300.648438 190.175781 C 301.449219 189.09375 302.421875 187.1875 302.746094 186.078125 C 302.78125 185.957031 302.828125 185.8125 302.847656 185.757812 C 302.871094 185.703125 302.898438 185.605469 302.914062 185.535156 C 302.925781 185.46875 302.972656 185.292969 303.015625 185.140625 C 303.671875 182.902344 303.652344 179.640625 302.96875 177.265625 C 302.898438 177.023438 302.820312 176.753906 302.800781 176.675781 C 302.777344 176.59375 302.683594 176.316406 302.585938 176.058594 C 301.054688 171.859375 298.085938 168.726562 293.984375 166.972656 C 293.683594 166.84375 293.351562 166.710938 293.242188 166.679688 C 293.136719 166.644531 293 166.601562 292.949219 166.578125 C 292.667969 166.457031 292.105469 166.289062 291.640625 166.183594 C 290.4375 165.910156 290.25 165.878906 288.875 165.738281 C 288.425781 165.695312 287.539062 165.683594 287.121094 165.722656 M 287.097656 169.859375 C 286.433594 169.957031 286.136719 170.03125 285.21875 170.328125 C 285.003906 170.398438 284.507812 170.582031 284.355469 170.652344 C 284.273438 170.6875 283.820312 170.882812 283.34375 171.085938 C 282.765625 171.332031 282.191406 171.582031 281.617188 171.835938 C 281.140625 172.042969 280.285156 172.414062 279.714844 172.65625 C 277.890625 173.429688 277.925781 173.410156 277.710938 173.851562 L 277.566406 174.148438 L 277.566406 193.734375 L 277.6875 193.96875 C 277.890625 194.367188 277.957031 194.414062 279.394531 195.148438 C 280.628906 195.78125 280.988281 195.871094 282.234375 195.875 C 283.773438 195.875 284.042969 195.792969 286.886719 194.429688 C 287.628906 194.074219 288.246094 193.78125 288.253906 193.78125 C 288.265625 193.78125 288.511719 193.671875 288.800781 193.535156 C 289.089844 193.398438 289.332031 193.289062 289.34375 193.289062 C 289.351562 193.289062 289.613281 193.167969 289.917969 193.023438 C 290.226562 192.878906 290.578125 192.714844 290.699219 192.65625 C 292.621094 191.78125 293.371094 191.398438 294.085938 190.921875 C 298.617188 187.890625 300.484375 182.652344 298.820312 177.648438 C 297.164062 172.679688 291.875 169.164062 287.097656 169.863281 M 288.035156 173.128906 C 287.402344 173.171875 286.40625 173.441406 285.789062 173.734375 C 285.734375 173.761719 284.667969 174.21875 283.417969 174.75 C 282.167969 175.285156 281.097656 175.75 281.035156 175.789062 L 280.925781 175.863281 L 280.925781 192.035156 L 281.109375 192.210938 C 281.441406 192.53125 282.636719 192.730469 282.863281 192.507812 C 282.894531 192.476562 282.96875 192.449219 283.03125 192.449219 C 283.160156 192.449219 285.285156 191.496094 287.046875 190.648438 C 287.8125 190.28125 288.574219 189.917969 289.34375 189.558594 C 291.917969 188.359375 292.664062 187.910156 293.605469 186.996094 C 296.625 184.070312 296.8125 179.136719 294.027344 175.933594 C 293.082031 174.84375 291.378906 173.753906 290.132812 173.433594 C 289.421875 173.253906 289.144531 173.203125 288.601562 173.152344 C 288.386719 173.132812 288.128906 173.125 288.035156 173.128906 "/><g style="fill:#000000;fill-opacity:1;"><g transform="translate(37.520048, 203.746902)"><path style="stroke:none" d="M 35.632812 -10.964844 L 35.632812 -27.410156 C 35.632812 -28.910156 35.09375 -30.199219 34.015625 -31.277344 C 32.9375 -32.355469 31.648438 -32.894531 30.152344 -32.894531 L 8.222656 -32.894531 L 8.222656 -5.480469 L 30.152344 -5.480469 C 31.648438 -5.480469 32.9375 -6.019531 34.015625 -7.097656 C 35.09375 -8.175781 35.632812 -9.464844 35.632812 -10.964844 Z M 41.117188 -27.410156 L 41.117188 -10.964844 C 41.117188 -9.027344 40.632812 -7.226562 39.664062 -5.5625 C 38.695312 -3.902344 37.378906 -2.558594 35.714844 -1.535156 C 34.054688 -0.511719 32.199219 0 30.152344 0 L 2.742188 0 L 2.742188 -38.375 L 30.152344 -38.375 C 32.125 -38.375 33.925781 -37.882812 35.550781 -36.894531 C 37.179688 -35.90625 38.503906 -34.59375 39.527344 -32.949219 C 40.550781 -31.304688 41.078125 -29.457031 41.117188 -27.410156 Z M 41.117188 -27.410156 "/></g></g><g style="fill:#000000;fill-opacity:1;"><g transform="translate(80.817296, 203.746902)"><path style="stroke:none" d="M 8.222656 -32.894531 L 8.222656 -21.929688 L 35.632812 -21.929688 L 35.632812 -16.445312 L 8.222656 -16.445312 L 8.222656 -5.480469 L 41.117188 -5.480469 L 41.117188 0 L 2.742188 0 L 2.742188 -38.375 L 41.117188 -38.375 L 41.117188 -32.894531 Z M 8.222656 -32.894531 "/></g></g><g style="fill:#000000;fill-opacity:1;"><g transform="translate(123.56648, 203.746902)"><path style="stroke:none" d="M 35.632812 -21.929688 L 35.632812 -27.410156 C 35.632812 -28.910156 35.09375 -30.199219 34.015625 -31.277344 C 32.9375 -32.355469 31.648438 -32.894531 30.152344 -32.894531 L 8.222656 -32.894531 L 8.222656 -16.445312 L 30.152344 -16.445312 C 31.648438 -16.445312 32.9375 -16.984375 34.015625 -18.0625 C 35.09375 -19.140625 35.632812 -20.429688 35.632812 -21.929688 Z M 41.117188 -27.410156 L 41.117188 -21.929688 C 41.117188 -19.992188 40.632812 -18.191406 39.664062 -16.527344 C 38.695312 -14.867188 37.378906 -13.523438 35.714844 -12.5 C 34.054688 -11.476562 32.199219 -10.964844 30.152344 -10.964844 L 8.222656 -10.964844 L 8.222656 0 L 2.742188 0 L 2.742188 -38.375 L 30.152344 -38.375 C 32.125 -38.375 33.925781 -37.882812 35.550781 -36.894531 C 37.179688 -35.90625 38.503906 -34.59375 39.527344 -32.949219 C 40.550781 -31.304688 41.078125 -29.457031 41.117188 -27.410156 Z M 41.117188 -27.410156 "/></g></g><g style="fill:#000000;fill-opacity:1;"><g transform="translate(165.21924, 203.746902)"><path style="stroke:none" d="M 38.375 -32.894531 L 21.929688 -32.894531 L 21.929688 0 L 16.445312 0 L 16.445312 -32.894531 L 0 -32.894531 L 0 -38.375 L 38.375 -38.375 Z M 38.375 -32.894531 "/></g></g><g style="fill:#000000;fill-opacity:1;"><g transform="translate(203.583907, 203.746902)"><path style="stroke:none" d="M 8.222656 -38.375 L 8.222656 -21.929688 L 35.632812 -21.929688 L 35.632812 -38.375 L 41.117188 -38.375 L 41.117188 0 L 35.632812 0 L 35.632812 -16.445312 L 8.222656 -16.445312 L 8.222656 0 L 2.742188 0 L 2.742188 -38.375 Z M 8.222656 -38.375 "/></g></g></g></svg>