<svg xmlns="http://www.w3.org/2000/svg" xmlns:xlink="http://www.w3.org/1999/xlink" width="500" zoomAndPan="magnify" viewBox="0 0 375 374.999991" height="500" preserveAspectRatio="xMidYMid meet" version="1.2"><g id="9d01e333f3"><path style=" stroke:none;fill-rule:nonzero;fill:#4d4d4e;fill-opacity:1;" d="M 127.292969 143.75 C 130.085938 144.535156 132.878906 145.605469 134.984375 147.652344 C 135.617188 148.34375 136.042969 148.871094 136.25 149.792969 C 136.730469 154.507812 135.359375 159.382812 134.296875 163.933594 C 134.121094 164.6875 133.945312 165.441406 133.773438 166.199219 C 133.386719 167.878906 132.992188 169.558594 132.601562 171.234375 L 132.308594 172.484375 C 131.265625 176.957031 130.214844 181.425781 129.113281 185.882812 L 128.949219 186.550781 C 128.695312 187.585938 128.4375 188.625 128.175781 189.660156 L 127.90625 190.75 L 127.78125 191.246094 C 127.589844 192.023438 127.449219 192.738281 127.5 193.542969 L 127.945312 192.945312 C 129.453125 190.921875 130.988281 188.925781 132.539062 186.941406 C 132.921875 186.449219 133.304688 185.960938 133.683594 185.46875 C 134.847656 183.96875 136.011719 182.472656 137.222656 181.007812 C 137.839844 180.257812 138.449219 179.503906 139.0625 178.75 L 140.925781 176.457031 C 141.851562 175.324219 142.785156 174.203125 143.734375 173.089844 C 144.332031 172.382812 144.921875 171.671875 145.507812 170.949219 C 146.9375 169.195312 148.410156 167.46875 149.933594 165.792969 C 150.550781 165.117188 151.144531 164.421875 151.71875 163.710938 C 153.289062 161.777344 154.921875 159.898438 156.613281 158.074219 C 157.320312 157.316406 157.996094 156.535156 158.644531 155.730469 C 159.667969 154.460938 160.769531 153.273438 161.875 152.082031 C 162.90625 150.96875 163.917969 149.859375 164.84375 148.660156 C 165.453125 147.890625 165.976562 147.316406 166.875 146.875 C 167.976562 146.527344 169.050781 146.371094 170.207031 146.457031 C 170.808594 146.613281 170.808594 146.613281 171.25 146.875 C 171.417969 147.242188 171.417969 147.242188 171.457031 147.707031 C 170.734375 149.324219 169.460938 150.675781 168.3125 152.003906 C 167.300781 153.171875 166.363281 154.402344 165.417969 155.625 L 165.15625 155.960938 C 164.546875 156.75 163.941406 157.542969 163.332031 158.332031 L 163.03125 158.726562 C 162.355469 159.609375 161.679688 160.496094 161.003906 161.382812 C 160.605469 161.898438 160.210938 162.417969 159.8125 162.933594 C 158.320312 164.886719 156.84375 166.851562 155.390625 168.832031 C 154.714844 169.75 154.03125 170.660156 153.332031 171.5625 C 151.042969 174.523438 148.859375 177.566406 146.703125 180.625 L 146.394531 181.0625 C 146.183594 181.363281 145.976562 181.660156 145.765625 181.957031 C 145.101562 182.894531 144.433594 183.828125 143.757812 184.757812 C 142.570312 186.390625 141.417969 188.050781 140.308594 189.738281 C 139.65625 190.730469 138.992188 191.71875 138.332031 192.707031 L 137.464844 194.011719 C 137 194.707031 136.535156 195.402344 136.070312 196.097656 C 133.234375 200.335938 130.496094 204.632812 127.96875 209.0625 C 126.917969 210.898438 125.867188 212.695312 124.582031 214.375 L 124.21875 214.859375 C 123.191406 216.140625 121.914062 216.933594 120.402344 217.554688 C 119.710938 217.800781 119.019531 218.035156 118.320312 218.253906 L 117.570312 218.5 C 111.792969 220.347656 111.792969 220.347656 109.453125 219.894531 C 108.914062 219.757812 108.425781 219.605469 107.917969 219.375 C 107.4375 218.894531 107.171875 218.515625 106.875 217.917969 C 106.628906 215.917969 106.988281 214.066406 107.421875 212.125 L 107.59375 211.351562 C 107.769531 210.550781 107.945312 209.753906 108.125 208.957031 L 108.289062 208.222656 C 108.671875 206.503906 109.058594 204.789062 109.453125 203.074219 L 109.640625 202.261719 C 111.066406 196.035156 112.613281 189.84375 114.1875 183.65625 C 114.367188 182.953125 114.542969 182.25 114.722656 181.550781 C 116.667969 173.867188 116.667969 173.867188 117.722656 170.066406 L 117.886719 169.472656 L 118.027344 168.96875 C 118.148438 168.511719 118.148438 168.511719 118.125 167.917969 L 117.78125 168.34375 C 116.972656 169.339844 116.164062 170.316406 115.300781 171.261719 C 114.5625 172.070312 113.875 172.902344 113.195312 173.761719 C 112.703125 174.382812 112.195312 174.992188 111.691406 175.605469 C 110.460938 177.085938 109.265625 178.59375 108.105469 180.128906 C 107.285156 181.207031 106.4375 182.253906 105.574219 183.292969 C 104.609375 184.453125 103.683594 185.621094 102.789062 186.832031 C 102.289062 187.503906 101.777344 188.160156 101.261719 188.820312 C 100.027344 190.390625 98.832031 191.984375 97.671875 193.609375 C 96.910156 194.667969 96.132812 195.710938 95.339844 196.746094 C 93.15625 199.582031 91.003906 202.4375 88.949219 205.375 C 88.304688 206.292969 87.648438 207.203125 86.992188 208.113281 L 86.648438 208.585938 C 86.089844 209.359375 85.53125 210.128906 84.96875 210.902344 C 83.542969 212.863281 82.148438 214.84375 80.777344 216.84375 C 77.847656 221.097656 77.847656 221.097656 75.746094 222.121094 C 74.191406 222.75 72.507812 223.074219 70.832031 223.125 C 70.113281 222.925781 70.113281 222.925781 69.582031 222.707031 C 69.503906 221.539062 69.625 220.75 70.121094 219.6875 L 70.363281 219.207031 L 70.617188 218.6875 C 71.503906 216.917969 72.558594 215.261719 73.644531 213.609375 C 74.039062 213.003906 74.417969 212.390625 74.800781 211.78125 C 76.441406 209.152344 78.152344 206.570312 79.855469 203.984375 C 80.5625 202.910156 81.269531 201.835938 81.972656 200.761719 C 82.507812 199.949219 83.042969 199.136719 83.574219 198.324219 C 83.835938 197.929688 84.09375 197.53125 84.355469 197.136719 C 85.808594 194.921875 87.285156 192.726562 88.824219 190.566406 C 89.535156 189.566406 90.226562 188.554688 90.910156 187.539062 C 92.042969 185.871094 93.1875 184.21875 94.347656 182.570312 C 95.171875 181.398438 95.980469 180.21875 96.785156 179.035156 C 97.988281 177.265625 99.234375 175.527344 100.496094 173.796875 C 101.0625 173.019531 101.625 172.238281 102.1875 171.457031 L 102.867188 170.519531 C 103.316406 169.898438 103.761719 169.277344 104.210938 168.652344 C 106.449219 165.546875 108.699219 162.449219 111.0625 159.433594 C 111.738281 158.570312 112.402344 157.703125 113.058594 156.824219 C 114.636719 154.707031 116.285156 152.648438 117.996094 150.640625 C 118.492188 150.054688 118.984375 149.464844 119.464844 148.867188 C 119.78125 148.480469 120.097656 148.09375 120.417969 147.707031 L 120.714844 147.34375 C 123.011719 144.519531 123.011719 144.519531 124.582031 143.75 C 125.53125 143.433594 126.316406 143.558594 127.292969 143.75 M 191.25 175.417969 C 192.503906 175.296875 193.507812 175.523438 194.6875 175.9375 L 195.175781 176.105469 C 197.351562 176.875 199.691406 177.851562 201.457031 179.375 C 202.074219 180.191406 202.429688 181.105469 202.707031 182.082031 C 203.09375 185.824219 201.824219 189.40625 200.316406 192.773438 C 198.300781 197.214844 196.191406 201.609375 193.75 205.832031 C 194.71875 205.3125 195.5 204.789062 196.300781 204.023438 C 197.046875 203.328125 197.796875 202.664062 198.59375 202.03125 C 199.960938 200.925781 201.230469 199.71875 202.507812 198.511719 C 202.917969 198.121094 203.335938 197.734375 203.753906 197.347656 C 204.960938 196.226562 206.164062 195.101562 207.320312 193.921875 C 207.671875 193.578125 208.027344 193.261719 208.40625 192.949219 C 209.628906 191.882812 210.765625 190.722656 211.914062 189.574219 C 212.304688 189.179688 212.695312 188.789062 213.089844 188.398438 C 214.210938 187.277344 215.324219 186.15625 216.355469 184.945312 C 216.914062 184.296875 217.507812 183.683594 218.097656 183.058594 C 219.105469 181.996094 220.0625 180.890625 220.976562 179.746094 C 221.921875 178.605469 222.945312 177.535156 223.957031 176.457031 C 224.660156 176.628906 224.660156 176.628906 225.417969 176.875 C 225.832031 177.5 225.832031 177.5 225.902344 177.964844 C 225.917969 178.84375 225.882812 179.46875 225.535156 180.285156 C 225.363281 180.542969 225.183594 180.792969 225 181.042969 L 224.628906 181.554688 C 224.136719 182.222656 223.632812 182.886719 223.125 183.542969 L 222.789062 183.976562 C 222.050781 184.933594 221.304688 185.886719 220.5625 186.839844 C 220.242188 187.246094 219.925781 187.65625 219.605469 188.0625 C 218.367188 189.648438 217.105469 191.214844 215.832031 192.773438 C 215.332031 193.386719 214.839844 194.003906 214.347656 194.621094 C 213.621094 195.535156 212.867188 196.425781 212.109375 197.316406 C 211.507812 198.027344 210.914062 198.742188 210.324219 199.464844 C 208.691406 201.46875 207.003906 203.421875 205.253906 205.324219 C 204.855469 205.761719 204.464844 206.207031 204.074219 206.652344 C 203.28125 207.570312 202.457031 208.457031 201.632812 209.347656 C 201.210938 209.808594 200.800781 210.28125 200.390625 210.757812 C 199.464844 211.820312 198.480469 212.824219 197.484375 213.824219 C 197.269531 214.042969 197.058594 214.261719 196.84375 214.480469 C 194.707031 216.679688 192.441406 218.425781 189.597656 219.636719 C 188.058594 220.011719 186.71875 219.777344 185.210938 219.371094 C 183.726562 218.929688 182.382812 218.238281 181.023438 217.507812 C 180.636719 217.300781 180.246094 217.097656 179.855469 216.894531 C 177.199219 215.511719 177.199219 215.511719 176.421875 214.460938 C 175.867188 213.574219 175.632812 212.6875 175.417969 211.667969 L 175.171875 211.980469 C 173.503906 214 171.335938 215.214844 168.957031 216.25 C 167.324219 216.8125 165.667969 216.828125 163.957031 216.667969 C 163.222656 216.507812 162.679688 216.292969 162.082031 215.832031 C 161.207031 214.972656 160.671875 213.996094 160.332031 212.820312 C 159.902344 210.976562 159.722656 209.179688 159.792969 207.292969 C 157.621094 208.285156 156.019531 209.988281 154.402344 211.691406 C 152.734375 213.375 150.609375 214.730469 148.332031 215.417969 C 146.914062 215.777344 145.398438 215.644531 143.996094 215.253906 C 142.757812 214.785156 141.59375 214.214844 140.742188 213.179688 C 139.914062 211.957031 139.460938 210.652344 139.316406 209.1875 C 139.210938 205.53125 140.179688 202.246094 141.835938 199.023438 C 143.117188 196.78125 144.796875 194.878906 146.574219 193.023438 C 146.851562 192.734375 147.125 192.441406 147.394531 192.148438 C 148.75 190.726562 150.242188 189.617188 151.875 188.542969 C 151.996094 188.460938 152.121094 188.378906 152.246094 188.296875 C 154.878906 186.570312 158.054688 184.789062 161.25 184.582031 C 163.109375 184.492188 164.855469 184.464844 166.574219 185.238281 C 167.53125 185.753906 168.234375 186.285156 168.867188 187.175781 C 169.199219 187.738281 169.402344 188.210938 169.597656 188.839844 C 169.578125 189.878906 169.390625 190.722656 168.957031 191.667969 C 168.292969 192.730469 167.558594 193.683594 166.445312 194.296875 C 165.894531 194.523438 165.472656 194.605469 164.871094 194.6875 C 164.167969 194.582031 164.167969 194.582031 163.554688 194.269531 C 163.039062 193.851562 162.605469 193.433594 162.148438 192.957031 C 161.085938 191.863281 159.789062 190.902344 158.332031 190.417969 C 156.957031 190.316406 155.527344 190.214844 154.183594 190.582031 C 153.328125 191.011719 152.78125 191.558594 152.226562 192.332031 C 151.214844 194.015625 150.648438 195.679688 150.574219 197.644531 C 150.589844 199.058594 150.882812 200.414062 151.601562 201.640625 C 152.371094 202.347656 153.207031 202.980469 154.230469 203.253906 C 155.808594 203.476562 157.535156 203.558594 159.050781 203.007812 C 160.351562 202.382812 161.285156 201.597656 162.105469 200.402344 C 162.527344 199.71875 162.933594 199.03125 163.332031 198.332031 C 164.285156 196.726562 164.285156 196.726562 165 196.25 C 165.574219 196.171875 166.082031 196.210938 166.667969 196.25 L 167.082031 196.667969 C 167.117188 197.140625 167.117188 197.140625 167.09375 197.726562 L 167.078125 198.378906 C 167.066406 198.828125 167.046875 199.277344 167.03125 199.726562 C 167 201.242188 167.195312 202.40625 167.917969 203.75 C 168.292969 204.335938 168.292969 204.335938 168.722656 204.777344 L 169.125 205.226562 C 169.671875 205.703125 170.160156 205.980469 170.832031 206.25 C 172.203125 206.464844 173.445312 206.445312 174.734375 205.953125 C 175.617188 205.488281 176.417969 205.054688 177.105469 204.328125 L 177.5 203.957031 L 178.332031 203.957031 L 178.410156 203.507812 C 178.808594 201.714844 179.75 200.046875 180.578125 198.421875 C 181.132812 197.324219 181.664062 196.21875 182.1875 195.105469 C 182.742188 193.929688 183.304688 192.761719 183.894531 191.601562 C 186.167969 187.089844 188.355469 182.476562 190.011719 177.699219 L 190.226562 177.078125 L 190.414062 176.519531 C 190.636719 176.019531 190.8125 175.746094 191.25 175.417969 M 241.042969 186.042969 C 241.960938 186.605469 242.707031 187.203125 243.332031 188.085938 C 243.625 189.015625 243.792969 189.855469 243.75 190.832031 C 243.488281 191.980469 242.976562 192.914062 242.238281 193.828125 C 241.636719 194.460938 241.039062 194.953125 240.230469 195.296875 C 239.578125 195.472656 239.042969 195.488281 238.378906 195.375 C 237.492188 195.054688 236.914062 194.394531 236.25 193.75 C 234.3125 192.058594 234.3125 192.058594 231.953125 191.140625 C 230.6875 190.984375 229.539062 191.023438 228.332031 191.457031 C 227.285156 192.015625 226.480469 192.757812 225.832031 193.75 C 224.871094 195.882812 224.664062 197.890625 224.792969 200.207031 C 224.898438 200.90625 225.054688 201.476562 225.417969 202.082031 C 226.167969 202.945312 227.070312 203.523438 228.125 203.957031 C 229.632812 204.328125 231.347656 204.375 232.851562 203.957031 C 234.035156 203.476562 234.96875 202.816406 235.832031 201.875 C 236.417969 201.046875 236.949219 200.1875 237.457031 199.3125 C 238 198.390625 238.453125 197.675781 239.375 197.082031 C 239.910156 196.875 239.910156 196.875 240.417969 196.875 C 240.886719 197.199219 240.886719 197.199219 241.25 197.707031 C 241.507812 198.617188 241.410156 199.292969 241.25 200.207031 C 241.15625 201.421875 241.199219 202.542969 241.632812 203.6875 C 242.195312 204.800781 242.953125 205.824219 243.96875 206.558594 C 244.835938 207.023438 245.679688 207.273438 246.667969 207.292969 C 248.410156 207.054688 249.773438 206.085938 251.136719 205.046875 C 251.796875 204.523438 252.414062 203.957031 253.03125 203.382812 C 253.929688 202.558594 254.878906 201.800781 255.832031 201.042969 L 256.46875 200.527344 C 259.265625 198.296875 262.261719 196.558594 265.675781 195.46875 L 266.09375 195.335938 C 269.003906 194.445312 271.867188 194.773438 274.792969 195.417969 C 279.128906 196.523438 283.273438 198.890625 286.789062 201.617188 C 289.257812 203.527344 291.882812 205.105469 294.582031 206.667969 L 295.152344 207 C 299.199219 209.359375 303.3125 210.925781 307.851562 212.046875 C 309.347656 212.421875 310.65625 212.769531 311.875 213.75 C 312.046875 214.164062 312.046875 214.164062 312.082031 214.582031 C 311.570312 215.179688 311.070312 215.605469 310.417969 216.042969 C 306.324219 216.519531 302.269531 215.046875 298.542969 213.542969 L 297.945312 213.300781 C 295.113281 212.148438 292.441406 210.78125 289.773438 209.292969 C 283.097656 205.605469 276.726562 203 269.007812 203.082031 C 264.578125 203.1875 260.453125 204.855469 256.65625 207.03125 C 254.714844 208.21875 253.027344 209.691406 251.367188 211.238281 C 245.691406 216.519531 245.691406 216.519531 242.082031 217.5 C 240.492188 217.769531 238.847656 217.839844 237.269531 217.472656 C 236.699219 217.210938 236.292969 216.882812 235.832031 216.457031 C 234.40625 214.230469 234.113281 212.042969 233.96875 209.472656 C 233.957031 208.75 233.957031 208.75 234.167969 208.125 C 232.46875 208.824219 231.363281 209.777344 230.117188 211.105469 C 227.886719 213.402344 225.585938 215.320312 222.515625 216.390625 C 220.9375 216.640625 219.113281 216.6875 217.605469 216.121094 C 217.285156 215.964844 216.972656 215.800781 216.667969 215.625 L 216.222656 215.394531 C 215.273438 214.808594 214.726562 214.050781 214.167969 213.097656 C 213.398438 211.558594 213.367188 210.035156 213.453125 208.339844 C 213.738281 204.574219 214.761719 201.292969 216.875 198.125 C 217.539062 197.199219 218.242188 196.304688 218.957031 195.417969 L 219.238281 195.058594 C 219.484375 194.753906 219.742188 194.460938 220 194.167969 L 220.417969 194.167969 L 220.582031 193.789062 C 221.035156 192.96875 221.78125 192.460938 222.5 191.875 L 223.066406 191.40625 C 226.503906 188.648438 230.433594 186.28125 234.792969 185.417969 L 235.230469 185.328125 C 237.125 185.011719 239.289062 185.253906 241.042969 186.042969 "/><path style=" stroke:none;fill-rule:nonzero;fill:#4e4e4f;fill-opacity:1;" d="M 324.582031 208.957031 C 325.242188 209.144531 325.484375 209.335938 326.042969 209.792969 C 326.671875 210.507812 327.195312 211.171875 327.5 212.082031 C 327.609375 213.1875 327.636719 214.246094 327.175781 215.273438 C 326.6875 216.113281 326.027344 216.773438 325.207031 217.292969 C 324.089844 217.679688 322.828125 217.648438 321.667969 217.5 C 320.765625 217.078125 320.175781 216.4375 319.503906 215.714844 C 319.003906 214.960938 318.773438 214.398438 318.683594 213.488281 C 318.765625 212.519531 318.9375 211.703125 319.375 210.832031 C 319.929688 210.109375 320.5 209.542969 321.316406 209.132812 C 322.386719 208.796875 323.476562 208.851562 324.582031 208.957031 "/></g></svg>