<svg xmlns="http://www.w3.org/2000/svg" xmlns:xlink="http://www.w3.org/1999/xlink" width="500" zoomAndPan="magnify" viewBox="0 0 375 374.999991" height="500" preserveAspectRatio="xMidYMid meet" version="1.2"><g id="4da29d37fb"><path style=" stroke:none;fill-rule:nonzero;fill:#292829;fill-opacity:1;" d="M 82.320312 149.402344 C 84.914062 150.625 87.300781 152.171875 89.375 154.167969 L 89.582031 154.582031 L 89.238281 154.585938 C 88.042969 154.59375 86.847656 154.609375 85.648438 154.625 C 85.203125 154.632812 84.757812 154.636719 84.3125 154.640625 C 81.257812 154.660156 78.660156 154.816406 75.871094 156.199219 C 73.484375 157.601562 71.933594 159.589844 70.582031 161.972656 C 68.730469 165.355469 68.257812 168.902344 68.125 172.707031 L 68.105469 173.246094 C 68.085938 173.800781 68.070312 174.355469 68.058594 174.910156 L 68.042969 175.425781 C 68.03125 176.5 68.21875 177.25 68.734375 178.191406 C 69.464844 179.324219 70.519531 179.976562 71.667969 180.625 C 72.449219 181.011719 73.246094 181.359375 74.050781 181.707031 L 74.730469 182.003906 C 76.578125 182.804688 78.445312 183.554688 80.332031 184.265625 C 81.921875 184.878906 83.449219 185.605469 84.582031 186.914062 C 85 187.5 85 187.5 85.207031 188.125 C 85.351562 189.648438 85.21875 190.964844 84.640625 192.386719 C 84.023438 193.617188 83.230469 194.640625 82.082031 195.417969 C 81.421875 195.636719 80.886719 195.679688 80.191406 195.722656 L 79.382812 195.769531 L 78.488281 195.820312 L 78.03125 195.847656 C 75.070312 196.015625 72.105469 196.148438 69.140625 196.277344 L 68.492188 196.304688 C 67.875 196.332031 67.257812 196.355469 66.640625 196.382812 L 66.085938 196.40625 C 62.722656 196.542969 62.722656 196.542969 61.679688 196.097656 C 59.351562 194.660156 57.757812 191.511719 56.46875 189.171875 C 55.703125 187.75 55.023438 186.3125 54.480469 184.792969 L 54.332031 184.382812 C 53.617188 182.242188 53.464844 180.125 53.476562 177.878906 L 53.480469 177.066406 C 53.503906 175.121094 53.644531 173.335938 54.167969 171.457031 L 54.382812 170.683594 C 55.605469 166.691406 57.722656 163.207031 60.625 160.207031 L 60.980469 159.832031 C 62.039062 158.734375 63.183594 157.824219 64.414062 156.925781 L 65.503906 156.121094 C 65.671875 156 65.835938 155.878906 66.007812 155.75 C 66.515625 155.375 67.011719 154.984375 67.5 154.582031 C 64.382812 154.398438 61.914062 155.046875 59.113281 156.40625 C 55.953125 158.019531 53.300781 160.363281 51.367188 163.339844 C 49.191406 166.835938 47.816406 170.726562 47.667969 174.871094 C 47.570312 180.648438 49.492188 186.039062 52.21875 191.074219 C 53.863281 194.003906 55.898438 196.660156 58.125 199.167969 C 58.359375 199.4375 58.59375 199.707031 58.832031 199.976562 C 61.027344 202.484375 63.359375 204.828125 65.804688 207.089844 C 66.394531 207.632812 66.976562 208.179688 67.558594 208.730469 C 69.238281 210.308594 70.917969 211.890625 72.648438 213.414062 C 73.726562 214.367188 74.710938 215.347656 75.625 216.457031 L 75.207031 217.082031 C 74.273438 217.417969 73.265625 217.433594 72.292969 217.292969 C 71.578125 216.984375 71.019531 216.527344 70.417969 216.042969 L 69.675781 215.460938 C 69 214.921875 68.324219 214.382812 67.65625 213.835938 C 67.179688 213.453125 66.703125 213.074219 66.222656 212.695312 C 65.214844 211.886719 64.226562 211.054688 63.246094 210.21875 C 62.777344 209.816406 62.304688 209.421875 61.832031 209.023438 C 60.113281 207.582031 58.492188 206.0625 56.90625 204.472656 C 56.523438 204.089844 56.136719 203.707031 55.75 203.324219 C 54.105469 201.6875 52.644531 199.976562 51.25 198.125 C 50.9375 197.726562 50.625 197.328125 50.3125 196.925781 C 48.378906 194.324219 46.765625 191.488281 45.417969 188.542969 L 45.226562 188.125 C 42.882812 182.925781 41.675781 177.34375 42.179688 171.640625 C 42.703125 166.589844 44.648438 161.929688 47.59375 157.816406 C 50.535156 153.851562 54.085938 150.742188 58.601562 148.746094 C 66.0625 145.570312 74.976562 146.050781 82.320312 149.402344 "/><path style=" stroke:none;fill-rule:nonzero;fill:#2a292a;fill-opacity:1;" d="M 253.058594 174.34375 C 253.671875 174.644531 254.25 175.003906 254.792969 175.417969 L 255.179688 175.210938 L 255.714844 174.933594 L 256.234375 174.664062 C 257.851562 173.933594 259.238281 173.640625 261.015625 173.660156 L 261.628906 173.664062 C 263.097656 173.699219 264.324219 173.867188 265.625 174.582031 L 266.171875 174.878906 C 267.214844 175.480469 268.199219 176.160156 269.167969 176.875 L 269.394531 176.539062 C 270.058594 175.605469 270.632812 174.914062 271.667969 174.375 C 273.101562 173.832031 274.410156 173.65625 275.9375 173.683594 L 276.488281 173.683594 C 278.421875 173.699219 280.136719 174.007812 281.847656 174.925781 C 282.429688 175.296875 282.777344 175.65625 283.125 176.25 C 283.761719 177.859375 283.6875 179.597656 283.445312 181.292969 C 283.308594 181.96875 283.148438 182.636719 282.980469 183.308594 C 282.886719 183.714844 282.789062 184.121094 282.691406 184.527344 C 282.617188 184.835938 282.546875 185.144531 282.472656 185.453125 C 281.917969 187.761719 281.398438 190.078125 280.871094 192.394531 C 280.695312 193.175781 280.515625 193.953125 280.335938 194.734375 L 280.167969 195.484375 C 280.054688 195.972656 279.941406 196.457031 279.832031 196.941406 C 279.585938 198.003906 279.351562 199.0625 279.152344 200.128906 L 279.046875 200.660156 C 278.988281 200.976562 278.933594 201.296875 278.878906 201.613281 C 278.800781 202.03125 278.800781 202.03125 278.542969 202.707031 C 277.574219 203.328125 276.554688 203.621094 275.417969 203.75 C 273.929688 203.753906 272.164062 203.640625 270.832031 202.917969 C 270.511719 201.996094 270.699219 201.148438 270.835938 200.207031 L 270.917969 199.628906 C 271.324219 197.015625 272.023438 194.46875 272.695312 191.914062 C 272.824219 191.410156 272.957031 190.90625 273.085938 190.402344 L 273.46875 188.929688 L 273.65625 188.214844 C 273.914062 187.207031 274.175781 186.207031 274.453125 185.207031 L 274.574219 184.742188 C 274.679688 184.359375 274.785156 183.972656 274.890625 183.589844 C 275.015625 182.820312 274.953125 182.21875 274.792969 181.457031 C 274.554688 181.0625 274.554688 181.0625 274.167969 180.832031 C 273.167969 180.363281 272.3125 180.34375 271.222656 180.367188 C 270.59375 180.394531 270.59375 180.394531 269.910156 180.652344 C 269.054688 181.277344 268.546875 181.859375 268.082031 182.800781 C 267.175781 184.960938 266.691406 187.261719 266.152344 189.535156 C 265.980469 190.261719 265.804688 190.984375 265.632812 191.710938 C 265.183594 193.578125 264.734375 195.445312 264.289062 197.316406 L 264.160156 197.847656 C 263.742188 199.605469 263.332031 201.367188 262.917969 203.125 L 255.207031 203.125 C 255.902344 199.167969 256.824219 195.300781 257.820312 191.410156 C 258.359375 189.3125 258.882812 187.207031 259.363281 185.09375 L 259.503906 184.496094 C 259.742188 183.417969 259.855469 182.550781 259.582031 181.457031 C 259.203125 180.832031 259.203125 180.832031 258.542969 180.417969 C 257.699219 180.113281 256.882812 179.949219 255.988281 180.054688 C 255.496094 180.164062 255.496094 180.164062 254.792969 180.417969 L 254.191406 180.597656 L 253.75 180.832031 C 253.527344 181.214844 253.527344 181.214844 253.332031 181.667969 L 253.136719 182.105469 C 252.535156 183.542969 252.148438 185 251.785156 186.515625 L 251.589844 187.316406 C 251.417969 188.015625 251.25 188.71875 251.078125 189.417969 C 250.945312 189.972656 250.808594 190.527344 250.671875 191.082031 C 250.089844 193.464844 249.511719 195.851562 248.964844 198.242188 L 248.863281 198.683594 C 248.703125 199.378906 248.546875 200.070312 248.390625 200.765625 L 248.21875 201.511719 L 248.074219 202.167969 C 247.917969 202.707031 247.917969 202.707031 247.5 203.332031 C 245.988281 203.992188 244.335938 204.125 242.707031 203.957031 C 242.070312 203.816406 241.632812 203.636719 241.042969 203.332031 C 240.644531 202.9375 240.46875 202.660156 240.296875 202.132812 C 239.949219 200.269531 240.535156 198.207031 240.988281 196.402344 L 241.160156 195.683594 C 241.351562 194.910156 241.539062 194.140625 241.730469 193.371094 C 241.863281 192.835938 241.996094 192.300781 242.125 191.761719 C 242.527344 190.132812 242.929688 188.503906 243.332031 186.875 L 243.523438 186.113281 C 244.164062 183.519531 244.8125 180.929688 245.464844 178.339844 C 245.65625 177.582031 245.847656 176.824219 246.027344 176.0625 L 246.1875 175.375 L 246.320312 174.808594 C 246.457031 174.375 246.457031 174.375 246.875 173.957031 C 248.933594 173.492188 251.105469 173.527344 253.058594 174.34375 "/><path style=" stroke:none;fill-rule:nonzero;fill:#292829;fill-opacity:1;" d="M 84.628906 162.261719 L 85.421875 162.257812 L 86.28125 162.257812 L 87.164062 162.253906 C 87.78125 162.253906 88.394531 162.253906 89.011719 162.253906 C 89.800781 162.253906 90.585938 162.25 91.375 162.246094 C 91.984375 162.246094 92.589844 162.242188 93.199219 162.242188 C 93.488281 162.242188 93.777344 162.242188 94.070312 162.242188 C 96.910156 162.226562 96.910156 162.226562 98.125 162.707031 C 99.53125 163.578125 100.269531 165.039062 101.042969 166.457031 C 103.984375 171.988281 104.953125 177.65625 104.820312 183.871094 C 104.757812 185.460938 104.515625 186.992188 104.167969 188.542969 L 104.058594 189.027344 C 102.582031 195.457031 99.714844 201.59375 95.199219 206.453125 C 94.722656 206.949219 94.242188 207.4375 93.75 207.917969 L 93.378906 208.316406 C 90.753906 211.082031 87.398438 213.117188 83.996094 214.792969 L 83.5 215.042969 C 82.734375 215.410156 82.046875 215.683594 81.195312 215.730469 C 80.417969 215.625 80.417969 215.625 79.855469 215.265625 L 79.375 214.777344 C 78.773438 214.183594 78.175781 213.605469 77.535156 213.050781 C 76.6875 212.316406 75.867188 211.550781 75.050781 210.78125 C 73.839844 209.632812 73.839844 209.632812 72.597656 208.511719 C 71.453125 207.5 70.492188 206.582031 69.792969 205.207031 L 69.792969 204.792969 L 70.535156 204.777344 C 80.703125 205.160156 80.703125 205.160156 90.261719 202.550781 C 92.101562 201.367188 93.359375 199.820312 94.390625 197.890625 C 96.332031 193.953125 96.910156 189.554688 96.925781 185.222656 L 96.941406 184.394531 C 96.945312 182.84375 96.878906 181.4375 96.25 180 C 95.507812 178.746094 94.574219 177.84375 93.332031 177.082031 C 91.179688 175.910156 88.785156 175.304688 86.441406 174.640625 L 85.773438 174.449219 C 85.335938 174.324219 84.898438 174.203125 84.464844 174.082031 C 83.054688 173.679688 81.699219 173.273438 80.574219 172.304688 C 79.902344 171.503906 79.367188 170.84375 79.167969 169.792969 C 79.089844 168.007812 79.5 166.222656 80.289062 164.617188 C 80.742188 163.898438 81.207031 163.308594 81.902344 162.8125 C 82.835938 162.324219 83.578125 162.265625 84.628906 162.261719 M 118.085938 173.242188 C 118.898438 173.648438 119.433594 174.175781 120 174.878906 C 120.070312 174.988281 120.136719 175.097656 120.207031 175.207031 L 120.207031 175.625 L 120.726562 175.238281 L 121.433594 174.726562 L 121.769531 174.472656 C 122.929688 173.640625 124.15625 173.210938 125.578125 173.066406 C 126.179688 173.042969 126.78125 173.039062 127.382812 173.046875 L 127.988281 173.039062 C 129.417969 173.046875 130.742188 173.242188 132.082031 173.75 C 133.109375 174.367188 133.890625 175.058594 134.582031 176.042969 C 135.648438 178.554688 135.804688 180.8125 135.488281 183.503906 C 134.914062 187.871094 133.828125 192.082031 131.875 196.042969 L 131.523438 196.757812 C 130.339844 199.074219 128.996094 201.050781 126.867188 202.578125 C 125.074219 203.558594 123.433594 203.613281 121.433594 203.566406 L 120.976562 203.554688 C 117.527344 203.402344 117.527344 203.402344 114.257812 204.320312 C 113.179688 205.316406 112.785156 206.8125 112.347656 208.1875 C 112.109375 208.972656 111.878906 209.765625 111.664062 210.558594 C 111.457031 211.25 111.457031 211.25 111.25 211.457031 C 110.523438 211.511719 109.792969 211.496094 109.0625 211.496094 L 108.449219 211.503906 C 107.191406 211.507812 105.992188 211.4375 104.792969 211.042969 C 104.269531 210.691406 104.269531 210.691406 103.957031 210.207031 C 103.644531 208.90625 103.863281 207.808594 104.140625 206.511719 L 104.285156 205.820312 C 104.886719 203 105.625 200.21875 106.355469 197.429688 C 106.929688 195.25 107.496094 193.070312 108.0625 190.886719 C 108.261719 190.113281 108.464844 189.339844 108.664062 188.570312 C 110.375 182.304688 110.375 182.304688 111.433594 175.910156 L 111.503906 175.261719 C 111.5625 174.757812 111.617188 174.253906 111.667969 173.75 C 111.964844 173.648438 112.265625 173.546875 112.566406 173.445312 L 113.074219 173.277344 C 114.660156 172.765625 116.515625 172.621094 118.085938 173.242188 M 119.296875 181.667969 C 117.828125 183.347656 117.511719 186.058594 116.992188 188.191406 L 116.746094 189.191406 C 116.128906 191.675781 115.550781 194.167969 115 196.667969 C 115.824219 196.691406 116.648438 196.707031 117.472656 196.71875 L 118.175781 196.738281 C 119.519531 196.753906 120.625 196.648438 121.859375 196.082031 C 122.746094 195.574219 123.21875 194.980469 123.742188 194.113281 C 123.871094 193.855469 124 193.59375 124.128906 193.332031 L 124.339844 192.902344 C 125.703125 190.050781 127.019531 186.949219 127.382812 183.789062 C 127.257812 182.882812 126.992188 182.417969 126.457031 181.667969 C 125.953125 181.222656 125.527344 181.066406 124.878906 180.914062 C 122.804688 180.507812 121.15625 180.566406 119.296875 181.667969 "/><path style=" stroke:none;fill-rule:nonzero;fill:#2a292a;fill-opacity:1;" d="M 224.949219 167.863281 L 225.746094 167.867188 C 228.015625 167.886719 230.25 168.058594 232.5 168.332031 C 232.574219 173.316406 232.574219 173.316406 232.082031 174.792969 C 230.84375 174.710938 229.628906 174.609375 228.410156 174.363281 C 227.160156 174.125 225.953125 173.949219 224.710938 174.308594 C 223.609375 174.757812 222.683594 175.375 221.875 176.25 C 221.492188 176.804688 221.296875 177.238281 221.175781 177.902344 C 221.058594 179.566406 221.792969 181.035156 222.492188 182.503906 C 223.949219 185.496094 225.75 188.273438 228.125 190.625 L 228.542969 190.832031 L 228.699219 190.390625 C 228.992188 189.714844 229.347656 189.140625 229.753906 188.527344 L 230.171875 187.882812 C 230.625 187.289062 231.054688 186.882812 231.667969 186.457031 C 233.074219 185.988281 234.519531 186.3125 235.949219 186.554688 L 236.457031 186.667969 L 236.667969 186.875 C 236.839844 188.460938 236.542969 189.957031 236.042969 191.457031 C 235.523438 192.578125 234.925781 193.648438 234.320312 194.722656 C 234.117188 195.085938 233.917969 195.453125 233.71875 195.820312 L 233.359375 196.464844 C 233.082031 197.074219 233.082031 197.074219 233.160156 197.738281 C 233.328125 198.316406 233.492188 198.65625 233.863281 199.125 L 234.1875 199.546875 L 234.53125 199.972656 C 235.382812 201.058594 236.167969 202.148438 236.875 203.332031 C 230.640625 204.023438 230.640625 204.023438 228.625 203.347656 C 227.757812 202.960938 227.015625 202.425781 226.25 201.875 L 225.832031 201.667969 C 225.261719 201.902344 224.699219 202.15625 224.140625 202.421875 C 220.773438 203.957031 217.363281 205.039062 213.613281 204.710938 C 211.203125 204.441406 208.71875 203.839844 206.667969 202.5 C 205.464844 201.53125 204.574219 200.480469 203.945312 199.066406 C 203.269531 197.238281 203.113281 195.296875 203.429688 193.371094 C 203.894531 191.445312 204.789062 189.804688 206.082031 188.308594 C 208.242188 186.035156 210.941406 184.113281 213.75 182.707031 L 213.660156 182.1875 C 213.214844 179.429688 212.972656 176.632812 213.957031 173.957031 C 214.539062 172.613281 215.257812 171.402344 216.332031 170.398438 C 219.007812 168.425781 221.671875 167.839844 224.949219 167.863281 M 216.667969 187.917969 C 216.070312 188.367188 215.476562 188.816406 214.882812 189.269531 L 214.378906 189.648438 C 213.128906 190.609375 211.980469 191.636719 211.160156 192.996094 C 210.96875 193.886719 210.90625 194.71875 211.042969 195.625 C 211.394531 196.511719 211.90625 197.128906 212.605469 197.773438 C 214.199219 198.542969 216.003906 198.882812 217.773438 198.820312 C 219.011719 198.664062 220.101562 198.277344 221.132812 197.566406 C 221.929688 196.925781 221.929688 196.925781 222.449219 196.070312 L 222.5 195.625 C 222.296875 195.195312 222.296875 195.195312 221.964844 194.789062 L 221.597656 194.300781 L 221.199219 193.789062 L 220.390625 192.722656 L 219.980469 192.1875 C 219.308594 191.304688 218.660156 190.40625 218.015625 189.507812 C 217.597656 188.933594 217.175781 188.410156 216.667969 187.917969 M 150.519531 173.269531 L 150.96875 173.269531 C 156.691406 173.292969 156.691406 173.292969 159.136719 174.6875 C 160.242188 175.464844 161.132812 176.347656 161.757812 177.550781 C 162.746094 179.691406 162.425781 182.453125 162.246094 184.746094 C 161.710938 189.742188 160.222656 194.996094 157.289062 199.136719 C 155.835938 200.878906 153.871094 202.179688 151.757812 202.996094 C 148.375 204.082031 145.15625 204.394531 141.667969 203.75 C 139.921875 203.355469 138.292969 202.78125 136.875 201.667969 C 136.085938 200.859375 135.480469 199.933594 135.121094 198.859375 C 134.078125 194.402344 134.65625 189.875 135.929688 185.53125 C 136.96875 182.203125 138.878906 178.4375 141.457031 176.042969 C 143.042969 174.757812 144.703125 173.84375 146.707031 173.417969 C 147.96875 173.234375 149.246094 173.261719 150.519531 173.269531 M 147.84375 179.625 C 146.90625 180.199219 146.117188 180.839844 145.5 181.75 C 143.601562 185.296875 141.921875 190.628906 142.019531 194.65625 C 142.101562 195.367188 142.28125 195.902344 142.640625 196.515625 C 143.125 197.144531 143.675781 197.554688 144.375 197.917969 C 145.375 198.292969 146.226562 198.425781 147.292969 198.332031 C 148.242188 198.121094 149.011719 197.808594 149.832031 197.277344 C 151.816406 195.417969 152.765625 192.246094 153.566406 189.710938 C 154.304688 187.25 155.046875 184.578125 154.714844 182 C 154.5 181.125 154.152344 180.453125 153.542969 179.792969 C 152.820312 179.273438 152.15625 179.117188 151.289062 178.996094 C 150.027344 178.910156 148.976562 179.050781 147.84375 179.625 "/><path style=" stroke:none;fill-rule:nonzero;fill:#292829;fill-opacity:1;" d="M 40.207031 156.667969 L 40.417969 156.667969 C 40.515625 158.09375 40.195312 159.085938 39.648438 160.390625 C 37.3125 166.269531 36.460938 172.378906 37.304688 178.683594 C 38.59375 186.972656 42.785156 194.316406 47.972656 200.773438 C 48.703125 201.664062 49.480469 202.511719 50.269531 203.351562 C 50.699219 203.8125 51.113281 204.28125 51.523438 204.761719 C 52.300781 205.65625 53.144531 206.46875 54.011719 207.277344 L 54.484375 207.722656 C 55.46875 208.632812 56.464844 209.515625 57.515625 210.347656 C 58.148438 210.851562 58.773438 211.367188 59.398438 211.886719 C 60.785156 213.039062 62.195312 214.171875 63.617188 215.28125 C 64.445312 215.929688 65.253906 216.597656 66.042969 217.292969 L 65.832031 217.707031 C 62.902344 218.402344 59.722656 217.894531 56.875 217.082031 C 55.734375 216.734375 54.636719 216.304688 53.542969 215.832031 L 53.105469 215.648438 C 49.207031 213.957031 45.683594 211.65625 42.5625 208.773438 C 42.132812 208.378906 41.695312 208.003906 41.25 207.628906 C 37.171875 204.050781 34.28125 199.175781 32.476562 194.097656 C 30.152344 187.160156 29.800781 180.089844 31.25 172.917969 C 32.386719 167.695312 34.714844 162.675781 38.269531 158.671875 C 39.535156 157.296875 39.535156 157.296875 40.207031 156.667969 "/><path style=" stroke:none;fill-rule:nonzero;fill:#2a292a;fill-opacity:1;" d="M 344.46875 173.703125 L 345.027344 173.703125 C 345.414062 173.703125 345.804688 173.703125 346.191406 173.707031 C 346.777344 173.710938 347.363281 173.710938 347.945312 173.710938 C 354.765625 173.722656 354.765625 173.722656 356.878906 174.796875 C 357.535156 175.207031 358.003906 175.660156 358.398438 176.328125 C 359.398438 178.648438 359.269531 181.421875 359.019531 183.886719 C 358.769531 185.84375 358.222656 187.636719 357.292969 189.375 C 356.554688 189.40625 355.816406 189.4375 355.078125 189.464844 L 354.347656 189.496094 C 352.632812 189.558594 350.917969 189.597656 349.203125 189.621094 L 347.90625 189.640625 C 347.253906 189.652344 346.605469 189.660156 345.953125 189.667969 C 345.335938 189.671875 344.71875 189.683594 344.105469 189.691406 L 343.542969 189.695312 C 342.714844 189.710938 342.136719 189.769531 341.355469 190.082031 C 340.8125 190.390625 340.8125 190.390625 340.457031 190.898438 C 339.972656 191.996094 339.875 193.183594 340 194.375 C 340.199219 195.171875 340.199219 195.171875 340.625 195.832031 C 341.492188 196.425781 342.296875 196.582031 343.332031 196.667969 C 345.394531 196.71875 347.425781 196.566406 349.476562 196.398438 C 351.109375 196.273438 352.738281 196.222656 354.375 196.25 C 354.480469 197.894531 354.359375 199.164062 353.65625 200.671875 C 353.179688 201.527344 352.652344 202.308594 351.875 202.917969 C 350.96875 203.277344 350.207031 203.386719 349.234375 203.394531 L 348.410156 203.402344 L 347.523438 203.402344 L 346.605469 203.40625 C 345.964844 203.410156 345.324219 203.410156 344.679688 203.410156 C 343.863281 203.410156 343.050781 203.417969 342.234375 203.421875 C 341.601562 203.429688 340.96875 203.429688 340.335938 203.429688 C 340.035156 203.429688 339.734375 203.429688 339.433594 203.433594 C 337.855469 203.449219 336.460938 203.390625 334.996094 202.738281 C 334.421875 202.40625 333.996094 202.039062 333.59375 201.511719 C 332.316406 199.207031 332.210938 196.53125 332.246094 193.964844 C 332.425781 188.363281 334.050781 182.449219 336.902344 177.617188 C 337.75 176.328125 338.613281 175.257812 339.988281 174.519531 C 341.429688 173.816406 342.890625 173.6875 344.46875 173.703125 M 345.40625 179.492188 C 344.386719 180.246094 343.589844 181.125 343.042969 182.277344 C 342.746094 183.066406 342.5 183.734375 342.5 184.582031 C 344.570312 184.714844 346.636719 184.820312 348.710938 184.855469 L 349.234375 184.875 C 350.117188 184.882812 350.554688 184.828125 351.351562 184.394531 C 351.863281 184 351.863281 184 352.160156 183.59375 C 352.363281 182.871094 352.402344 182.195312 352.292969 181.457031 C 352.019531 180.761719 352.019531 180.761719 351.457031 180.207031 C 350.453125 179.527344 349.488281 179.035156 348.269531 178.910156 C 347.195312 178.875 346.347656 178.945312 345.40625 179.492188 M 296.902344 173.714844 L 297.394531 173.714844 C 297.742188 173.710938 298.085938 173.710938 298.429688 173.710938 C 298.949219 173.710938 299.46875 173.707031 299.988281 173.703125 C 304.84375 173.6875 304.84375 173.6875 306.878906 174.550781 C 308.011719 175.210938 309.03125 176.066406 309.683594 177.207031 C 310.851562 180.019531 310.625 183.4375 310.257812 186.40625 C 309.636719 190.667969 308.257812 195.269531 305.597656 198.722656 C 303.855469 200.683594 301.90625 202.050781 299.414062 202.878906 C 296.132812 203.929688 292.398438 203.859375 289.023438 203.195312 C 287.726562 202.910156 286.773438 202.4375 285.675781 201.691406 C 284.71875 200.785156 284.324219 199.941406 283.917969 198.699219 C 283.582031 197.523438 283.375 196.425781 283.332031 195.207031 L 283.300781 194.570312 C 283.164062 189.640625 284.675781 184.980469 286.875 180.625 C 287.992188 178.558594 289.488281 176.636719 291.421875 175.273438 C 293.222656 174.1875 294.808594 173.71875 296.902344 173.714844 M 295.429688 179.847656 C 293.476562 181.5625 292.332031 184.492188 291.503906 186.894531 C 291.109375 188.117188 290.84375 189.359375 290.625 190.625 L 290.542969 191.074219 C 290.3125 192.546875 290.199219 194.21875 290.519531 195.675781 C 290.867188 196.550781 291.421875 197.257812 292.082031 197.917969 C 293.039062 198.429688 293.914062 198.714844 295 198.75 C 296.15625 198.570312 297.109375 198.171875 298.058594 197.488281 C 300.277344 195.597656 301.300781 192.878906 302.292969 190.207031 C 303.054688 187.945312 303.371094 185.703125 303.398438 183.320312 L 303.417969 182.777344 C 303.425781 181.890625 303.382812 181.210938 302.953125 180.421875 C 302.449219 179.722656 302.003906 179.367188 301.25 178.957031 C 299.277344 178.34375 297.144531 178.726562 295.429688 179.847656 M 198.542969 167.082031 L 198.542969 172.917969 L 200.15625 173.007812 C 201.632812 173.09375 203.109375 173.199219 204.582031 173.332031 C 204.882812 174.910156 205.0625 176.683594 204.648438 178.246094 C 204.457031 178.679688 204.265625 179.015625 203.957031 179.375 C 203.085938 179.976562 202.289062 180.085938 201.25 180.207031 C 200.496094 180.253906 199.742188 180.28125 198.988281 180.296875 C 198.308594 180.328125 197.75 180.398438 197.117188 180.660156 C 196.527344 181.160156 196.324219 181.566406 196.042969 182.292969 C 195.828125 182.992188 195.652344 183.703125 195.480469 184.414062 L 195.324219 185.054688 C 195.144531 185.800781 194.96875 186.546875 194.792969 187.292969 L 194.570312 188.207031 C 194.378906 189.019531 194.183594 189.832031 193.996094 190.648438 C 193.917969 190.96875 193.84375 191.289062 193.765625 191.609375 C 193.179688 194.003906 193.179688 194.003906 193.125 196.457031 L 193.425781 196.875 C 195.089844 197.527344 196.921875 197.25 198.660156 197.097656 L 199.417969 197.035156 C 200.027344 196.980469 200.640625 196.929688 201.25 196.875 C 201.132812 197.570312 201.007812 198.265625 200.886719 198.957031 L 200.785156 199.546875 C 200.5625 200.769531 200.269531 201.867188 199.582031 202.917969 C 199.042969 203.417969 198.585938 203.675781 197.882812 203.882812 C 195.085938 204.484375 192.101562 204.394531 189.257812 204.414062 L 188.574219 204.421875 C 187.210938 204.421875 185.898438 204.347656 184.582031 203.957031 C 183.957031 203.59375 183.957031 203.59375 183.542969 203.125 C 183.234375 202.550781 183.125 202.09375 183.128906 201.441406 C 183.285156 199.460938 183.742188 197.546875 184.179688 195.613281 L 184.429688 194.476562 C 184.839844 192.644531 185.257812 190.8125 185.695312 188.988281 L 185.8125 188.5 C 185.992188 187.746094 186.171875 186.996094 186.359375 186.246094 C 187.046875 183.664062 187.046875 183.664062 186.941406 181.039062 L 186.71875 180.574219 L 186.484375 180.054688 C 186.285156 179.652344 186.078125 179.253906 185.871094 178.855469 C 185.59375 178.03125 185.542969 177.445312 185.679688 176.589844 C 185.898438 175.804688 186.304688 175.355469 186.847656 174.761719 C 187.589844 174.117188 188.414062 173.839844 189.335938 173.527344 C 191.621094 172.6875 193.367188 171.617188 195 169.792969 C 195.199219 169.542969 195.398438 169.296875 195.597656 169.050781 C 196.273438 168.242188 197.433594 167.082031 198.542969 167.082031 M 171.886719 173.253906 L 172.316406 173.238281 C 172.742188 173.238281 172.742188 173.238281 173.542969 173.332031 L 174.203125 173.769531 C 174.5625 174.011719 174.5625 174.011719 175 174.167969 C 175.914062 174.199219 176.800781 174.078125 177.707031 173.957031 L 179.089844 173.800781 C 179.785156 173.71875 180.476562 173.632812 181.167969 173.546875 C 182.457031 173.390625 183.703125 173.300781 185 173.332031 C 184.914062 174.003906 184.820312 174.671875 184.726562 175.339844 L 184.652344 175.910156 C 184.5 176.964844 184.320312 177.828125 183.75 178.75 C 183.289062 179.1875 182.925781 179.515625 182.316406 179.707031 C 181.859375 179.792969 181.433594 179.828125 180.96875 179.84375 L 180.445312 179.863281 L 179.894531 179.882812 C 177.234375 179.96875 177.234375 179.96875 174.671875 180.625 C 174.050781 181.136719 173.863281 181.574219 173.550781 182.304688 C 173.089844 183.597656 172.820312 184.945312 172.519531 186.28125 C 172.445312 186.613281 172.371094 186.941406 172.296875 187.273438 C 172.097656 188.140625 171.902344 189.007812 171.707031 189.875 C 171.511719 190.742188 171.316406 191.605469 171.121094 192.46875 C 170.710938 194.273438 170.300781 196.078125 169.894531 197.882812 L 169.691406 198.773438 C 169.484375 199.691406 169.277344 200.609375 169.066406 201.523438 L 168.914062 202.210938 L 168.773438 202.824219 L 168.652344 203.355469 C 168.542969 203.75 168.542969 203.75 168.332031 203.957031 C 167.460938 204.015625 166.589844 204.015625 165.714844 204.019531 C 165.277344 204.023438 164.84375 204.03125 164.40625 204.042969 C 164.125 204.042969 163.84375 204.046875 163.566406 204.046875 L 162.796875 204.054688 C 162.082031 203.957031 162.082031 203.957031 161.378906 203.550781 C 160.832031 203.125 160.832031 203.125 160.625 202.917969 C 160.398438 200.675781 160.910156 198.59375 161.417969 196.429688 C 161.5 196.066406 161.585938 195.703125 161.667969 195.335938 C 161.886719 194.371094 162.109375 193.40625 162.335938 192.441406 C 162.566406 191.449219 162.792969 190.457031 163.019531 189.464844 C 163.460938 187.550781 163.902344 185.632812 164.347656 183.71875 C 164.617188 182.566406 164.882812 181.414062 165.148438 180.261719 C 165.648438 178.089844 166.15625 175.917969 166.667969 173.75 C 170.355469 173.257812 170.355469 173.257812 171.886719 173.253906 M 318.617188 173.835938 L 319.15625 173.847656 L 319.757812 173.855469 L 320.378906 173.878906 L 320.992188 173.890625 C 322.066406 173.910156 323.101562 174.003906 324.167969 174.167969 C 324.609375 174.183594 325.050781 174.195312 325.496094 174.191406 L 326.152344 174.195312 C 326.675781 174.175781 327.199219 174.128906 327.71875 174.0625 C 329.023438 173.910156 330.328125 173.929688 331.640625 173.933594 L 332.410156 173.929688 L 333.816406 173.929688 C 334.375 173.957031 334.375 173.957031 335 174.167969 C 334.980469 174.695312 334.960938 175.226562 334.933594 175.753906 L 334.921875 176.207031 C 334.882812 176.925781 334.789062 177.503906 334.5625 178.195312 C 334.167969 178.75 334.167969 178.75 333.582031 179.128906 C 332.148438 179.644531 330.507812 179.550781 329.003906 179.621094 C 327.359375 179.710938 326.28125 179.914062 324.855469 180.742188 C 323.945312 181.703125 323.585938 183.066406 323.273438 184.335938 C 323.195312 184.6875 323.117188 185.035156 323.039062 185.386719 L 322.90625 185.972656 C 322.8125 186.386719 322.722656 186.804688 322.628906 187.21875 C 322.382812 188.328125 322.132812 189.4375 321.882812 190.542969 L 321.726562 191.234375 C 321.207031 193.527344 320.671875 195.8125 320.125 198.097656 C 320.023438 198.523438 319.921875 198.949219 319.824219 199.375 C 319.683594 199.96875 319.542969 200.558594 319.398438 201.152344 L 319.273438 201.6875 C 319.171875 202.097656 319.066406 202.507812 318.957031 202.917969 L 318.75 203.125 C 318.226562 203.144531 317.707031 203.148438 317.179688 203.144531 L 316.703125 203.144531 C 316.203125 203.144531 315.699219 203.140625 315.195312 203.136719 C 314.855469 203.136719 314.515625 203.136719 314.175781 203.136719 C 313.339844 203.132812 312.503906 203.128906 311.667969 203.125 C 311.429688 199.953125 312.148438 197.066406 312.890625 193.996094 C 313.015625 193.472656 313.136719 192.945312 313.261719 192.417969 C 313.511719 191.359375 313.761719 190.296875 314.015625 189.234375 C 314.492188 187.21875 314.949219 185.199219 315.402344 183.179688 C 315.679688 181.953125 315.960938 180.726562 316.242188 179.496094 C 316.390625 178.847656 316.53125 178.195312 316.671875 177.539062 L 316.878906 176.582031 L 316.96875 176.144531 C 317.117188 175.476562 317.308594 174.96875 317.667969 174.386719 C 318.125 173.957031 318.125 173.957031 318.617188 173.835938 "/></g></svg>